<?xml version="1.0" encoding="utf-8"?>
<!-- Generator: Adobe Illustrator 18.1.1, SVG Export Plug-In . SVG Version: 6.00 Build 0)  -->
<svg version="1.1" id="Layer_1" xmlns="http://www.w3.org/2000/svg" xmlns:xlink="http://www.w3.org/1999/xlink" x="0px" y="0px"
	 viewBox="0 0 600 600" enable-background="new 0 0 600 600" xml:space="preserve">
<path id="arrow-R" fill="#0C0E0F" d="M295.8,449.6c-1.7-0.2-3.1-0.5-4.8-0.9c-4.3-1.2-8.2-3.2-11.8-6c-1.1-0.9-2.7-0.9-3.7-1.9
	c-0.6-0.6-0.8-1.5-1.4-2.1L35,206.6c-13.3-12.9-13.3-33.9,0-46.9c13.3-12.9,34.9-12.9,48.2,0l182.4,177.1h68.7l182.4-177.1
	c13.3-12.9,34.9-12.9,48.2,0c13.3,12.9,13.3,33.9,0,46.9l-239,232c-0.6,0.7-0.9,1.6-1.5,2.2C316.6,448.4,306,451,295.8,449.6z"/>
</svg>
