<?xml version="1.0" encoding="utf-8"?>
<!-- Generator: Adobe Illustrator 18.1.1, SVG Export Plug-In . SVG Version: 6.00 Build 0)  -->
<svg version="1.1" id="Layer_1" xmlns="http://www.w3.org/2000/svg" xmlns:xlink="http://www.w3.org/1999/xlink" x="0px" y="0px"
	 viewBox="0 0 600 600" enable-background="new 0 0 600 600" xml:space="preserve">
<g id="arrow-prev">
	<path fill="#0E0F10" d="M152.8,304.2c0.2,1.7,0.4,3.2,0.9,4.8c1.3,4.2,3.4,8.2,6.3,11.8c0.8,1.2,0.8,2.6,1.9,3.7
		c0.6,0.6,1.5,0.8,2.2,1.4L403,564.3c28.3,28.4,62.3-5.5,34-33.7l-233-230.5l233-230.6c28.3-28.3-5.6-62.1-34-33.8L164.1,274.1
		c-0.8,0.5-1.6,0.8-2.3,1.5C154.1,283.4,151.4,294,152.8,304.2z"/>
</g>
<g id="Layer_1_1_">
</g>
</svg>
