<?xml version="1.0" encoding="utf-8"?>
<!-- Generator: Adobe Illustrator 18.1.1, SVG Export Plug-In . SVG Version: 6.00 Build 0)  -->
<!DOCTYPE svg PUBLIC "-//W3C//DTD SVG 1.1//EN" "http://www.w3.org/Graphics/SVG/1.1/DTD/svg11.dtd">
<svg version="1.1" id="Layer_1" xmlns="http://www.w3.org/2000/svg" xmlns:xlink="http://www.w3.org/1999/xlink" x="0px" y="0px"
	 viewBox="0 0 600 600" enable-background="new 0 0 600 600" xml:space="preserve">
<g>
	<path d="M437.5,61.8h-275L25,300l137.5,238.2h275L575,300L437.5,61.8z M392.1,402.2c-3.3-8-86-189.5-86-189.5
		s-39.1,83.4-55.9,118.8c28.2,0,54.3,0,81.9,0c3.8,10.6,7.3,20.3,11.5,32.1c-38.1,0-72.8,0-107.4,0c-6.4,13.2-12.3,26.3-18.2,38.5
		c-14.1,0-28.3,0-44.8,0c38.4-80.9,77-160.4,115-240.4c9.6,0,31.9,0,31.9,0l115.7,240.4C435.8,402.2,408.2,402.2,392.1,402.2z"/>
</g>
</svg>
