<?xml version="1.0" encoding="utf-8"?>
<!-- Generator: Adobe Illustrator 19.2.1, SVG Export Plug-In . SVG Version: 6.00 Build 0)  -->
<svg version="1.1" id="Layer_1" xmlns="http://www.w3.org/2000/svg" xmlns:xlink="http://www.w3.org/1999/xlink" x="0px" y="0px"
	 viewBox="0 0 600 600" style="enable-background:new 0 0 600 600;" xml:space="preserve">
<style type="text/css">
	.st0{fill:#1D1D1B;}
</style>
<g id="Layer_1_1_">
</g>
<g id="Layer_1_2_">
</g>
<g id="Layer_1_3_">
</g>
<path class="st0" d="M244.3,428.2c-20.2,0-36.7,16.4-36.7,36.7s16.5,36.7,36.7,36.7c20.3,0,36.7-16.4,36.7-36.7
	S264.7,428.2,244.3,428.2z"/>
<path class="st0" d="M446,428.2c-20.2,0-36.7,16.4-36.7,36.7s16.5,36.7,36.7,36.7c20.3,0,36.7-16.4,36.7-36.7S466.3,428.2,446,428.2
	z"/>
<path class="st0" d="M563.7,154.9c-2-0.8-4.1-1.1-6.1-1.2H135.7l-25.7-55.1H25v36.7h61.7L215,410h262.3l96.3-231.1
	C577.5,169.4,573.1,158.7,563.7,154.9z M452.7,373.2H238.3l-85.9-184h377.1L452.7,373.2z"/>
</svg>
