<?xml version="1.0" encoding="utf-8"?>
<!-- Generator: Adobe Illustrator 18.1.1, SVG Export Plug-In . SVG Version: 6.00 Build 0)  -->
<!DOCTYPE svg PUBLIC "-//W3C//DTD SVG 1.1//EN" "http://www.w3.org/Graphics/SVG/1.1/DTD/svg11.dtd">
<svg version="1.1" id="Layer_1" xmlns="http://www.w3.org/2000/svg" xmlns:xlink="http://www.w3.org/1999/xlink" x="0px" y="0px"
	 viewBox="0 0 600 600" enable-background="new 0 0 600 600" xml:space="preserve">
<path d="M564.6,170.8c-6.9-7.1-15.5-10.8-25.6-10.8H105.5c-9.8,0-18.2,3.6-25.3,10.8c-7.2,7.2-10.7,15.6-10.7,25.4v49.1h-28
	c-9.2,0-16.4,7.2-16.4,16.5v77.8c0,9.3,7.2,16.5,16.4,16.5h28v47.9c0,9.9,3.6,18.3,10.7,25.4c7.2,7.2,15.5,10.8,25.3,10.8h433.4
	c10.1,0,18.9-3.5,25.6-10.5c6.9-7.1,10.4-15.9,10.4-25.7V196.2C575,186.3,571.3,177.7,564.6,170.8L564.6,170.8z M541.9,403.8
	c0,2.1-0.9,3-3,3H105.5c-1.2,0-3-1.8-3-3V196.2c0-1.2,1.8-3,3-3h433.4c2.1,0,3,0.9,3,3V403.8z M541.9,403.8"/>
</svg>
