<?xml version="1.0" encoding="utf-8"?>
<!-- Generator: Adobe Illustrator 18.1.1, SVG Export Plug-In . SVG Version: 6.00 Build 0)  -->
<svg version="1.1" id="Layer_1" xmlns="http://www.w3.org/2000/svg" xmlns:xlink="http://www.w3.org/1999/xlink" x="0px" y="0px"
	 viewBox="0 0 600 600" enable-background="new 0 0 600 600" xml:space="preserve">
<g>
	<polygon fill="none" points="296,110.4 135.9,154.1 299.7,215.7 463.5,154.1 	"/>
	<polygon fill="none" points="60,276.7 234.8,343 287,238.5 112.2,172.2 	"/>
	<polygon fill="none" points="486.9,172.2 312.1,237.7 364.4,343 539.2,277.6 	"/>
	<path fill="#231F20" d="M499.3,140.9L295.1,85.6l-1.2,1.2l-0.5-0.5L99.9,140.9L25.1,290.6l74.9,28v110.8c0,0-0.1,10.9,9.3,14.8
		l179.4,67.1c10.9,3.9,10.9,3.9,22.6,0l179.4-67.1c9.4-3.1,9.3-14.8,9.3-14.8V318.7l74.9-28L499.3,140.9z M234.8,343L60,276.7
		l52.3-104.6L287,238.5L234.8,343z M299.7,215.7l-163.8-61.7l160-44.7l167.5,44.7L299.7,215.7z M364.4,343l-52.3-105.4l174.8-65.5
		l52.3,105.4L364.4,343z"/>
</g>
<g id="Layer_1_2_">
</g>
</svg>
