<?xml version="1.0" encoding="utf-8"?>
<!-- Generator: Adobe Illustrator 18.1.1, SVG Export Plug-In . SVG Version: 6.00 Build 0)  -->
<!DOCTYPE svg PUBLIC "-//W3C//DTD SVG 1.1//EN" "http://www.w3.org/Graphics/SVG/1.1/DTD/svg11.dtd">
<svg version="1.1" id="Layer_1" xmlns="http://www.w3.org/2000/svg" xmlns:xlink="http://www.w3.org/1999/xlink" x="0px" y="0px"
	 viewBox="0 0 600 600" enable-background="new 0 0 600 600" xml:space="preserve">
<g>
	<path d="M514.6,64.8c22.2,0,40.2,18,40.2,40.2v388.7c0,22.2-18,40.2-40.2,40.2H84.2c-22.2,0-40.2-18-40.2-40.2V105
		c0-22.2,18-40.2,40.2-40.2H514.6 M514.6,45.2H84.2c-33,0-59.8,26.8-59.8,59.8v388.7c0,33,26.8,59.8,59.8,59.8h430.3
		c33,0,59.8-26.8,59.8-59.8V105C574.4,72,547.6,45.2,514.6,45.2L514.6,45.2z"/>
	<g>
		<g>
			<rect x="123.5" y="200.4" width="41.8" height="268.2"/>
			<rect x="433.5" y="200.4" width="41.8" height="268.2"/>
		</g>
		<rect x="165.3" y="130.1" width="268.2" height="41.8"/>
	</g>
</g>
</svg>
