<?xml version="1.0" encoding="utf-8"?>
<!-- Generator: Adobe Illustrator 18.1.1, SVG Export Plug-In . SVG Version: 6.00 Build 0)  -->
<!DOCTYPE svg PUBLIC "-//W3C//DTD SVG 1.1//EN" "http://www.w3.org/Graphics/SVG/1.1/DTD/svg11.dtd">
<svg version="1.1" id="Layer_1" xmlns="http://www.w3.org/2000/svg" xmlns:xlink="http://www.w3.org/1999/xlink" x="0px" y="0px"
	 viewBox="0 0 600 600" enable-background="new 0 0 600 600" xml:space="preserve">
<g>
	<polygon points="438.8,151.4 438.8,151.4 414.4,151.4 414.4,151.4 402.2,151.4 402.2,151.4 377.8,151.4 377.8,151.4 365.6,151.4 
		365.6,151.4 341.2,151.4 341.2,151.4 329,151.4 329,151.4 304.6,151.4 304.6,151.4 292.4,151.4 292.4,151.4 268,151.4 268,151.4 
		255.8,151.4 255.8,151.4 231.4,151.4 231.4,151.4 219.2,151.4 219.2,151.4 194.8,151.4 194.8,151.4 182.6,151.4 182.6,151.4 
		158.2,151.4 158.2,151.4 122.6,151.4 122.6,362.9 201.2,362.9 201.2,415.7 237.5,415.7 237.5,453 359.5,453 359.5,415.7 
		395.8,415.7 395.8,362.9 474.4,362.9 474.4,151.4 	"/>
	<path d="M514.8,64.8c22.2,0,40.2,18,40.2,40.2v388.7c0,22.2-18,40.2-40.2,40.2H84.4c-22.2,0-40.2-18-40.2-40.2V105
		c0-22.2,18-40.2,40.2-40.2H514.8 M514.8,45.2H84.4c-33,0-59.8,26.8-59.8,59.8v388.7c0,33,26.8,59.8,59.8,59.8h430.3
		c33,0,59.8-26.8,59.8-59.8V105C574.6,72,547.8,45.2,514.8,45.2L514.8,45.2z"/>
</g>
</svg>
