<?xml version="1.0" encoding="utf-8"?>
<!-- Generator: Adobe Illustrator 18.1.1, SVG Export Plug-In . SVG Version: 6.00 Build 0)  -->
<!DOCTYPE svg PUBLIC "-//W3C//DTD SVG 1.1//EN" "http://www.w3.org/Graphics/SVG/1.1/DTD/svg11.dtd">
<svg version="1.1" id="Layer_1" xmlns="http://www.w3.org/2000/svg" xmlns:xlink="http://www.w3.org/1999/xlink" x="0px" y="0px"
	 viewBox="0 0 600 600" enable-background="new 0 0 600 600" xml:space="preserve">
<path d="M125.6,25v550h348.8V25H125.6z M234.6,430.2h-66.5v-66.5h66.5V430.2z M234.6,330.8h-66.5v-66.5h66.5V330.8z M234.6,231.5
	h-66.5V165h66.5V231.5z M234.6,132.2h-66.5V65.7h66.5V132.2z M336.2,430.2h-66.5v-66.5h66.5V430.2z M336.2,330.8h-66.5v-66.5h66.5
	V330.8z M336.2,231.5h-66.5V165h66.5V231.5z M336.2,132.2h-66.5V65.7h66.5V132.2z M437.8,430.2h-66.5v-66.5h66.5V430.2z
	 M437.8,330.8h-66.5v-66.5h66.5V330.8z M437.8,231.5h-66.5V165h66.5V231.5z M437.8,132.2h-66.5V65.7h66.5V132.2z"/>
</svg>
