<?xml version="1.0" encoding="utf-8"?>
<!-- Generator: Adobe Illustrator 18.1.1, SVG Export Plug-In . SVG Version: 6.00 Build 0)  -->
<svg version="1.1" id="Layer_1" xmlns="http://www.w3.org/2000/svg" xmlns:xlink="http://www.w3.org/1999/xlink" x="0px" y="0px"
	 viewBox="0 0 600 600" enable-background="new 0 0 600 600" xml:space="preserve">
<path fill="#0C0E0F" d="M269,402.2c-0.6,0.9-1,1.8-1.7,2.6c-3.6,3.6-8.4,5.3-13.1,5.2c-4.7,0.1-9.5-1.5-13.1-5.2
	c-0.8-0.8-1.2-1.7-1.7-2.6l-89.9-90c-7-7-7-18.3,0-25.3c7-7,18.3-7,25.3,0l79.4,79.4l171.1-171.1c7-7,18.3-7,25.3,0
	c7,7,7,18.3,0,25.3L269,402.2z M25,300c0,151.9,123.1,275,275,275s275-123.1,275-275S451.9,25,300,25S25,148.1,25,300z"/>
</svg>
