<?xml version="1.0" encoding="utf-8"?>
<!-- Generator: Adobe Illustrator 18.1.1, SVG Export Plug-In . SVG Version: 6.00 Build 0)  -->
<!DOCTYPE svg PUBLIC "-//W3C//DTD SVG 1.0//EN" "http://www.w3.org/TR/2001/REC-SVG-20010904/DTD/svg10.dtd">
<svg version="1.0" id="Layer_1" xmlns="http://www.w3.org/2000/svg" xmlns:xlink="http://www.w3.org/1999/xlink" x="0px" y="0px"
	 viewBox="0 0 600 600" enable-background="new 0 0 600 600" xml:space="preserve">
<g id="_x33_8_x5F_Cart">
	<g>
		<path fill="#231F20" d="M25,98.3L25,98.3h84.7l128.5,274.8h214.3l87-208.6c4-9.2,14.4-13.8,24.2-9.8c9.2,4,13.8,14.4,9.8,24.2
			l-96.8,230.5H214.6L86.7,134.6H25V98.3L25,98.3z"/>
	</g>
	<g>
		<path fill="#231F20" d="M280.8,464.8c0-20.2-16.1-36.9-36.9-36.9c-20.2,0-36.9,16.1-36.9,36.9c0,20.2,16.7,36.9,36.9,36.9
			C264.1,501.1,280.8,485,280.8,464.8"/>
	</g>
	<g>
		<path fill="#231F20" d="M482.5,464.8c0-20.2-16.1-36.9-36.9-36.9c-20.2,0-36.9,16.1-36.9,36.9c0,20.2,16.7,36.9,36.9,36.9
			C465.8,501.1,482.5,485,482.5,464.8"/>
	</g>
	<g>
		<path fill="#231F20" d="M222.6,180.7c0,15-12.1,27.7-27.7,27.7c-15,0-27.7-12.1-27.7-27.7c0-15,12.1-27.7,27.7-27.7
			S222.6,165.2,222.6,180.7"/>
	</g>
	<g>
		<path fill="#231F20" d="M259.5,253.9c0,15-12.1,27.7-27.7,27.7c-15,0-27.7-12.1-27.7-27.7c0-15,12.1-27.7,27.7-27.7
			C246.8,226.2,259.5,238.9,259.5,253.9"/>
	</g>
	<g>
		<path fill="#231F20" d="M332.7,253.9c0,15-12.1,27.7-27.7,27.7c-15,0-27.7-12.1-27.7-27.7c0-15,12.1-27.7,27.7-27.7
			S332.7,238.9,332.7,253.9"/>
	</g>
	<g>
		<path fill="#231F20" d="M369.6,180.7c0,15-12.1,27.7-27.7,27.7c-15,0-27.7-12.1-27.7-27.7c0-15,12.1-27.7,27.7-27.7
			C356.9,153.1,369.6,165.2,369.6,180.7"/>
	</g>
	<g>
		<path fill="#231F20" d="M369.6,327.1c0,15-12.1,27.7-27.7,27.7c-15,0-27.7-12.1-27.7-27.7c0-15,12.1-27.7,27.7-27.7
			C356.9,299.4,369.6,312.1,369.6,327.1"/>
	</g>
	<g>
		<path fill="#231F20" d="M405.9,253.9c0,15-12.1,27.7-27.7,27.7c-15,0-27.7-12.1-27.7-27.7c0-15,12.1-27.7,27.7-27.7
			S405.9,238.9,405.9,253.9"/>
	</g>
	<g>
		<path fill="#231F20" d="M442.7,327.1c0,15-12.1,27.7-27.7,27.7c-15,0-27.7-12.1-27.7-27.7c0-15,12.1-27.7,27.7-27.7
			C430.6,299.4,442.7,312.1,442.7,327.1"/>
	</g>
	<g>
		<path fill="#231F20" d="M479.6,253.9c0,15-12.1,27.7-27.7,27.7c-15,0-27.7-12.1-27.7-27.7c0-15,12.1-27.7,27.7-27.7
			C466.9,226.2,479.6,238.9,479.6,253.9"/>
	</g>
	<g>
		<path fill="#231F20" d="M442.7,180.7c0,15-12.1,27.7-27.7,27.7c-15,0-27.7-12.1-27.7-27.7c0-15,12.1-27.7,27.7-27.7
			C430.6,153.1,442.7,165.2,442.7,180.7"/>
	</g>
	<g>
		<path fill="#231F20" d="M515.9,180.7c0,15-12.1,27.7-27.7,27.7c-15,0-27.7-12.1-27.7-27.7c0-15,12.1-27.7,27.7-27.7
			S515.9,165.2,515.9,180.7"/>
	</g>
	<g>
		<path fill="#231F20" d="M295.8,180.7c0,15-12.1,27.7-27.7,27.7c-15,0-27.7-12.1-27.7-27.7c0-15,12.1-27.7,27.7-27.7
			S295.8,165.2,295.8,180.7"/>
	</g>
	<g>
		<path fill="#231F20" d="M295.8,327.1c0,15-12.1,27.7-27.7,27.7c-15,0-27.7-12.1-27.7-27.7c0-15,12.1-27.7,27.7-27.7
			S295.8,312.1,295.8,327.1"/>
	</g>
</g>
<g id="Layer_1_1_">
</g>
</svg>
