<?xml version="1.0" encoding="utf-8"?>
<!-- Generator: Adobe Illustrator 18.1.1, SVG Export Plug-In . SVG Version: 6.00 Build 0)  -->
<!DOCTYPE svg PUBLIC "-//W3C//DTD SVG 1.1//EN" "http://www.w3.org/Graphics/SVG/1.1/DTD/svg11.dtd">
<svg version="1.1" id="Layer_1" xmlns="http://www.w3.org/2000/svg" xmlns:xlink="http://www.w3.org/1999/xlink" x="0px" y="0px"
	 viewBox="0 0 600 600" enable-background="new 0 0 600 600" xml:space="preserve">
<path d="M174.2,452.9V167.2c0-18-11.3-30.8-28.7-33.3v352.2C162.7,483.4,174.2,470.5,174.2,452.9z"/>
<path d="M396.7,25H203.3c-34.3,0-57.8,23.5-57.8,57.8v35.5c25.8,2.9,43.3,20,43.3,43.7v298.2c0,12.6-5.2,23.9-14.7,31.9
	c-7.5,6.3-17.4,10.4-28.6,11.7v13.3c0,34.3,23.5,57.8,57.8,57.8h192.9c34.3,0,58.3-24,58.3-57.8V82.8C454.5,48.5,431,25,396.7,25z
	 M343,78.7c0,4.7-3.8,8.5-8.5,8.5h-68.9c-4.7,0-8.5-3.8-8.5-8.5v-1.4c0-4.7,3.8-8.5,8.5-8.5h68.9c4.7,0,8.5,3.8,8.5,8.5V78.7z"/>
</svg>
