<?xml version="1.0" encoding="utf-8"?>
<!-- Generator: Adobe Illustrator 18.1.1, SVG Export Plug-In . SVG Version: 6.00 Build 0)  -->
<svg version="1.1" id="Layer_1" xmlns="http://www.w3.org/2000/svg" xmlns:xlink="http://www.w3.org/1999/xlink" x="0px" y="0px"
	 viewBox="0 0 600 600" enable-background="new 0 0 600 600" xml:space="preserve">
<g>
	<path fill="#0C0E0F" d="M212.9,555.9V437.5H112.1c-48,0-87.1-39.1-87.1-87.1V131.2c0-48,39.1-87.1,87.1-87.1h375.7
		c48,0,87.1,39.1,87.1,87.1v219.1c0,48.1-39.1,87.2-87.1,87.2H370.8L212.9,555.9z M112.1,93.1c-21,0-38.1,17.1-38.1,38.1v219.1
		c0,21,17.1,38.1,38.1,38.1h149.8v69.4l92.5-69.4h133.4c21,0,38.1-17.1,38.1-38.1V131.2c0-21-17.1-38.1-38.1-38.1H112.1z"/>
</g>
</svg>
