<?xml version="1.0" encoding="utf-8"?>
<!-- Generator: Adobe Illustrator 18.1.1, SVG Export Plug-In . SVG Version: 6.00 Build 0)  -->
<svg version="1.1" id="Layer_1" xmlns="http://www.w3.org/2000/svg" xmlns:xlink="http://www.w3.org/1999/xlink" x="0px" y="0px"
	 viewBox="0 0 600 600" enable-background="new 0 0 600 600" xml:space="preserve">
<path id="tick" fill="#0C0E0F" d="M245.3,487.4c-1.1,1.6-1.7,3.4-3.1,4.8c-6.4,6.6-14.8,9.7-23.1,9.5c-8.3,0.2-16.7-2.8-23.1-9.5
	c-1.4-1.4-2-3.2-3.1-4.8L34.3,322.5c-12.3-12.8-12.3-33.6,0-46.4c12.3-12.8,32.3-12.8,44.7,0l140.2,145.7l301.9-313.8
	c12.3-12.8,32.3-12.8,44.7,0c12.3,12.8,12.3,33.6,0,46.4L245.3,487.4z"/>
</svg>
