<?xml version="1.0" encoding="utf-8"?>
<!-- Generator: Adobe Illustrator 18.1.1, SVG Export Plug-In . SVG Version: 6.00 Build 0)  -->
<!DOCTYPE svg PUBLIC "-//W3C//DTD SVG 1.0//EN" "http://www.w3.org/TR/2001/REC-SVG-20010904/DTD/svg10.dtd">
<svg version="1.0" id="Layer_1" xmlns="http://www.w3.org/2000/svg" xmlns:xlink="http://www.w3.org/1999/xlink" x="0px" y="0px"
	 viewBox="0 0 600 600" enable-background="new 0 0 600 600" xml:space="preserve">
<g id="_x36_3_x5F_Cloud">
	<g>
		<path fill="#231F20" d="M515.4,305.4c0-1.7,0.6-3.4,0.6-5.2c0-54.4-44.1-98.5-98.5-98.5c-15.5,0-29.8,4-43,10.3
			c-13.2-51-59-88.8-114-88.8c-65.3,0-118,52.7-118,118c0,13.8,2.3,26.9,6.9,39.5H123c-54.4,0-98,43.5-98,98s44.1,98,98,98h363.8
			c48.7,0,88.2-39.5,88.2-88.2C575,350.1,549.8,317.5,515.4,305.4"/>
	</g>
</g>
<g id="Layer_1_1_">
</g>
</svg>
