<?xml version="1.0" encoding="utf-8"?>
<!-- Generator: Adobe Illustrator 18.1.1, SVG Export Plug-In . SVG Version: 6.00 Build 0)  -->
<svg version="1.1" id="Layer_1" xmlns="http://www.w3.org/2000/svg" xmlns:xlink="http://www.w3.org/1999/xlink" x="0px" y="0px"
	 viewBox="0 0 600 600" enable-background="new 0 0 600 600" xml:space="preserve">
<g>
	<path d="M236.9,310c2.5,0,5-0.1,7.6-0.1c12.1-21.3,28.1-40,47.1-55.1c-17.4,2.4-35.7,3.7-54.7,3.7c-91.3,0-168-28.1-203-69.4
		c-2.1,5.8-3.3,11.7-3.3,17.9C30.7,263.8,123,310,236.9,310z"/>
	<path d="M411.2,213.7c10.6,0.1,20.9,1.1,31,2.8c0.6-3.2,0.9-6.4,0.9-9.6c0-6.1-1.3-12.1-3.3-17.9
		C432.3,198,422.6,206.2,411.2,213.7z"/>
	<path d="M236.9,231.3c113.9,0,206.3-46.2,206.3-103.1S350.8,25,236.9,25C123,25,30.7,71.2,30.7,128.1S123,231.3,236.9,231.3z"/>
	<path d="M220.1,398.3c0.4-17.8,3.3-35,8.3-51.2c-87.5-1.7-160.5-29.3-194.4-69.3c-2.1,5.8-3.3,11.7-3.3,17.9
		C30.7,349.7,114.1,394,220.1,398.3z"/>
	<path d="M236.9,486.3c0.8,0,1.5,0,2.3,0c-7.9-16.2-13.6-33.7-16.7-52c-84.9-2.8-155.5-29.9-188.6-68.9c-2.1,5.8-3.3,11.7-3.3,17.9
		C30.7,440.1,123,486.3,236.9,486.3z"/>
	<path d="M285.9,546.6c-0.3-0.3-0.6-0.5-0.9-0.8c-8.2-7.1-15.8-14.9-22.7-23.3c-8.3,0.5-16.7,1-25.4,1c-91.3,0-168-28.1-203-69.4
		c-2.1,5.8-3.3,11.7-3.3,17.9C30.7,528.8,123,575,236.9,575c27.7,0,54.1-2.8,78.2-7.7c-9.8-5.7-19.1-12.2-27.7-19.4
		C286.9,547.4,286.4,547,285.9,546.6z"/>
	<circle cx="409.3" cy="403" r="160"/>
</g>
</svg>
