<?xml version="1.0" encoding="utf-8"?>
<!-- Generator: Adobe Illustrator 18.1.1, SVG Export Plug-In . SVG Version: 6.00 Build 0)  -->
<!DOCTYPE svg PUBLIC "-//W3C//DTD SVG 1.0//EN" "http://www.w3.org/TR/2001/REC-SVG-20010904/DTD/svg10.dtd">
<svg version="1.0" id="Layer_1" xmlns="http://www.w3.org/2000/svg" xmlns:xlink="http://www.w3.org/1999/xlink" x="0px" y="0px"
	 viewBox="0 0 600 600" enable-background="new 0 0 600 600" xml:space="preserve">
<g id="_x35_9_x5F_Coverage">
	<g>
		<path fill="#231F20" d="M524.8,250.4C524.8,374.3,300,575,300,575S75.2,374.3,75.2,250.4C75.2,125.9,176.1,25,300,25
			C424.5,25,524.8,125.9,524.8,250.4 M201.4,273.3l44.2-70v70H201.4z M285.1,291.1c1.7,0,1.7-4.6,1.7-9.2c0-4,0-9.2-1.7-9.2h-19.5
			v-105c0-1.7-4.6-1.7-8.6-1.7c-4,0-8,0-9.2,1.7l-70,109.5c-0.6,1.1-1.1,2.3-1.1,7.5c0,4.6,0,6.3,1.1,6.3h67.1v31
			c0,1.7,6.3,1.7,10.3,1.7s9.7,0,9.7-1.7v-31L285.1,291.1L285.1,291.1z M402.7,278.5c0,22.4-15.5,30.4-35,30.4
			c-18.9,0-35.6-8.6-35.6-30.4v-67.7c0-21.8,19.5-28.7,35.6-28.7c10.3,0,24.1,3.4,35,8.6c2.3,1.1,9.2-16.1,6.9-17.2
			c-11.5-5.2-27.5-9.2-43-9.2c-32.1,0-55.6,12-55.6,45.9v72.3c0,27.5,20.1,44.2,56.2,44.2c35.6,0,56.2-16.6,56.2-47v-41.9h-50.5
			c-1.7,0-1.7,5.2-1.7,9.2c0,4.6,0,9.2,1.7,9.2h29.8V278.5L402.7,278.5z"/>
	</g>
</g>
<g id="Layer_1_1_">
</g>
</svg>
