<?xml version="1.0" encoding="utf-8"?>
<!-- Generator: Adobe Illustrator 18.1.1, SVG Export Plug-In . SVG Version: 6.00 Build 0)  -->
<svg version="1.1" xmlns="http://www.w3.org/2000/svg" xmlns:xlink="http://www.w3.org/1999/xlink" x="0px" y="0px"
	 viewBox="0 0 136 136" enable-background="new 0 0 136 136" xml:space="preserve">
<g id="Art">
</g>
<g id="ELIPSE" display="none">
	<g display="inline">
		<path d="M68,0c37.6,0,68,30.4,68,68s-30.4,68-68,68S0,105.6,0,68S30.4,0,68,0 M68-2C29.4-2-2,29.4-2,68s31.4,70,70,70
			s70-31.4,70-70S106.6-2,68-2L68-2z"/>
	</g>
	<circle display="inline" opacity="0.2" fill="#BC8A8A" cx="68" cy="68" r="50"/>
</g>
<g id="discount" display="none">
	<g id="Layer_101" display="inline">
		<path d="M36,58.2V44.9c0-6.7,4.4-9.9,13.3-9.9c8.8,0,13.3,3.3,13.3,9.9v13.2c0,6.7-4.4,9.9-13.3,9.9C40.4,68.1,36,64.8,36,58.2z
			 M55.8,100.1c-0.3,0.5-2.1,0.8-5.6,0.8c-4,0-5.8-0.3-5.6-0.8l34.6-64.1c0.3-0.6,2.1-0.9,5.6-0.9c4,0,5.8,0.3,5.6,0.9L55.8,100.1z
			 M49.3,42.3c-2.9,0-4.3,0.9-4.3,2.7v13.2c0,1.8,1.4,2.7,4.3,2.7c2.9,0,4.4-0.9,4.4-2.7V44.9C53.7,43.2,52.2,42.3,49.3,42.3z
			 M73.4,91.2V77.9c0-6.7,4.4-9.9,13.3-9.9c8.9,0,13.3,3.3,13.3,9.9v13.2c0,6.6-4.4,9.9-13.3,9.9C77.8,101,73.4,97.7,73.4,91.2z
			 M86.7,75.2c-2.9,0-4.3,0.9-4.3,2.8v13.2c0,1.8,1.4,2.7,4.3,2.7c2.9,0,4.3-0.9,4.3-2.7V77.9C91,76.1,89.6,75.2,86.7,75.2z"/>
	</g>
</g>
<g id="_x31_4days" display="none">
	<g id="Layer_56" display="inline">
		<g>
			<path d="M67.5,90.1h3.9l-1.9-6.8L67.5,90.1z"/>
			<path d="M82.9,82.9h-2v5.4h2c1.9,0,2.4-0.9,2.4-2.4v-0.7C85.3,83.8,84.8,82.9,82.9,82.9z"/>
			<path d="M78.4,50.1l-6.5,10.4h6.5L78.4,50.1L78.4,50.1z"/>
			<path d="M68,25.5c-23.5,0-42.5,19-42.5,42.5s19,42.5,42.5,42.5s42.5-19,42.5-42.5S91.5,25.5,68,25.5z M65.8,61.7l12.9-20.3
				C79,41,80,41,81.3,41c1.3,0,2.3,0,2.3,0.4v19.1h3.9c0.4,0,0.4,1.1,0.4,2.3s0,2.3-0.4,2.3h-3.9v5.2c0,0.4-1.3,0.4-2.5,0.4
				s-2.7,0-2.7-0.4V65H65.8c-0.3,0-0.3-0.4-0.3-1.6C65.5,62.3,65.5,62,65.8,61.7z M49.4,43.6c2.5-0.6,5.6-2.2,6.3-2.5h4v29.2
				c0,0.4-1.6,0.4-2.8,0.4s-2.8,0-2.8-0.4V47.1c-1.2,0.4-3.6,1-4.8,1c-0.2,0-0.4-1.2-0.4-2.2C48.8,44.8,48.9,43.7,49.4,43.6z
				 M61.1,95.9c0,0.2-1.1,0.2-1.8,0.2c-1.3,0-1.7,0-1.8-0.2l-4.4-8.2c-0.7-1.3-1.4-2.8-2-4.1h0c0.2,1.5,0.3,3.5,0.3,4.6v7.7
				c0,0.2-0.8,0.2-1.4,0.2c-0.6,0-1.4,0-1.4-0.2V80.6c0-0.2,1.2-0.2,1.8-0.2c1,0,1.9,0,2,0.2l4,7.4c0.6,1.2,1.5,3,2.2,4.3h0
				c-0.1-1.5-0.2-3.3-0.2-4.9v-6.8c0-0.2,0.8-0.2,1.4-0.2s1.4,0,1.4,0.2L61.1,95.9L61.1,95.9z M74.6,96.1c-0.6,0-1.4,0-1.5-0.2
				l-1-3.3h-5.3l-1,3.3c-0.1,0.2-0.8,0.2-1.4,0.2c-0.6,0-1.5,0-1.4-0.2l4.8-15.3c0.1-0.2,0.7-0.2,1.7-0.2c0.9,0,1.7,0,1.7,0.2
				l4.9,15.3C76.2,96.1,75.3,96.1,74.6,96.1z M88.3,86.2c0,2.5-1.5,4.5-5.1,4.5h-2.3v5.1c0,0.2-0.8,0.2-1.5,0.2s-1.5,0-1.5-0.2V80.4
				h5.4c3.3,0,4.9,1.8,4.9,4.6V86.2z"/>
		</g>
	</g>
</g>
<g id="propeller" display="none">
	<g id="Layer_63" display="inline">
		<path d="M88.8,32.3c-2.3,0.2-4.9,0.6-7.8,1.6c-3.3,1.2-7.4,3.9-9.8,5.9c-2.9,2.7-4.7,6.1-5.7,9.4c-1,3.1-1.2,5.7-1.2,7.4
			c-0.2,0.2-1,1-1.4,1.2c-5.1-0.2-12.7,1.6-19.4,5.5c-4.5,2.7-8.6,5.9-11.3,8.8c-2.5,2.7-4.1,4.9-4.9,7c-0.6,1.6-0.8,3.3-0.6,4.9
			c0.4,2.5,1.6,4.7,3.7,5.7c3.5,1.8,8,0.4,10.6-2c1.6-1.6,3.5-4.3,5.1-7c1.2-2,2.3-3.9,3.1-5.3c1.8-3.1,5.5-8.8,9.4-11.7
			c2-1.6,4.1-1.8,5.9-1c0.2,1.4,0.2,2.3,0.4,3.9c0.6,4.5,2.7,13.1,5.7,19c3.5,6.8,6.8,10.8,11.1,14.1c4.5,3.5,10.6,5.5,14.5,3.1
			c4.1-2.7,4.3-10,1.2-17.2c-2.9-6.8-8.8-13.1-12.3-16.4c-3.9-3.7-7-5.5-9.6-7.2c-2-1.2-4.7-2.9-8.4-3.7c0-1,0.4-3.1,0.6-3.9
			c0.4-0.2,0.8-0.6,1.4-0.8c1.8-1,5.1-2.5,9-4.1c4.7-1.8,9.6-3.7,12.9-5.5c3.3-1.6,5.7-3.3,6.8-4.5c1-1.2,1.2-2.5,1.2-3.3
			c0-0.6-0.4-1.2-1-1.8C96.2,33.1,93.5,32.1,88.8,32.3"/>
	</g>
</g>
<g id="mobile" display="none">
	<g id="Layer_5" display="inline">
		<path d="M85.3,29H50.7c-2.4,0-4.3,1.9-4.3,4.3v69.3c0,2.4,1.9,4.3,4.3,4.3h34.6c2.4,0,4.3-1.9,4.3-4.3V33.3
			C89.7,30.9,87.7,29,85.3,29z M68,104.1c-1.2,0-2.2-1-2.2-2.2s1-2.2,2.2-2.2s2.2,1,2.2,2.2C70.2,103.1,69.2,104.1,68,104.1z
			 M84.6,96.1H51.4V34h33.2V96.1z"/>
	</g>
</g>
<g id="globe__x2F__hipernet" display="none">
	<g id="Layer_60" display="inline">
		<path d="M27,68c0,22.6,18.4,41,41,41s41-18.4,41-41S90.6,27,68,27S27,45.4,27,68z M44.9,43.3c-3.1,4.5-5.2,9.6-6.6,15
			c-1.5-0.9-3-2-4.2-3.2c1.8-4.7,4.7-9.1,8.3-12.7c0.2-0.2,0.5-0.5,0.6-0.6C43.6,42.2,44.2,42.8,44.9,43.3z M48.4,45.7
			c2,1.1,4.2,1.9,6.6,2.6c-1.4,5-2.3,10.1-2.9,15.2c-3.6-0.7-6.8-1.8-9.9-3.1C43.3,55,45.4,50,48.4,45.7z M50.9,36
			c-1.2,1.2-2.3,2.5-3.4,3.8c-0.3-0.2-0.7-0.5-1.1-0.8C47.8,37.8,49.3,36.9,50.9,36z M60.5,33.7c-1.3,2.6-2.7,6.2-4.2,10.3
			c-1.9-0.5-3.6-1.1-5.2-2c0.9-1,2-2.1,2.9-3.1C56,37,58.2,35.2,60.5,33.7z M67.5,44.8c-2.2,0.3-4.7,0.3-6.8,0
			c0.5-1.2,0.9-2.4,1.3-3.5c1-2.6,2.1-5.1,3.3-7.4l0.2,0.8C66.1,38.1,66.8,41.5,67.5,44.8z M68.4,49.1c0.9,4.8,1.8,9.9,2.7,15
			c-4.8,0.6-9.9,0.7-14.6,0.1c0.5-5.1,1.6-10.2,2.9-15.1c1.5,0.2,3.1,0.3,4.7,0.4C65.4,49.4,66.9,49.3,68.4,49.1z M69.2,32.4
			c2.8,1.7,6.4,4.4,10,8.2c-2.2,1.6-4.8,2.7-7.5,3.3C70.8,39.9,70,36.1,69.2,32.4z M82.1,44c3.2,4,5.7,8.6,7.7,13.4
			c-0.5,0.3-1.1,0.7-1.7,1.1c-3.6,2.1-8.1,3.8-12.9,4.9c-0.9-5-1.7-10-2.7-15.1C76,47.4,79.4,45.9,82.1,44z M84.4,35.7
			c-0.6,0.8-1.2,1.6-1.9,2.2c-1.6-1.8-3.4-3.5-5.2-5C79.7,33.7,82.1,34.5,84.4,35.7z M97.5,47c-0.4,2.6-1.9,5.2-4.2,7.5
			c-2-4.8-4.7-9.2-7.9-13.2c1-1,2-2.2,2.8-3.4c2,1.3,3.8,2.8,5.5,4.5C95,43.7,96.3,45.2,97.5,47z M98.1,88.1
			c0.2-1.8,0.3-3.6,0.3-5.3c1.3-0.7,2.5-1.5,3.6-2.2C101,83.2,99.7,85.7,98.1,88.1z M95.5,59.9c2.5-2.1,4.3-4.4,5.6-6.9
			c2.1,4.7,3.2,9.8,3.2,15.1c0,0.8,0,1.7-0.1,2.6c-1.3,2.1-3.3,4.1-5.8,5.8C98,70.7,97,65.1,95.5,59.9z M78.7,89.2
			c5.7-0.8,10.8-2.3,15.3-4.2c-0.2,2.9-0.4,6-0.9,9.2c-3.8,3.5-8.2,6.3-13.1,8C79.6,97.8,79.2,93.4,78.7,89.2z M75.9,68.6
			c5.6-1.1,10.7-3.1,14.9-5.6c0.3-0.1,0.5-0.3,0.7-0.6C93,67.5,93.9,73,94,78.7c-0.6,0.3-1.3,0.7-2,0.9c-4.1,1.8-8.8,3.1-14,4
			C77.4,78.7,76.7,73.7,75.9,68.6z M57.2,89.6c2.9,0.4,5.8,0.5,8.7,0.5c2.9,0,5.7-0.2,8.5-0.4c0.6,4.9,1,9.3,1.3,13.6
			c-4.9,1-10.1,1.1-15.1,0.1C59.2,98.8,58,94.2,57.2,89.6z M56.4,84c-0.4-3.5-0.6-7-0.7-10.4c0-1.4,0-2.8,0.1-4.2
			c5.1,0.7,10.6,0.6,15.8-0.1c0.7,5,1.4,10,2,14.9c-2.4,0.3-5,0.4-7.8,0.4h-0.4C62.5,84.6,59.5,84.4,56.4,84z M43.2,86.8
			c3.1,1,6.3,1.8,9.7,2.3c0.7,4.3,1.7,8.7,3,13c-3.4-1.3-6.7-3-9.6-5.2C45,93.5,44,90.1,43.2,86.8z M41.1,71c0-1.7,0.1-3.4,0.3-5.2
			c3.2,1.3,6.6,2.3,10.3,3c-0.1,1.5-0.1,3.1-0.1,4.9c0,3.1,0.2,6.4,0.5,9.8c-3.7-0.7-7.1-1.6-10.2-2.8C41.4,77.3,41.1,74.1,41.1,71z
			 M35.4,83.8c0.9,0.5,1.9,0.9,3,1.4c0.4,1.9,0.8,3.7,1.3,5.5C38,88.5,36.6,86.2,35.4,83.8z M32.5,75.5c-0.5-2.5-0.8-5-0.8-7.5
			c0-2.4,0.3-4.9,0.8-7.3c1.5,1.1,3.1,2.1,4.8,3.1c-0.3,2.5-0.4,4.8-0.5,7.1c0,2.4,0.1,5,0.4,7.5C35.4,77.6,33.8,76.6,32.5,75.5z"/>
	</g>
</g>
<g id="topup" display="none">
	<g id="Layer_22_copy_2" display="inline">
		<path d="M32.8,92h70.5v8.3H32.8V92z"/>
		<polygon points="88.9,50.7 67.8,29.8 46.5,51 49.9,54.4 65.2,39.2 65.2,86.5 70.1,86.5 70.1,38.9 85.4,54.1 		"/>
	</g>
</g>
<g id="hungary" display="none">
	<g id="Layer_66" display="inline">
		<path d="M68,62.6c-2.7,0-4.9,2.2-4.9,5c0,2.7,2.2,5,4.9,5c2.7,0,4.9-2.2,4.9-5C72.9,64.8,70.7,62.6,68,62.6z"/>
		<path d="M109.6,43.9c-4.9-0.8-6.5-6.2-12.2-3.1c-0.5,0.4-3.2,1.2-4.2,0.5c-2-4.4-4.4-1.3-8-1c-3.6,0.3-7.5,2-9.2,4.9
			c-1.4,2.4-3.2,4.3-5.3,4.2c-2-0.1-4.8-0.2-5.9,1.8c-6.4,0.6-7.1,2-7.8,5c-0.6,2.7-4.5,3.7-6,4c-5.1,1-7.6,1.2-12.5-2.1
			c-2.4-1.7-4.5-0.9-4.5,2.1c-0.1,3.6-1.8,3.6-5,2.9c-1.6-0.4-3.6,0-2.8,2.3c0,0,7.2,7.7,2.8,10.7C16.1,85.3,42.9,95,42.9,95
			c6.1,3.5,13,5.3,19.8-0.7c7.4-6.4,14.4-8.9,18.2-8.7c5.2,0.2,10.6-2.2,13.3-7.4c2.3-4.4,2.4-8.6,4.3-13.2
			c2.3-5.7,0.8-11.7,8.3-13.7C108.5,50.9,112.2,44.4,109.6,43.9z M68,81.1c0,0-9.2-8.3-9.2-13.5c0-5.2,4.1-9.3,9.2-9.3
			c5.1,0,9.2,4.2,9.2,9.3C77.1,72.8,68,81.1,68,81.1z"/>
	</g>
</g>
<g id="szlabefiz">
	<g>
		<path d="M107.1,92.6v-1.7V56.9c0-3.2-1.9-5.1-5.1-5.1h-6.7l-5.1-13.7c-1.1-3-3.5-4.1-6.5-3L30.8,54.5c-2.4,0.9-3.8,2.5-3.6,4.9
			c0,0.5,1,2.7,1.2,3.2l0.6,1.6l11.1,30.3c0.6,1.6,1.7,3,3,3.9c-1-0.8-1.7-1.9-2.1-3.2c0.7,2.2,2.3,4.1,4.7,4.1H102
			c2.5,0,4.4-1,5.1-3.4C107.2,95.4,107.1,93.1,107.1,92.6z M40.9,95.1C40.9,95.1,40.9,95.1,40.9,95.1C40.9,95.1,40.9,95.1,40.9,95.1
			z M103.7,94.3c0,2.2-0.7,1.7-1.7,1.7H45.6c-1,0-1.7-0.7-1.7-1.7V73.9h59.8V94.3z M103.7,56.9v8.5H43.9v-8.5c0-1-0.1-1.7,1.7-1.7
			H102C104.1,55.2,103.6,56,103.7,56.9z"/>
		<rect x="60.9" y="84.1" width="3.4" height="6.8"/>
		<rect x="54.1" y="84.1" width="3.4" height="6.8"/>
		<rect x="47.3" y="84.1" width="3.4" height="6.8"/>
	</g>
</g>
<g id="delivery" display="none">
	<path display="inline" d="M26.1,78.5c-0.1,1.7-0.2,1.8,0.3,2.9c0.5,0.8,5.2,2,6.9,2.4c0.6,3.8,3.9,6.7,7.9,6.7
		c3.9,0,7.2-2.8,7.9-6.6h36.8c0.7,3.7,3.9,6.6,7.9,6.6c3.9,0,7.2-2.8,7.9-6.6h1c0,0,2.7-0.2,4.7-0.5c2-0.4,2.6-2.2,2.7-3.7
		c0.1-1.5-0.8-7-1.2-8.6c-0.4-1.6-2-3-3.5-3.9c-1.5-0.9-7.8-3.2-7.8-3.2S86.6,52.5,82.9,48.9c-3.7-3.6-8.4-3.4-8.4-3.4h-44
		c-1.2,0-1.5,1.2-1.9,2c-0.3,0.8-2.2,15.4-2.5,17.5C25.8,67.2,26.2,76.9,26.1,78.5z M70.6,51.6c0.1-1.1-0.2-1.9,0.3-2
		c0.5-0.1,7.5,0,8.3,0.3c0.8,0.4,3.6,2.9,5.4,4.9c1.8,2,6,7.1,6.4,7.8c0.4,0.6,0.5,1-0.2,1c-0.6,0-6.2-0.7-9.6-1.2
		c-3.4-0.4-7.4-1.2-8.1-1.5c-0.7-0.3-0.7-0.6-1.2-2.2C71.4,57.1,70.5,52.7,70.6,51.6z"/>
</g>
<g id="moredevice" display="none">
	<g display="inline">
		<g id="Layer_43">
			<polygon points="52.9,58.5 42.5,58.5 42.5,48.1 36.3,48.1 36.3,58.5 25.8,58.5 25.8,64.7 36.3,64.7 36.3,75.2 42.5,75.2 
				42.5,64.7 52.9,64.7 			"/>
		</g>
		<path d="M66.7,33H40.5c-1.7,0-3.1,1.4-3.1,3.1v7.6h3.8v-6.9h24.9v46.6H41.2v-3.8h-3.8v8.7c0,1.8,1.4,3.3,3.3,3.3h26
			c1.8,0,3.3-1.4,3.3-3.3v-52C69.9,34.4,68.5,33,66.7,33z M53.7,89.3c-0.9,0-1.6-0.7-1.6-1.6s0.7-1.6,1.6-1.6c0.9,0,1.6,0.7,1.6,1.6
			C55.3,88.6,54.6,89.3,53.7,89.3z"/>
		<path d="M98.9,44.5h-29v3.8h28.4v48.5H62.3v-5.3h-3.8v8.2c0,1.8,1.4,3.3,3.3,3.3h37.2c1.8,0,3.3-1.4,3.3-3.3v-52
			C102.2,45.9,100.7,44.5,98.9,44.5z M84,100.5c0,0.2-0.2,0.4-0.4,0.4h-6.5c-0.2,0-0.4-0.2-0.4-0.4v-1.4c0-0.2,0.2-0.4,0.4-0.4h6.5
			c0.2,0,0.4,0.2,0.4,0.4V100.5z"/>
	</g>
</g>
<g id="kiegeszitok" display="none">
	<path display="inline" d="M109.3,48.9l-10.8,13V92v0c0,0,0,0,0,0.1c0,0.1,0,0.1,0,0.2c0,0.1,0,0.1,0,0.2c0,0,0,0,0,0
		c-0.2,0.6-0.6,1.2-1.3,1.4l-29.4,10.5c0,0,0,0,0,0c-0.1,0-0.1,0-0.2,0.1c0,0-0.1,0-0.1,0c-0.1,0-0.2,0-0.3,0c-0.1,0-0.2,0-0.3,0
		c0,0-0.1,0-0.1,0c-0.1,0-0.1,0-0.2-0.1c0,0,0,0,0,0L37.3,93.9c-0.6-0.2-1.1-0.8-1.3-1.4c0,0,0,0,0,0c0-0.1,0-0.1,0-0.2
		c0-0.1,0-0.1,0-0.2c0,0,0,0,0-0.1v0V61.9l-9.3-10.5c-0.4-0.5-0.6-1.2-0.4-1.8c0.2-0.6,0.6-1.2,1.3-1.4l29.4-10.5
		c0.8-0.3,1.7,0,2.2,0.6l9.2,10.7l16.2,5.8l22.6-9c0.9-0.3,1.8-0.1,2.4,0.7C110,47.2,109.9,48.2,109.3,48.9z M66.5,52.5
		c-0.3-0.1-0.6-0.3-0.8-0.6l-8.7-10.1l-25.3,9l7.5,8.5l27.1,9.8l5.9-9.3c0.2-0.4,0.6-0.6,1-0.8l5.6-2.2L66.5,52.5z"/>
</g>
<g id="kiegeszitok_v2" display="none">
	<g display="inline">
		<path d="M103.4,50.3c-0.3-0.3-0.6-0.3-0.9-0.3l0,0h-32c3.4-2.8,9.9-8.7,9.3-13.3c0-1.2-0.9-2.8-3.4-4c-0.9-0.3-1.6-0.6-2.5-0.6
			c-3.7,0-5.3,4.3-6.2,9.3c-0.9-5-2.5-9.3-6.2-9.3c-0.6,0-1.6,0.3-2.2,0.6c-2.5,1.2-3.1,2.8-3.4,4c-0.6,4.7,5.9,10.6,9.3,13.7H33.6
			c-0.6,0-1.2,0.6-1.2,1.2v13.3c0,0.3,0,0.6,0.3,0.9c0.3,0.3,0.6,0.3,0.9,0.3h6.2v36.3c0,0.6,0.6,1.2,1.2,1.2l54,0.3l0,0
			c0.3,0,0.6,0,0.9-0.3c0.3-0.3,0.3-0.6,0.3-0.9V66.4h6.2l0,0c0.3,0,0.6,0,0.9-0.3c0.3-0.3,0.3-0.6,0.3-0.9V51.9
			C103.7,50.9,103.4,50.6,103.4,50.3z M74.2,34.5c0.3,0,0.9,0,1.6,0.3c1.6,0.6,1.6,1.9,1.6,2.2c0.3,2.8-4.3,7.8-8.1,11.2
			C69.9,42.9,70.8,34.5,74.2,34.5z M58.1,37c0-0.3,0.3-1.2,1.9-2.2c0.6-0.3,0.9-0.3,1.2-0.3c3.4,0,4.3,8.7,4.7,13.7
			C62.4,44.7,57.8,39.8,58.1,37z M42.2,65.8h18.9v35.1H42.2V65.8z M93.8,100.9H74.8V65.8h18.9V100.9z M101.2,63.7l-66.4-0.3V52.5
			h66.4V63.7z"/>
	</g>
</g>
</svg>
