<?xml version="1.0" encoding="utf-8"?>
<!-- Generator: Adobe Illustrator 18.1.1, SVG Export Plug-In . SVG Version: 6.00 Build 0)  -->
<!DOCTYPE svg PUBLIC "-//W3C//DTD SVG 1.1//EN" "http://www.w3.org/Graphics/SVG/1.1/DTD/svg11.dtd">
<svg version="1.1" id="Layer_1" xmlns="http://www.w3.org/2000/svg" xmlns:xlink="http://www.w3.org/1999/xlink" x="0px" y="0px"
	 viewBox="0 0 600 600" enable-background="new 0 0 600 600" xml:space="preserve">
<path d="M489.2,99.6c-43.9-41.5-115.9-78.4-200.4-74.3c-45,2.1-79.1,11.3-111,28.2c-30.3,15.9-57.8,35.1-79.1,58.4
	c-43,46.8-77.4,113-73.3,199.5c4.1,87.5,38.9,142.5,85.6,189.1c47.3,47.3,110.8,74.9,200.4,74.4c81.7-0.5,145.9-40.6,189.1-85.6
	c45.3-47.2,76.9-110.4,74.4-200.6C572.6,205.8,533.8,141.8,489.2,99.6L489.2,99.6z M509,195.6c-49.8-14-95.4-28.3-145.9-43.3
	c-21.1-6.2-38.5-12.5-64.9-11.3c-1.3-3.6,3.7-5.4,5.7-7.4c18.4-18.5,40.8-39.5,60.2-57.4C434.1,94.2,479.3,137.2,509,195.6
	L509,195.6z M419.6,300.1c0.1,69-54.3,120.7-121.4,119.5c-65.5-1.2-121.9-54.9-117.6-125.1c3-48.5,32.1-85.8,68.7-102.6
	c11.2-5.2,25.9-8.8,42.3-10.4c37.6-3.3,71.5,13.6,90.3,32.1C401.1,232.1,419.5,260.9,419.6,300.1L419.6,300.1z M313.3,65.8
	c0.7,4.5-4.9,6-7.6,8.4c-22.9,21.1-47,44.7-70.5,66.8c-26.8,25.3-56.2,49.9-74.4,81.9c-9.9-28.3-15.3-61.3-23.5-91.3
	C178,91.8,231.1,64.1,313.3,65.8L313.3,65.8z M104.3,172.2c0.8-0.2,0.9,0.4,0.9,0.9c8.1,34.7,18,71.3,26.3,107.2
	c8.5,35.9,13.9,72.9,31.1,101.7c-29.3-5.6-59.5-18.4-91.3-24.5C56.9,287.8,72.8,212.9,104.3,172.2L104.3,172.2z M90.2,405.5
	c69.6,15.9,131.7,47.1,211.7,55.5c1.4,3.5-3.6,5.4-5.6,7.5c-18.6,18.5-41.5,39.4-61.2,57.4C167.3,505.3,120.7,463.5,90.2,405.5
	L90.2,405.5z M428,496.7c-34.4,24-86.2,41.6-141.2,37.7c28.8-30.6,60.7-60.4,92.3-89.3c22.2-20.6,45.8-38.5,60.2-67.8
	c5.2,14.1,12.9,48.4,17.9,69.7c1.6,6.9,5.4,18.9,4.6,22.5C460.3,477,434.4,492.4,428,496.7L428,496.7z M496.8,430
	c-24.1-67.1-27.8-154.8-60.3-213.7c30.8,9.3,61,19.4,92.3,28.2C546.2,313.5,526.6,388.2,496.8,430L496.8,430z M496.8,430"/>
</svg>
