<?xml version="1.0" encoding="utf-8"?>
<!-- Generator: Adobe Illustrator 18.1.1, SVG Export Plug-In . SVG Version: 6.00 Build 0)  -->
<!DOCTYPE svg PUBLIC "-//W3C//DTD SVG 1.0//EN" "http://www.w3.org/TR/2001/REC-SVG-20010904/DTD/svg10.dtd">
<svg version="1.0" id="Layer_1" xmlns="http://www.w3.org/2000/svg" xmlns:xlink="http://www.w3.org/1999/xlink" x="0px" y="0px"
	 viewBox="0 0 600 600" enable-background="new 0 0 600 600" xml:space="preserve">
<g id="Layer_1_1_">
</g>
<path fill="#231F20" d="M468.3,166.7c0-1.1,0.6-2.9,0.6-4c0-41.9-34.4-76.3-76.3-76.3c-12,0-23.5,2.9-33.2,8.1
	C349.1,54.8,312.9,25,269.9,25c-50.5,0-91.8,40.7-91.8,91.8c0,10.9,1.7,21.2,5.1,30.4h-20.6c-42.4,0-76.3,34.4-76.3,76.3
	s34.4,76.3,76.3,76.3h118.2v200.1l-79.7-80.3L173,447.1L300.9,575l127.3-127.9l-27.5-27.5l-80.3,80.3V299.7h124.4
	c37.8,0,68.8-31,68.8-68.8C514.2,201.1,494.7,175.8,468.3,166.7z"/>
<g id="Layer_1_2_">
</g>
</svg>
