<?xml version="1.0" encoding="utf-8"?>
<!-- Generator: Adobe Illustrator 18.1.1, SVG Export Plug-In . SVG Version: 6.00 Build 0)  -->
<!DOCTYPE svg PUBLIC "-//W3C//DTD SVG 1.0//EN" "http://www.w3.org/TR/2001/REC-SVG-20010904/DTD/svg10.dtd">
<svg version="1.0" id="Layer_1" xmlns="http://www.w3.org/2000/svg" xmlns:xlink="http://www.w3.org/1999/xlink" x="0px" y="0px"
	 viewBox="0 0 600 600" enable-background="new 0 0 600 600" xml:space="preserve">
<g id="Layer_1_1_">
</g>
<g id="_x31_4_x5F_Downloads">
	<g>
		<polygon fill="#231F20" points="418.9,199.2 393.1,173.4 318.1,248.5 318.1,25 281.4,25 281.4,248.5 206.3,173.4 180.5,199.2 
			299.7,319 		"/>
	</g>
	<g>
		<path fill="#231F20" d="M446.4,300.6l-74.5-28.1l-14.3,14.3l62.5,23.5l-120.3,45.3l-120.3-45.3l62.5-23.5l-14.3-14.3L153,300.6
			l-55,110l55,20.6v81.4c0,0,0,8,6.9,10.9l131.8,49.3c8,2.9,8,2.9,16.6,0l131.8-49.3c6.9-2.3,6.9-10.9,6.9-10.9v-81.4l55-20.6
			L446.4,300.6z M252.1,449.1l-128.4-48.7l38.4-76.8l128.4,48.7L252.1,449.1z M347.3,449.1l-38.4-77.4l128.4-48.1l38.4,77.4
			L347.3,449.1z"/>
	</g>
</g>
<g id="Layer_1_2_">
</g>
</svg>
