<?xml version="1.0" encoding="utf-8"?>
<!-- Generator: Adobe Illustrator 19.0.0, SVG Export Plug-In . SVG Version: 6.00 Build 0)  -->
<svg version="1.1" id="Layer_1" xmlns="http://www.w3.org/2000/svg" xmlns:xlink="http://www.w3.org/1999/xlink" x="0px" y="0px"
	 viewBox="0 0 100 100" style="enable-background:new 0 0 100 100;" xml:space="preserve">
<path d="M49.5,17.4c-17.8,0-32.2,14.4-32.2,32.2c0,17.8,14.4,32.2,32.2,32.2c17.8,0,32.2-14.4,32.2-32.2
	C81.7,31.9,67.3,17.4,49.5,17.4z M49.5,78.6c-16,0-28.9-13-28.9-28.9c0-3.4,0.6-6.7,1.7-9.7l0.7,3.4c0,0.2,0.2,0.5,0.4,0.6l3.1,2.5
	c0.1,0.1,0.2,0.1,0.3,0.2l2.9,1c0.2,0.1,0.3,0.2,0.5,0.3l1.6,2c0.1,0.2,0.3,0.3,0.5,0.3l0.6,0.2c0.3,0.1,0.5,0.3,0.7,0.6
	c0.1,0.3,0.1,0.6,0,0.9l-0.5,1c-0.1,0.2-0.2,0.5-0.1,0.8l1.4,4.8c0.1,0.2,0.2,0.4,0.4,0.6l1.8,1.1c0.3,0.2,0.5,0.5,0.5,0.8l0.5,7.8
	c0,0.1,0,0.2,0.1,0.3l1.4,4.3c0.1,0.2,0.3,0.4,0.5,0.6l3.3,1.9c0.2,0.1,0.5,0.1,0.7-0.1l0,0c0.1-0.2,0.2-0.4,0.1-0.6l-1-2.2
	c-0.1-0.2-0.1-0.3-0.1-0.5l0.2-2c0-0.2,0.1-0.4,0.2-0.5l1.9-2.7c0,0,0,0,0,0l3.4-4.8c0-0.1,0.1-0.1,0.1-0.2l2.2-4.8
	c0.2-0.4,0.2-0.7,0.2-1.1v-0.9c0-0.5-0.3-0.9-0.7-1l-4.8-1.5c-0.2-0.1-0.4-0.2-0.6-0.4l-1.7-2.6c-0.1-0.2-0.2-0.3-0.4-0.4l-4.2-2.2
	c-0.3-0.2-0.6-0.2-0.9,0l-2.1,0.9c-0.2,0.1-0.5,0.1-0.8,0l-1.2-0.4c-0.4-0.1-0.7-0.5-0.7-0.9l0-0.5c0-0.2-0.2-0.4-0.4-0.4
	c-0.2,0-0.3-0.1-0.4-0.2c-0.1-0.1-0.1-0.3,0-0.4l0.3-0.6c0.2-0.4,0.1-0.9-0.2-1.2c-0.3-0.3-0.8-0.3-1.2,0l-0.8,0.7
	c-0.4,0.3-0.9,0.3-1.3,0L28,43.9c-0.3-0.2-0.4-0.6-0.4-1l0.3-1.8c0.1-0.5,0.5-0.9,1-0.9l1.8-0.1c0.2,0,0.4-0.1,0.5-0.2
	c0.2-0.2,0.5-0.3,0.7-0.2c0.3,0.1,0.5,0.2,0.6,0.5l0.9,2.2c0.1,0.1,0.2,0.2,0.3,0.3c0.1,0,0.3,0,0.4-0.1c0.3-0.2,0.5-0.6,0.5-0.9
	l-0.1-2.6c0-0.2,0.1-0.3,0.2-0.4l1.8-1.1c0.3-0.2,0.5-0.5,0.5-0.8l0-0.4c0-0.3,0.2-0.6,0.5-0.8l1.8-1.1c0,0,0.1,0,0.1-0.1l2.5-1.1
	c0.5-0.2,0.7-0.7,0.5-1.2c-0.1-0.3-0.1-0.6,0.1-0.8c0.1-0.2,0.4-0.4,0.7-0.4l1.3-0.2c0.3,0,0.6-0.2,0.7-0.5c0.2-0.3,0.2-0.6,0.1-0.9
	l-0.2-0.9c0-0.2-0.1-0.3-0.2-0.4l-1-1.2c-0.1-0.1-0.3-0.2-0.5-0.3l-0.9-0.3c-0.5-0.1-1,0-1.2,0.5l-1,1.7c0,0-0.1,0.1-0.1,0.1
	l-0.6,0.8c-0.2,0.2-0.5,0.4-0.8,0.3c-0.3,0-0.6-0.3-0.7-0.5c-0.1-0.2-0.3-0.4-0.5-0.5L37,28.4c-0.4-0.2-0.6-0.5-0.6-0.9
	c0-0.4,0.2-0.8,0.6-1l2.3-1.2c0.1-0.1,0.2-0.2,0.3-0.3l0.3-0.4c0.2-0.2,0.3-0.6,0.2-0.9c-0.1-0.3-0.3-0.6-0.6-0.7l-0.7-0.3
	c0.7-0.3,1.4-0.5,2.1-0.8c0.4,0.4,0.9,0.7,1.1,0.8l0.2,0.1c0.3,0.2,0.4,0.5,0.4,0.8v0.4c0,0.4,0.2,0.7,0.6,0.9l1.1,0.6
	c0.4,0.2,0.8,0.1,1.1-0.1l0.8-0.6c0.2-0.2,0.4-0.4,0.4-0.7c0-0.3-0.1-0.6-0.3-0.8L45.9,23c0,0-0.1-0.1-0.1-0.1l-1.2-1.7
	c1.3-0.2,2.7-0.4,4.1-0.4c0.5,0.5,1.1,1.2,1.1,1.4l-0.3,3.1c0,0.5,0.3,0.9,0.7,1.1l0.6,0.2c0.3,0.1,0.7,0,1-0.2l3.1-2.6
	c0.2-0.2,0.4-0.2,0.7-0.2h2.1c0.3,0,0.6-0.1,0.8-0.3l0.4-0.4c0.1-0.1,0.2-0.2,0.2-0.4c2.5,0.9,4.8,2.1,6.9,3.5L64.3,26
	c-0.2,0-0.5,0.1-0.7,0.3l-2.1,1.5c-0.5,0.4-0.7,1.1-0.3,1.7c0.2,0.3,0.2,0.6,0.2,1c-0.1,0.6-0.7,1-1.3,1l-1.3-0.1
	c-0.7,0-1.3,0.4-1.4,1.1l-0.3,1.3c-0.1,0.4,0,0.7,0.2,1.1c0.2,0.3,0.5,0.5,0.9,0.6l1.2,0.2c0.4,0.1,0.8-0.1,1.1-0.3l4-3.4
	c0.3-0.2,0.6-0.3,0.9-0.3l1,0c0.3,0,0.6,0.1,0.8,0.3l0.8,0.6c0.4,0.4,0.6,1,0.4,1.5l-0.1,0.3c-0.1,0.3-0.1,0.6,0,0.9
	c0.1,0.3,0.4,0.5,0.7,0.5c0.2,0.1,0.5,0,0.7-0.1l1.9-0.9c0.2-0.1,0.4-0.2,0.7-0.1c0.5,0,1.2,0.1,1.2,0.1c0,0,0.3,0,0.7,0.1
	c0.7,1.1,1.2,2.2,1.7,3.4c-0.2,0-0.4,0-0.5,0l-0.4,0.2c-0.2,0.1-0.4,0.1-0.6,0l-2-0.6c-0.4-0.1-0.9,0-1.1,0.4l-0.1,0.1
	c-0.3,0.4-0.8,0.5-1.3,0.3l-2-0.9c-0.3-0.1-0.5-0.4-0.6-0.8c0-0.3-0.2-0.5-0.4-0.7C66.8,36,66.5,36,66.3,36l-2.4,0.4
	c0,0-0.1,0-0.1,0l-2.8,0.8c-0.2,0.1-0.4,0.2-0.5,0.4l-3.2,4.1C57.1,42,57,42.2,57,42.4v4.6c0,0.3,0.1,0.6,0.4,0.8l2.6,2.2
	c0.2,0.2,0.6,0.3,0.9,0.2l3.9-0.8c0.2,0,0.5,0,0.7,0.1l1.5,0.8c0.4,0.2,0.6,0.6,0.5,1L67.3,53c0,0.2,0,0.4,0.1,0.5l1.3,3.1
	c0.1,0.2,0.1,0.5,0,0.8l-0.9,2.5c-0.1,0.2-0.1,0.5,0,0.7l2.3,6.3c0.1,0.4,0.5,0.7,0.9,0.7l1.1,0.1C66.8,74.3,58.6,78.6,49.5,78.6z"
	/>
</svg>
