<?xml version="1.0" encoding="utf-8"?>
<!-- Generator: Adobe Illustrator 19.2.1, SVG Export Plug-In . SVG Version: 6.00 Build 0)  -->
<svg version="1.1" id="Layer_1" xmlns="http://www.w3.org/2000/svg" xmlns:xlink="http://www.w3.org/1999/xlink" x="0px" y="0px"
	 viewBox="0 0 600 600" style="enable-background:new 0 0 600 600;" xml:space="preserve">
<style type="text/css">
	.st0{fill-rule:evenodd;clip-rule:evenodd;}
</style>
<path class="st0" d="M570.3,381l-46.5,115c-1.8,4.5-3.6,8.3-5.5,11.2c-2.1,3.1-4.3,5.5-6.8,7.5c-2.5,1.9-5.4,3.3-8.7,4.2
	c-0.2,0.1-0.5,0.1-0.7,0.2c-3.1,0.7-6.6,1.1-10.7,1.1h-12c-3.6,0-6.9-0.4-9.8-1.1c-0.7-0.2-1.4-0.4-2-0.6c-3.4-1.2-6-2.9-8.1-5.2
	c-2.1-2.3-3.7-5.2-4.8-8.9c-1.1-3.4-1.8-7.6-2.1-12.4l-6.8-111c-0.3-2.9,0.1-5,1-6.5c0.9-1.3,2.4-2,4.5-2.1h4.5
	c3.7,0.1,5.8,2.5,6,7.5l5.7,106.5c0.4,7.7,1.6,12.8,3.6,15.3c2.1,2.6,6.1,3.9,11.9,3.9h6.7c5.7,0,10-1.1,12.8-3.3
	c2.9-2.1,5.6-6.5,8.2-12.9l43.1-109.6c2.1-4.9,4.9-7.4,8.7-7.5h4.2c1.9,0.2,3.3,0.9,3.8,2.1C571.6,375.9,571.4,378.1,570.3,381z
	 M437.1,381.5c-1,3.7-3.4,5.5-6.9,5.5h-41.1c-2.7,0-4.2,1.4-4.8,4.2l-20.9,122.5c-0.7,3.4-2.8,5.2-6,5.4c-0.3,0-0.6,0-0.9,0h-4.5
	c-0.3,0-0.6,0-0.9,0c-3.5-0.3-4.7-2.2-3.9-5.9l21-122c0.6-2.8-0.6-4.2-3.4-4.2h-40.9V387c-4,0-5.6-2-4.7-6l0.4-2.8
	c1.1-3.7,3.3-5.5,6.6-5.6h107.1c3.7,0.1,5.2,2.1,4.3,6L437.1,381.5z M342.7,235.8c-22.2,2.4-40.2-9.1-40.2-25.6
	c0-16.5,18-31.7,40.2-34.1c7.4-0.8,14.2,0.1,20.1,2V71.9l-80.4,26.8V226v5.8c0,16.5-18,31.7-40.2,34.1c-22.2,2.4-40.2-9.1-40.2-25.6
	c0-16.5,18-31.7,40.2-34.1c7.4-0.8,14.2,0.1,20.1,2V105.4V75.3v-10L382.9,25v20.1v20.1v130.7v5.8
	C382.9,218.1,364.9,233.4,342.7,235.8z M208.6,387.2c0.3,3.8-0.1,8.9-1.2,15.1l-19,111.4c-0.6,3.4-2.5,5.2-5.8,5.4
	c-0.3,0-0.6,0-0.9,0h-4.5c-0.3,0-0.6,0-0.9,0c-3.4-0.3-4.6-2.2-3.8-5.9l18.3-107.6c1.6-8.4,1.7-13.8,0.5-16.4c-1-2.2-3.6-3.3-8-3.3
	h-0.1c-4,0-7.1,1.3-9.4,3.9c-2.1,2.5-4.6,7.8-7.7,15.7l-24.9,66.8l-5.7,12.9c-1.9,3.3-3.9,6-6.1,7.9c-2.1,1.8-4.3,3.1-6.9,3.9
	c-2.4,0.7-5.2,1-8.5,1h-3.4c-3.6,0-6.7-0.3-9-1c-2.7-0.8-4.8-2.1-6.5-3.9c-1.8-1.9-3.1-4.6-3.9-8c-0.9-3.4-1.4-7.9-1.6-13.2
	l-1.4-66.3c-0.3-7.9-1.2-13.1-2.5-15.6c-1.4-2.7-4-4-8-4c-4.6,0-7.9,1.1-9.6,3.3c-1.9,2.4-3.6,7.9-5,16.4L45,513.7
	c-0.6,3.4-2.6,5.2-6,5.4c-0.3,0-0.6,0-0.9,0h-4.5c-0.3,0-0.6,0-0.9,0c-3.4-0.3-4.5-2.2-3.7-5.9l18.8-111c1.1-6.3,2.4-11.4,3.8-15.2
	c1.6-4,3.5-7.2,5.8-9.5c2.3-2.2,5-3.8,8.5-4.7c0.4-0.1,0.8-0.2,1.2-0.3c2.9-0.7,6.4-1,10.7-1c4.9,0,8.9,0.3,11.8,1
	c0.1,0,0.3,0.1,0.4,0.1c3.4,0.9,6,2.4,7.9,4.5c2,2.1,3.5,5.1,4.3,9.1c0.9,3.8,1.4,8.8,1.5,15l1.5,66.8c0.2,6.2,0.8,10.3,1.8,12.5
	c0.9,2.1,2.6,3.1,5,3.1h2.6c2.4,0,4.4-1,6.1-3.1c1.7-2.2,3.6-6.4,5.8-12.5l24.3-66.8c2.3-6.3,4.5-11.2,6.6-15c2.3-3.9,4.6-7,7.1-9.1
	c2.5-2.1,5.4-3.6,8.9-4.5c0.1,0,0.3-0.1,0.5-0.1c2.6-0.6,5.7-0.9,9.5-1c0.6,0,1.3,0,1.9,0c4.6,0,8.5,0.3,11.4,1
	c0.4,0.1,0.9,0.2,1.2,0.3c0.2,0,0.3,0.1,0.5,0.1c3.3,1,5.6,2.6,7.2,4.7C207.3,380,208.3,383.2,208.6,387.2z M229,408.8h4.5
	c2.5,0.1,3.9,0.8,4.9,2c0.9,1.2,1.5,3.5,1.7,7l4.5,65.7c0.4,5.4,1.5,9.1,3.5,11c1.9,1.9,5.1,2.8,9.9,2.8h4.5c4.5,0,8.1-1,10.8-3.1
	c2.6-2,4.9-5.5,7.1-10.7l26.8-65.7c1.4-3.4,2.7-5.7,3.8-7c1.2-1.3,2.9-1.9,5-2h5.4c2,0,3.3,0.8,3.7,2.4c0.6,1.6,0.2,3.9-1.1,7
	l-30.1,69.9l-32.2,78c-1.4,3.4-2.7,5.7-3.8,7c-1.2,1.3-2.9,1.9-5,2h-5.4c-2,0-3.3-0.8-3.7-2.4c-0.6-1.6-0.2-3.9,1.1-7l23.6-54.9
	c-0.1,0-0.3,0.1-0.4,0.1c-4.7,1-9.8,1.2-15.3,0.7c-1.1-0.1-2.1-0.2-3.2-0.4c-1.1-0.2-2.2-0.4-3.3-0.6c-1.2-0.2-2.3-0.5-3.4-0.8
	c-1.1-0.4-2.1-0.8-3.1-1.4c-2.1-1.2-3.9-2.7-5.4-4.6c-3-3.6-4.6-8.5-5.1-14.5l-6.3-71c-0.3-3.2,0.1-5.6,1.1-7.2
	C225.2,409.6,226.8,408.9,229,408.8z"/>
</svg>
