<?xml version="1.0" encoding="utf-8"?>
<!-- Generator: Adobe Illustrator 18.1.0, SVG Export Plug-In . SVG Version: 6.00 Build 0)  -->
<svg version="1.1" id="Isolation_Mode" xmlns="http://www.w3.org/2000/svg" xmlns:xlink="http://www.w3.org/1999/xlink" x="0px"
	 y="0px" viewBox="0 0 600 600" enable-background="new 0 0 600 600" xml:space="preserve">
<g>
	<path d="M561.6,35.9c0,100.5,0.7,201.1-1,301.6c-0.2,11.4-11.9,27.2-22.5,32.9c-64,34.3-130.9,44-199.6,14.2
		c-23.2-10.1-45.3-22.8-67.7-34.6c-53.2-28.2-108.7-35.8-170.6-16c-1.3-11.8-3.2-20.8-3.2-29.8c-0.2-79.1,0.9-158.2-0.7-237.3
		c-0.5-25.4,10.4-34.2,32.7-38.3c43.8-8,85.6-2.2,125.4,16.8c26.4,12.6,52,26.8,78.2,39.7c75.3,37,146.4,25.5,206.4-33.3
		c6.1-5.9,10.8-13.2,16.1-19.9C557.3,33.1,559.4,34.5,561.6,35.9z"/>
	<rect x="38.3" y="25" width="38.1" height="550"/>
</g>
</svg>
