<?xml version="1.0" encoding="utf-8"?>
<!-- Generator: Adobe Illustrator 18.1.1, SVG Export Plug-In . SVG Version: 6.00 Build 0)  -->
<!DOCTYPE svg PUBLIC "-//W3C//DTD SVG 1.0//EN" "http://www.w3.org/TR/2001/REC-SVG-20010904/DTD/svg10.dtd">
<svg version="1.0" id="Layer_1" xmlns="http://www.w3.org/2000/svg" xmlns:xlink="http://www.w3.org/1999/xlink" x="0px" y="0px"
	 viewBox="0 0 600 600" enable-background="new 0 0 600 600" xml:space="preserve">
<g id="_x33_6_x5F_Grid">
	<g>
		<rect x="25" y="25" fill="#231F20" width="100.3" height="100.3"/>
	</g>
	<g>
		<rect x="175.1" y="25" fill="#231F20" width="100.3" height="100.3"/>
	</g>
	<g>
		<rect x="325.2" y="25" fill="#231F20" width="99.7" height="100.3"/>
	</g>
	<g>
		<rect x="474.7" y="25" fill="#231F20" width="100.3" height="100.3"/>
	</g>
	<g>
		<rect x="25" y="175.1" fill="#231F20" width="100.3" height="100.3"/>
	</g>
	<g>
		<rect x="175.1" y="175.1" fill="#231F20" width="100.3" height="100.3"/>
	</g>
	<g>
		<rect x="325.2" y="175.1" fill="#231F20" width="99.7" height="100.3"/>
	</g>
	<g>
		<rect x="474.7" y="175.1" fill="#231F20" width="100.3" height="100.3"/>
	</g>
	<g>
		<rect x="25" y="325.2" fill="#231F20" width="100.3" height="100.3"/>
	</g>
	<g>
		<rect x="175.1" y="325.2" fill="#231F20" width="100.3" height="100.3"/>
	</g>
	<g>
		<rect x="325.2" y="325.2" fill="#231F20" width="99.7" height="100.3"/>
	</g>
	<g>
		<rect x="474.7" y="325.2" fill="#231F20" width="100.3" height="100.3"/>
	</g>
	<g>
		<rect x="25" y="475.3" fill="#231F20" width="100.3" height="99.7"/>
	</g>
	<g>
		<rect x="175.1" y="475.3" fill="#231F20" width="100.3" height="99.7"/>
	</g>
	<g>
		<rect x="325.2" y="475.3" fill="#231F20" width="99.7" height="99.7"/>
	</g>
	<g>
		<rect x="474.7" y="475.3" fill="#231F20" width="100.3" height="99.7"/>
	</g>
</g>
<g id="Layer_1_1_">
</g>
</svg>
