<?xml version="1.0" encoding="utf-8"?>
<!-- Generator: Adobe Illustrator 18.1.1, SVG Export Plug-In . SVG Version: 6.00 Build 0)  -->
<svg version="1.1" id="Layer_1" xmlns="http://www.w3.org/2000/svg" xmlns:xlink="http://www.w3.org/1999/xlink" x="0px" y="0px"
	 viewBox="0 0 600 600" enable-background="new 0 0 600 600" xml:space="preserve">
<g>
	<path fill="#0D0F0F" d="M300,25C148.4,25,25,148.4,25,300s123.4,275,275,275s275-123.4,275-275S451.6,25,300,25z M300,561.1
		C156,561.1,38.9,444,38.9,300C38.9,156,156,38.9,300,38.9S561.1,156,561.1,300C561.1,444,444,561.1,300,561.1z"/>
	<path fill="#0D0F0F" d="M434.3,268.8v-16c0-6.7-7.4-12.3-16.8-13C407.9,178.3,355.9,131,293.2,131c-62.7,0-114.8,47.3-124.3,108.9
		c-9.4,0.7-16.8,6.2-16.8,13v16c-10.4,0-18.8,5.9-18.8,13.1V342c0,7.3,8.4,13.1,18.8,13.1v16c0,7.2,8.4,13.1,18.8,13.1h17
		c10.4,0,18.9-5.9,18.9-13.1V252.9c0-6.3-6.3-11.5-14.8-12.8c9.2-49,51.1-86.2,101.3-86.2c50.2,0,92.1,37.1,101.3,86.1
		c-8.5,1.3-14.8,6.5-14.8,12.8v118.3c0,7.2,8.5,13.1,18.9,13.1h0.3c-1.2,54.3-9,56.4-68.8,56.6c-1-3.7-3.4-6.3-6.3-6.3h-61.1
		c-3.8,0-6.8,4.4-6.8,9.7v8.8c0,5.4,3,9.7,6.8,9.7h61.1c2.3,0,4.2-1.7,5.4-4.2c68.8-0.5,84.3-6.9,87.1-74.4c10-0.3,18-6,18-13.1v-16
		c10.4,0,18.8-5.9,18.8-13.1V282C453.2,274.7,444.7,268.8,434.3,268.8z"/>
</g>
</svg>
