<?xml version="1.0" encoding="utf-8"?>
<!-- Generator: Adobe Illustrator 18.1.1, SVG Export Plug-In . SVG Version: 6.00 Build 0)  -->
<!DOCTYPE svg PUBLIC "-//W3C//DTD SVG 1.0//EN" "http://www.w3.org/TR/2001/REC-SVG-20010904/DTD/svg10.dtd">
<svg version="1.0" id="Layer_1" xmlns="http://www.w3.org/2000/svg" xmlns:xlink="http://www.w3.org/1999/xlink" x="0px" y="0px"
	 viewBox="0 0 600 600" enable-background="new 0 0 600 600" xml:space="preserve">
<g id="Layer_1_1_">
</g>
<g id="Layer_1_2_">
</g>
<g id="_x32_2_x5F_HomeBroadband">
	<g>
		<polygon fill="#231F20" points="360.4,280.3 323.8,77.1 369,69.1 397.6,227 555,198.4 563.6,243.6 		"/>
	</g>
	<g>
		<polygon fill="#231F20" points="431.3,175.5 405.6,33 450.8,25 468,122.3 565.3,105.1 573.3,149.8 		"/>
	</g>
	<g>
		<path fill="#231F20" d="M484.6,304.3v133.4H71.9V162.9h220.9l-8-45.8h-52.1H72.5c-25.2,0-45.8,20.6-45.8,45.8v274.7
			c0,25.2,20.6,45.8,45.8,45.8h183.1v45.8H95.4V575h160.2h45.8h160.2v-45.8H301.4v-45.8h183.1c25.2,0,45.8-20.6,45.8-45.8V296.3
			L484.6,304.3z"/>
	</g>
</g>
<g id="Layer_1_3_">
</g>
</svg>
