<?xml version="1.0" encoding="utf-8"?>
<!-- Generator: Adobe Illustrator 18.1.1, SVG Export Plug-In . SVG Version: 6.00 Build 0)  -->
<!DOCTYPE svg PUBLIC "-//W3C//DTD SVG 1.0//EN" "http://www.w3.org/TR/2001/REC-SVG-20010904/DTD/svg10.dtd">
<svg version="1.0" id="Layer_1" xmlns="http://www.w3.org/2000/svg" xmlns:xlink="http://www.w3.org/1999/xlink" x="0px" y="0px"
	 viewBox="0 0 600 600" enable-background="new 0 0 600 600" xml:space="preserve">
<g id="_x36_6_x5F_Hosting">
	<g>
		<path fill="#231F20" d="M151.6,239.6v155.3c0,0,0.6,34.5,33.9,34.5h65V305.2h66.2v124.3h97.2c34.5,0,34.5-33.9,34.5-34.5V239.6
			h52.9L300,25L98.6,239.6H151.6z"/>
	</g>
	<g>
		<path fill="#231F20" d="M340.8,534.7c0,22.4-17.8,40.3-40.3,40.3c-21.9,0-40.3-17.8-40.3-40.3c0-21.9,17.8-40.3,40.3-40.3
			C323,494.5,340.8,512.3,340.8,534.7"/>
	</g>
	<g>
		<path fill="#231F20" d="M232.1,534.7c0,22.4-17.8,40.3-40.3,40.3c-21.9,0-40.3-17.8-40.3-40.3c0-21.9,17.8-40.3,40.3-40.3
			S232.1,512.3,232.1,534.7"/>
	</g>
	<g>
		<path fill="#231F20" d="M449,534.7c0,22.4-17.8,40.3-40.3,40.3c-21.9,0-40.3-17.8-40.3-40.3c0-21.9,17.8-40.3,40.3-40.3
			S449,512.3,449,534.7"/>
	</g>
</g>
<g id="Layer_1_1_">
</g>
</svg>
