<?xml version="1.0" encoding="utf-8"?>
<!-- Generator: Adobe Illustrator 18.1.1, SVG Export Plug-In . SVG Version: 6.00 Build 0)  -->
<!DOCTYPE svg PUBLIC "-//W3C//DTD SVG 1.1//EN" "http://www.w3.org/Graphics/SVG/1.1/DTD/svg11.dtd">
<svg version="1.1" id="Layer_1" xmlns="http://www.w3.org/2000/svg" xmlns:xlink="http://www.w3.org/1999/xlink" x="0px" y="0px"
	 viewBox="0 0 600 600" enable-background="new 0 0 600 600" xml:space="preserve">
<g>
	<path d="M566,25H34c-4.8,0-8.7,3.9-8.7,8.7v532.6c0,4.8,3.9,8.7,8.7,8.7H566c4.8,0,8.7-3.9,8.7-8.7V33.7
		C574.7,28.9,570.8,25,566,25z M522.4,505.6l-119.7-124c-1.3-1.4-3.5-1.5-4.9-0.2l-83,73.1L208.7,323.9c-0.7-0.9-1.7-1.3-2.8-1.3
		c-1.1,0-2.1,0.6-2.8,1.4L77.6,492.4V77.2h444.9L522.4,505.6L522.4,505.6z"/>
	<path d="M391,319.6c23.6,0,42.7-19.1,42.7-42.7c0-23.6-19.1-42.7-42.7-42.7c-23.6,0-42.7,19.1-42.7,42.7
		C348.3,300.5,367.4,319.6,391,319.6z"/>
</g>
</svg>
