<?xml version="1.0" encoding="utf-8"?>
<!-- Generator: Adobe Illustrator 19.2.1, SVG Export Plug-In . SVG Version: 6.00 Build 0)  -->
<svg version="1.1" id="Layer_1" xmlns="http://www.w3.org/2000/svg" xmlns:xlink="http://www.w3.org/1999/xlink" x="0px" y="0px"
	 viewBox="0 0 600 600" style="enable-background:new 0 0 600 600;" xml:space="preserve">
<g>
	<path d="M414.2,185.8c-5.5-5.5-10.7-8.8-17.9-11.7c-5.6-2.2-14-4.8-29.7-5.5c-17.4-0.8-22.6-1-66.5-1c-44,0-49.2,0.2-66.5,1
		c-15.6,0.7-24.1,3.3-29.7,5.5c-7.3,2.8-12.5,6.2-17.9,11.7c-5.5,5.5-8.8,10.7-11.7,17.9c-2.2,5.6-4.8,14-5.5,29.7
		c-0.8,17.3-1,22.5-1,66.5c0,44,0.2,49.2,1,66.5c0.7,15.6,3.3,24.1,5.5,29.7c2.8,7.3,6.2,12.5,11.7,17.9c5.5,5.5,10.7,8.8,17.9,11.7
		c5.6,2.2,14,4.8,29.7,5.5c17.3,0.8,22.5,1,66.5,1c44,0,49.2-0.2,66.5-1c15.6-0.7,24.1-3.3,29.7-5.5c7.3-2.8,12.5-6.2,17.9-11.7
		c5.5-5.5,8.8-10.7,11.7-17.9c2.2-5.6,4.8-14,5.5-29.7c0.8-17.3,1-22.5,1-66.5c0-44-0.2-49.2-1-66.5c-0.7-15.7-3.3-24.1-5.5-29.7
		C423,196.5,419.6,191.3,414.2,185.8z M300,387.7c-48.4,0-87.7-39.4-87.7-87.7c0-48.4,39.4-87.7,87.7-87.7s87.7,39.4,87.7,87.7
		C387.7,348.4,348.4,387.7,300,387.7z M388.1,234.7c-12.6,0-22.8-10.2-22.8-22.8s10.2-22.8,22.8-22.8s22.8,10.2,22.8,22.8
		S400.7,234.7,388.1,234.7z"/>
	<path d="M300,248c-28.7,0-52,23.3-52,52s23.3,52,52,52c28.7,0,52-23.3,52-52S328.7,248,300,248z"/>
	<path d="M300,25C148.1,25,25,148.1,25,300s123.1,275,275,275s275-123.1,275-275S451.9,25,300,25z M467,368.2
		c-0.7,16.3-3.2,28.9-7.9,41c-4.6,11.9-10.7,21.3-19.7,30.3c-9,9-18.3,15.1-30.3,19.7c-12.1,4.7-24.7,7.1-41,7.9
		c-17.7,0.8-23.5,1-68.2,1c-44.6,0-50.5-0.2-68.2-1c-16.3-0.7-28.9-3.2-41-7.9c-11.9-4.6-21.3-10.7-30.3-19.7
		c-9-9-15.1-18.3-19.7-30.3c-4.7-12.1-7.1-24.7-7.9-41c-0.8-17.6-1-23.5-1-68.2c0-44.7,0.2-50.5,1-68.2c0.7-16.3,3.2-28.9,7.9-41
		c4.6-11.9,10.7-21.3,19.7-30.3c9-9,18.3-15.1,30.3-19.7c12.1-4.7,24.7-7.1,41-7.9c17.6-0.8,23.5-1,68.2-1s50.5,0.2,68.2,1
		c16.3,0.7,28.9,3.2,41,7.9c11.9,4.6,21.3,10.7,30.3,19.7c9,9,15.1,18.3,19.7,30.3c4.7,12.1,7.1,24.7,7.9,41c0.8,17.6,1,23.5,1,68.2
		S467.8,350.5,467,368.2z"/>
</g>
</svg>
