<?xml version="1.0" encoding="utf-8"?>
<!-- Generator: Adobe Illustrator 19.2.1, SVG Export Plug-In . SVG Version: 6.00 Build 0)  -->
<svg version="1.1" id="Layer_1" xmlns="http://www.w3.org/2000/svg" xmlns:xlink="http://www.w3.org/1999/xlink" x="0px" y="0px"
	 viewBox="0 0 600 600" style="enable-background:new 0 0 600 600;" xml:space="preserve">
<style type="text/css">
	.st0{display:none;}
	.st1{display:inline;fill:#038CD6;}
</style>
<g id="Layer_3">
	<path d="M575,334.4v-68.8h-68.8h-45.8h-68.8H272.5c-16-52.7-64.2-91.7-121.5-91.7c-68.8,0-126,57.3-126,126s57.3,126,126,126
		c57.3,0,105.4-39,121.5-91.7h119.2V403h68.8v-68.8h45.8V403H575V334.4z M151,357.3c-32.1,0-57.3-25.2-57.3-57.3
		s25.2-57.3,57.3-57.3s57.3,25.2,57.3,57.3S183.1,357.3,151,357.3z"/>
</g>
<g id="Layer_2" class="st0">
	<path class="st1" d="M300,325c-13.8,0-25-11.2-25-25s11.2-25,25-25s25,11.2,25,25S313.8,325,300,325z M300,276
		c-13.2,0-24,10.8-24,24s10.8,24,24,24s24-10.8,24-24S313.2,276,300,276z M309,301h-2v3h-3v-3h-5.2c-0.7,2.3-2.8,4-5.3,4
		c-3,0-5.5-2.5-5.5-5.5s2.5-5.5,5.5-5.5c2.5,0,4.6,1.7,5.3,4h5.2h3h2h3v3v3h-3V301z M293.5,297c-1.4,0-2.5,1.1-2.5,2.5
		s1.1,2.5,2.5,2.5s2.5-1.1,2.5-2.5S294.9,297,293.5,297z"/>
</g>
<g id="Layer_1_1_" class="st0">
	<path class="st1" d="M300,325c-13.8,0-25-11.2-25-25s11.2-25,25-25s25,11.2,25,25S313.8,325,300,325z M300,290c-2.2,0-4,1.8-4,4
		s1.8,4,4,4s4-1.8,4-4S302.2,290,300,290z M308,303c0-1.9-1.8-3.6-4.4-4.5L300,304l-3.6-5.4c-2.6,0.8-4.4,2.5-4.4,4.4v4
		c0,1.1,3.6,2,8,2s8-0.9,8-2V303z"/>
</g>
</svg>
