<?xml version="1.0" encoding="utf-8"?>
<!-- Generator: Adobe Illustrator 19.2.1, SVG Export Plug-In . SVG Version: 6.00 Build 0)  -->
<svg version="1.1" id="Layer_1" xmlns="http://www.w3.org/2000/svg" xmlns:xlink="http://www.w3.org/1999/xlink" x="0px" y="0px"
	 viewBox="0 0 600 600" style="enable-background:new 0 0 600 600;" xml:space="preserve">
<g>
	<g>
		<path d="M300,25C148.4,25,25,148.4,25,300s123.4,275,275,275s275-123.4,275-275S451.6,25,300,25z M300,553
			C160.5,553,47,439.5,47,300S160.5,47,300,47s253,113.5,253,253S439.5,553,300,553z"/>
	</g>
</g>
<polygon points="404.4,283.7 318.8,283.7 318.8,198 284,198 284,283.7 198.3,283.7 198.3,318.5 284,318.5 284,404.1 318.8,404.1 
	318.8,318.5 404.4,318.5 "/>
</svg>
