<?xml version="1.0" encoding="utf-8"?>
<!-- Generator: Adobe Illustrator 19.1.1, SVG Export Plug-In . SVG Version: 6.00 Build 0)  -->
<svg version="1.1" id="Calque_1" xmlns="http://www.w3.org/2000/svg" xmlns:xlink="http://www.w3.org/1999/xlink" x="0px" y="0px"
	 viewBox="-5 352.7 600 88.6" style="enable-background:new -5 352.7 600 88.6;" xml:space="preserve">
<style type="text/css">
	.st0{fill:#4B79BB;}
</style>
<g>
	<g>
		<path class="st0" d="M217.4,436.5c-10.8,0-19.5-3.3-25.9-9.8c-6.5-6.5-9.7-15-9.7-25.5c0-11.2,3.3-20.2,9.9-26.9
			c6.7-6.7,15.7-10,27-10c10.6,0,19,3.3,25.4,9.8s9.7,15,9.7,25.5c0,11.4-3.3,20.4-9.9,27.1C237.2,433.2,228.4,436.5,217.4,436.5z
			 M218,371.6c-8,0-14.5,2.7-19.5,7.9c-5,5.3-7.5,12.3-7.5,20.9s2.4,15.5,7.3,20.8s11.2,7.9,19.1,7.9c8.4,0,14.9-2.5,19.7-7.5
			s7.2-12,7.2-21c0-9.2-2.3-16.4-7-21.4C232.6,374.2,226.2,371.6,218,371.6z"/>
		<path class="st0" d="M308.4,435.3h-8.7v-28.5c0-10.6-4.3-15.9-12.6-15.9c-4.4,0-8,1.5-10.8,4.5s-4.3,6.8-4.3,11.4v28.5h-8.7v-49.9
			h8.7v8.3h0.2c4.1-6.3,10-9.5,17.9-9.5c6,0,10.5,1.8,13.6,5.3c3.2,3.5,4.7,8.6,4.7,15.3L308.4,435.3L308.4,435.3z"/>
		<path class="st0" d="M364.2,412.3h-38.5c0.1,5.6,1.7,9.9,4.9,12.9s7.4,4.5,12.9,4.5c6.1,0,11.8-1.9,16.9-5.6v7.5
			c-4.8,3.2-11.1,4.8-19,4.8c-7.7,0-13.7-2.3-18.1-6.8s-6.5-10.9-6.5-19.1c0-7.8,2.4-14.1,7.2-19c4.8-4.9,10.8-7.3,17.9-7.3
			s12.6,2.1,16.6,6.3c3.9,4.2,5.9,10.1,5.9,17.6v4.2H364.2z M355.3,405.6c0-4.6-1.2-8.2-3.6-10.8s-5.7-3.9-9.9-3.9
			c-4.1,0-7.6,1.3-10.5,4c-2.8,2.7-4.7,6.2-5.3,10.6L355.3,405.6L355.3,405.6z"/>
		<path class="st0" d="M374.3,435.3v-69.9h21c26.8,0,40.3,11.4,40.3,34.1c0,10.8-3.7,19.5-11.2,26c-7.4,6.6-17.4,9.8-30,9.8H374.3z
			 M383.1,372.8v55.1h11.3c10,0,17.8-2.5,23.3-7.4s8.4-11.9,8.4-20.9c0-17.9-10.4-26.9-31.2-26.9L383.1,372.8L383.1,372.8z"/>
		<path class="st0" d="M474.1,393.5c-1.5-1.1-3.7-1.6-6.5-1.6c-3.7,0-6.9,1.6-9.4,4.8c-2.5,3.2-3.7,7.6-3.7,13.2v25.5h-8.7v-49.9
			h8.7v10.2h0.2c1.2-3.5,3.2-6.2,5.7-8.2s5.5-3,8.6-3c2.3,0,4,0.2,5.2,0.7v8.3H474.1z"/>
		<path class="st0" d="M485,372.7c-1.5,0-2.9-0.5-4-1.5s-1.6-2.2-1.6-3.7s0.5-2.7,1.6-3.7s2.4-1.5,4-1.5s2.9,0.5,4,1.5
			s1.6,2.2,1.6,3.7c0,1.4-0.5,2.7-1.6,3.7C488,372.2,486.7,372.7,485,372.7z M489.3,435.3h-8.7v-49.9h8.7V435.3z"/>
		<path class="st0" d="M546.1,385.4l-21.7,49.9h-8.6l-20.6-49.9h9.6l13.8,36.3c1,2.7,1.6,5,2,7h0.2c0.3-2.5,0.9-4.8,1.7-6.8
			l14.5-36.5H546.1z"/>
		<path class="st0" d="M594.8,412.3h-38.5c0.1,5.6,1.7,9.9,4.9,12.9s7.4,4.5,12.9,4.5c6.1,0,11.8-1.9,16.9-5.6v7.5
			c-4.8,3.2-11.1,4.8-19,4.8c-7.7,0-13.7-2.3-18.1-6.8s-6.5-10.9-6.5-19.1c0-7.8,2.4-14.1,7.2-19s10.8-7.3,17.9-7.3
			s12.6,2.1,16.6,6.3c3.9,4.2,5.9,10.1,5.9,17.6v4.2H594.8z M585.9,405.6c0-4.6-1.2-8.2-3.6-10.8c-2.4-2.6-5.7-3.9-9.9-3.9
			c-4.1,0-7.6,1.3-10.5,4s-4.7,6.2-5.3,10.6L585.9,405.6L585.9,405.6z"/>
	</g>
	<path class="st0" d="M142.6,408.8c0-0.5,0.1-1,0.1-1.6c0-11.9-10.5-21.5-23.4-21.5c-4.8,0-9.2,1.3-12.9,3.5
		c-4.5-8-13.5-13.4-24-13.4c-14.8,0-26.9,11.1-26.9,24.7c0,0.5,0,1,0.1,1.5c-0.5,0-1.2-0.1-1.7-0.1c-11.9,0-21.5,8.8-21.5,19.7
		s9.6,19.7,21.4,19.7l0,0h0.1h79h13.8c0.4-0.2,1-0.4,1.4-0.6c6.1-2.8,10.2-8.6,10.2-15.2C158.3,417.1,151.5,410,142.6,408.8z"/>
	<path class="st0" d="M50.8,397.7c1.5-14.7,15-26.3,31.5-26.3c10.4,0,19.7,4.5,25.7,12c3.5-1.4,7.3-2.1,11.1-2.1c0.2,0,0.5,0,0.8,0
		c-1.7-16.1-16.6-28.6-34.6-28.6c-13.6,0-25.4,7.2-31.1,17.6c-4-2.5-8.8-3.9-14.1-3.9c-13.8,0-25.1,10.3-25.1,23
		c0,1.7,0.2,3.4,0.5,5C4.1,395.2-5,404-5,414.8c0,11.3,10,20.4,22.2,20.4h14.6c-2.9-3.9-4.6-8.6-4.6-13.6
		C27.4,409.2,37.7,399,50.8,397.7z"/>
</g>
<g>
	<g>
		<path class="st0" d="M217.4,436.5c-10.8,0-19.5-3.3-25.9-9.8c-6.5-6.5-9.7-15-9.7-25.5c0-11.2,3.3-20.2,9.9-26.9
			c6.7-6.7,15.7-10,27-10c10.6,0,19,3.3,25.4,9.8s9.7,15,9.7,25.5c0,11.4-3.3,20.4-9.9,27.1C237.2,433.2,228.4,436.5,217.4,436.5z
			 M218,371.6c-8,0-14.5,2.7-19.5,7.9c-5,5.3-7.5,12.3-7.5,20.9s2.4,15.5,7.3,20.8s11.2,7.9,19.1,7.9c8.4,0,14.9-2.5,19.7-7.5
			s7.2-12,7.2-21c0-9.2-2.3-16.4-7-21.4C232.6,374.2,226.2,371.6,218,371.6z"/>
		<path class="st0" d="M308.4,435.3h-8.7v-28.5c0-10.6-4.3-15.9-12.6-15.9c-4.4,0-8,1.5-10.8,4.5s-4.3,6.8-4.3,11.4v28.5h-8.7v-49.9
			h8.7v8.3h0.2c4.1-6.3,10-9.5,17.9-9.5c6,0,10.5,1.8,13.6,5.3c3.2,3.5,4.7,8.6,4.7,15.3L308.4,435.3L308.4,435.3z"/>
		<path class="st0" d="M364.2,412.3h-38.5c0.1,5.6,1.7,9.9,4.9,12.9s7.4,4.5,12.9,4.5c6.1,0,11.8-1.9,16.9-5.6v7.5
			c-4.8,3.2-11.1,4.8-19,4.8c-7.7,0-13.7-2.3-18.1-6.8s-6.5-10.9-6.5-19.1c0-7.8,2.4-14.1,7.2-19c4.8-4.9,10.8-7.3,17.9-7.3
			s12.6,2.1,16.6,6.3c3.9,4.2,5.9,10.1,5.9,17.6v4.2H364.2z M355.3,405.6c0-4.6-1.2-8.2-3.6-10.8s-5.7-3.9-9.9-3.9
			c-4.1,0-7.6,1.3-10.5,4c-2.8,2.7-4.7,6.2-5.3,10.6L355.3,405.6L355.3,405.6z"/>
		<path class="st0" d="M374.3,435.3v-69.9h21c26.8,0,40.3,11.4,40.3,34.1c0,10.8-3.7,19.5-11.2,26c-7.4,6.6-17.4,9.8-30,9.8H374.3z
			 M383.1,372.8v55.1h11.3c10,0,17.8-2.5,23.3-7.4s8.4-11.9,8.4-20.9c0-17.9-10.4-26.9-31.2-26.9L383.1,372.8L383.1,372.8z"/>
		<path class="st0" d="M474.1,393.5c-1.5-1.1-3.7-1.6-6.5-1.6c-3.7,0-6.9,1.6-9.4,4.8c-2.5,3.2-3.7,7.6-3.7,13.2v25.5h-8.7v-49.9
			h8.7v10.2h0.2c1.2-3.5,3.2-6.2,5.7-8.2s5.5-3,8.6-3c2.3,0,4,0.2,5.2,0.7v8.3H474.1z"/>
		<path class="st0" d="M485,372.7c-1.5,0-2.9-0.5-4-1.5s-1.6-2.2-1.6-3.7s0.5-2.7,1.6-3.7s2.4-1.5,4-1.5s2.9,0.5,4,1.5
			s1.6,2.2,1.6,3.7c0,1.4-0.5,2.7-1.6,3.7C488,372.2,486.7,372.7,485,372.7z M489.3,435.3h-8.7v-49.9h8.7V435.3z"/>
		<path class="st0" d="M546.1,385.4l-21.7,49.9h-8.6l-20.6-49.9h9.6l13.8,36.3c1,2.7,1.6,5,2,7h0.2c0.3-2.5,0.9-4.8,1.7-6.8
			l14.5-36.5H546.1z"/>
		<path class="st0" d="M594.8,412.3h-38.5c0.1,5.6,1.7,9.9,4.9,12.9s7.4,4.5,12.9,4.5c6.1,0,11.8-1.9,16.9-5.6v7.5
			c-4.8,3.2-11.1,4.8-19,4.8c-7.7,0-13.7-2.3-18.1-6.8s-6.5-10.9-6.5-19.1c0-7.8,2.4-14.1,7.2-19s10.8-7.3,17.9-7.3
			s12.6,2.1,16.6,6.3c3.9,4.2,5.9,10.1,5.9,17.6v4.2H594.8z M585.9,405.6c0-4.6-1.2-8.2-3.6-10.8c-2.4-2.6-5.7-3.9-9.9-3.9
			c-4.1,0-7.6,1.3-10.5,4s-4.7,6.2-5.3,10.6L585.9,405.6L585.9,405.6z"/>
	</g>
	<path class="st0" d="M142.6,408.8c0-0.5,0.1-1,0.1-1.6c0-11.9-10.5-21.5-23.4-21.5c-4.8,0-9.2,1.3-12.9,3.5
		c-4.5-8-13.5-13.4-24-13.4c-14.8,0-26.9,11.1-26.9,24.7c0,0.5,0,1,0.1,1.5c-0.5,0-1.2-0.1-1.7-0.1c-11.9,0-21.5,8.8-21.5,19.7
		s9.6,19.7,21.4,19.7l0,0h0.1h79h13.8c0.4-0.2,1-0.4,1.4-0.6c6.1-2.8,10.2-8.6,10.2-15.2C158.3,417.1,151.5,410,142.6,408.8z"/>
	<path class="st0" d="M50.8,397.7c1.5-14.7,15-26.3,31.5-26.3c10.4,0,19.7,4.5,25.7,12c3.5-1.4,7.3-2.1,11.1-2.1c0.2,0,0.5,0,0.8,0
		c-1.7-16.1-16.6-28.6-34.6-28.6c-13.6,0-25.4,7.2-31.1,17.6c-4-2.5-8.8-3.9-14.1-3.9c-13.8,0-25.1,10.3-25.1,23
		c0,1.7,0.2,3.4,0.5,5C4.1,395.2-5,404-5,414.8c0,11.3,10,20.4,22.2,20.4h14.6c-2.9-3.9-4.6-8.6-4.6-13.6
		C27.4,409.2,37.7,399,50.8,397.7z"/>
</g>
</svg>
