<?xml version="1.0" encoding="utf-8"?>
<!-- Generator: Adobe Illustrator 18.1.1, SVG Export Plug-In . SVG Version: 6.00 Build 0)  -->
<!DOCTYPE svg PUBLIC "-//W3C//DTD SVG 1.1//EN" "http://www.w3.org/Graphics/SVG/1.1/DTD/svg11.dtd">
<svg version="1.1" id="Layer_1" xmlns="http://www.w3.org/2000/svg" xmlns:xlink="http://www.w3.org/1999/xlink" x="0px" y="0px"
	 viewBox="0 0 600 600" enable-background="new 0 0 600 600" xml:space="preserve">
<g>
	<path d="M438.6,41.1c10.7,10.7,16.1,24.7,16.1,41.9v434c0,17.2-5.4,31.2-16.1,41.9c-10.7,10.7-24.7,16.1-41.9,16.1H203.3
		c-17.2,0-31.2-5.4-41.9-16.1c-10.7-10.7-16.1-24.7-16.1-41.9V83c0-17.2,5.4-31.2,16.1-41.9C172.2,30.4,186.1,25,203.3,25h193.4
		C413.9,25,427.8,30.4,438.6,41.1z M430,84.1H171.1v410.4H430V84.1z M227,370.9V248.4h23.6v-18.3c0-13.6,4.8-25.2,14.5-34.9
		c9.7-9.7,21.3-14.5,34.9-14.5c14.3,0,26.1,4.8,35.4,14.5c9.3,9.7,14,21.3,14,34.9v18.3h24.7v122.5H227z M325.8,230.2
		c0-7.1-2.5-13.2-7.5-18.3c-5-5-11.1-7.5-18.3-7.5c-6.4,0-12.4,2.5-17.7,7.5c-5.4,5-8.1,11.1-8.1,18.3v18.3h51.6V230.2z
		 M320.4,534.2c0-5.7-2-10.4-5.9-14c-3.9-3.6-8.8-5.4-14.5-5.4c-5.7,0-10.4,1.8-14,5.4c-3.6,3.6-5.4,8.2-5.4,14
		c0,5.7,1.8,10.6,5.4,14.5c3.6,3.9,8.2,5.9,14,5.9c5.7,0,10.6-2,14.5-5.9C318.4,544.8,320.4,539.9,320.4,534.2z M317.2,292.5
		c0-11.4-5.7-17.2-17.2-17.2c-11.5,0-17.2,5.7-17.2,17.2c0,5.7,2.9,10.7,8.6,15V344h17.2v-36.5C314.3,303.2,317.2,298.2,317.2,292.5
		z"/>
</g>
</svg>
