<?xml version="1.0" encoding="utf-8"?>
<!-- Generator: Adobe Illustrator 18.1.1, SVG Export Plug-In . SVG Version: 6.00 Build 0)  -->
<svg version="1.1" id="Layer_1" xmlns="http://www.w3.org/2000/svg" xmlns:xlink="http://www.w3.org/1999/xlink" x="0px" y="0px"
	 viewBox="0 0 600 600" enable-background="new 0 0 600 600" xml:space="preserve">
<g id="Layer_1_1_">
</g>
<g>
	<g>
		<path fill="#0D0F0F" d="M543.2,462.5H56.8C39.2,462.5,25,479.3,25,500c0,20.8,14.2,37.5,31.8,37.5h486.4
			c17.6,0,31.8-16.7,31.8-37.5C575.1,479.3,560.9,462.5,543.2,462.5z M543.2,262.5H56.8c-17.6,0-31.8,16.7-31.8,37.5
			c0,20.7,14.2,37.5,31.8,37.5h486.4c17.6,0,31.8-16.7,31.8-37.5C575.1,279.3,560.9,262.5,543.2,262.5z M56.8,137.5h486.4
			c17.6,0,31.8-16.7,31.8-37.5s-14.2-37.5-31.8-37.5H56.8C39.2,62.5,25,79.2,25,100S39.2,137.5,56.8,137.5z"/>
	</g>
</g>
</svg>
