<?xml version="1.0" encoding="utf-8"?>
<!-- Generator: Adobe Illustrator 19.2.1, SVG Export Plug-In . SVG Version: 6.00 Build 0)  -->
<svg version="1.1" xmlns="http://www.w3.org/2000/svg" xmlns:xlink="http://www.w3.org/1999/xlink" x="0px" y="0px"
	 viewBox="0 0 600 600" style="enable-background:new 0 0 600 600;" xml:space="preserve">
<style type="text/css">
	.st0{display:none;}
	.st1{display:inline;}
	.st2{fill:#050606;}
	.st3{fill-rule:evenodd;clip-rule:evenodd;}
</style>
<g id="_x32_._minutes-sms-data">
	<path class="st3" d="M545,232.2v60l-60-60H385c-16.5,0-30-13.5-30-30v-100c0-16.7,13.5-30,30-30h160c16.5,0,30,13.3,30,30v100
		C575,218.6,561.5,232.2,545,232.2z M555.1,102.1c0-5.5-4.6-10.1-10.1-10.1H385c-5.5,0-10.1,4.6-10.1,10.1V202
		c0,5.5,4.6,10.1,10.1,10.1h105l35,35.2v-35H545c5.5,0,10.1-4.6,10.1-10.1V102.1z M417.8,433.6c0,65.1-52.8,117.9-117.8,117.9
		c-65.1,0-117.8-52.8-117.8-117.9s52.8-117.9,117.8-117.9C365,315.7,417.8,368.4,417.8,433.6z M352.9,427.2c0-1.8-1.5-3.3-3.3-3.3
		h-36.7c-1.8,0-3.3-1.5-3.3-3.3v-36.7c0-1.8-1.5-3.3-3.3-3.3h-12.6c-1.8,0-3.3,1.5-3.3,3.3v36.7c0,1.8-1.5,3.3-3.3,3.3h-36.6
		c-1.8,0-3.3,1.5-3.3,3.3v12.6c0,1.8,1.5,3.3,3.3,3.3H287c1.8,0,3.3,1.5,3.3,3.3v36.7c0,1.8,1.5,3.3,3.3,3.3h12.6
		c1.8,0,3.3-1.5,3.3-3.3v-36.7c0-1.8,1.5-3.3,3.3-3.3h36.7c1.8,0,3.3-1.5,3.3-3.3V427.2z M244.5,183.2
		c-15.1-10.5-19.9,5.2-19.9,15.5c0,10.5,10,41.3,15.1,51.8c5.1,10.5-5.1,14.6-10,15.5c-25,5.2-39.8,10.5-49.8,10.5
		c-10,0-5.1-10.5-5.1-10.5l5.1-20.7c5.1-20.7-10-31.2-25-31.2c-15.1,0-29.9,10.5-25,31.2l5.1,20.7c0,0,5.1,10.5-5.1,10.5
		c-10,0-25-5.2-49.8-10.5c-4.9-1.1-15.1-5.2-10-15.5c5.1-10.5,15.1-41.3,15.1-51.8c0-10.5-5.1-25.9-19.9-15.5
		C53.2,191.4,25,193.6,25,162.5c0-31.2,28.2-28.9,39.8-20.7c15.1,10.5,19.9-5.2,19.9-15.5c0-10.5-10-41.3-15.1-51.8
		C64.5,64,74.7,59.9,79.6,59c25.3-5.2,40.1-10.5,50-10.5c10,0,5.2,10.5,5.2,10.5l-5.1,20.7c-5.1,20.7,10,31.2,25,31.2
		c15.1,0,29.9-10.5,25-31.2l-5.2-20.7c0,0-5.1-10.5,5.1-10.5c10,0,25,5.2,49.8,10.5c4.9,1.1,15.1,5.2,10,15.5
		c-4.9,10.5-14.8,41.3-14.8,51.8c0,10.2,4.9,25.9,19.9,15.5c11.8-8,39.8-10.5,39.8,20.7C284.3,193.7,256,191.2,244.5,183.2z"/>
</g>
</svg>
