<?xml version="1.0" encoding="utf-8"?>
<!-- Generator: Adobe Illustrator 18.1.1, SVG Export Plug-In . SVG Version: 6.00 Build 0)  -->
<!DOCTYPE svg PUBLIC "-//W3C//DTD SVG 1.1//EN" "http://www.w3.org/Graphics/SVG/1.1/DTD/svg11.dtd">
<svg version="1.1" id="Layer_1" xmlns="http://www.w3.org/2000/svg" xmlns:xlink="http://www.w3.org/1999/xlink" x="0px" y="0px"
	 viewBox="-171 -172.4 600 600" enable-background="new -171 -172.4 600 600" xml:space="preserve">
<g id="Layer_1_1_">
</g>
<g>
	<g>
		<path fill="#0C0E0F" d="M155.9,158.5v-52.2h-44.4c-21.2,0-38.4-17.2-38.4-38.4v-96.6c0-21.2,17.2-38.4,38.4-38.4h165.6
			c21.2,0,38.4,17.2,38.4,38.4v96.6c0,21.2-17.2,38.5-38.4,38.5h-51.5L155.9,158.5z M111.4-45.6c-9.2,0-16.8,7.6-16.8,16.8v96.6
			c0,9.2,7.6,16.8,16.8,16.8h66v30.6l40.8-30.6H277c9.2,0,16.8-7.6,16.8-16.8v-96.6c0-9.2-7.6-16.8-16.8-16.8H111.4z"/>
		<g>
			<g>
				<path fill="#231F20" d="M226.4,127.2v194.7h-0.1H-32.9V-88.6h259.3l0,0h25.1v-1.1c0-34.3-23.5-57.8-57.8-57.8H0.3
					c-34.3,0-57.8,23.5-57.8,57.8v434.4c0,34.3,23.5,57.8,57.8,57.8h192.9c34.3,0,58.3-24,58.3-57.8V127.2H226.4z M97,382
					c-10.9,0-20-9.2-20-20c0-10.9,9.2-20,20-20c10.9,0,20,9.2,20,20C117,372.9,107.8,382,97,382z"/>
			</g>
		</g>
	</g>
</g>
</svg>
