<?xml version="1.0" encoding="utf-8"?>
<!-- Generator: Adobe Illustrator 18.1.1, SVG Export Plug-In . SVG Version: 6.00 Build 0)  -->
<!DOCTYPE svg PUBLIC "-//W3C//DTD SVG 1.0//EN" "http://www.w3.org/TR/2001/REC-SVG-20010904/DTD/svg10.dtd">
<svg version="1.0" id="Layer_1" xmlns="http://www.w3.org/2000/svg" xmlns:xlink="http://www.w3.org/1999/xlink" x="0px" y="0px"
	 viewBox="0 0 600 600" enable-background="new 0 0 600 600" xml:space="preserve">
<g id="Layer_1_1_">
</g>
<g id="Layer_1_2_">
</g>
<g>
	<polygon fill="#231F20" points="397.7,204.5 372.9,64.2 332.2,71 364.4,252.2 545.5,219.4 538.6,179.2 	"/>
	<polygon fill="#231F20" points="554.7,136 547.2,95.7 460.4,111.3 444.8,25 404.6,31.9 427.6,159 	"/>
	<path fill="#231F20" d="M371.2,425.9c15.5-16.7,15.5-43.1-0.5-59.8c-1.2-1.2-2.4-2.3-3.7-3.2L206.7,202.6l-0.1,0.1
		c-16.7-16.5-43-16.5-59.1,0.1l-0.2-0.2l-88,88c-0.5,0.5-1.1,0.9-1.5,1.4c-16.7,16.7-16.7,43.1,0,59.3c0.1,0.1,0.1,0.1,0.2,0.2
		l-0.1,0.1l160.6,160.6c1,1.3,2.1,2.5,3.2,3.7c16.7,16.7,43.1,16.7,59.3,0c0,0,0.1-0.1,0.1-0.1l59.5,59.3l15-15.1l-59.6-59.4
		l59.7-59.7l44.3,44.3l-59.3,59.8l15,15l59.3-59.8l14.9-15l-59-59C371,426.1,371.1,426,371.2,425.9z"/>
</g>
<g id="Layer_1_3_">
</g>
</svg>
