<?xml version="1.0" encoding="utf-8"?>
<!-- Generator: Adobe Illustrator 18.1.1, SVG Export Plug-In . SVG Version: 6.00 Build 0)  -->
<!DOCTYPE svg PUBLIC "-//W3C//DTD SVG 1.0//EN" "http://www.w3.org/TR/2001/REC-SVG-20010904/DTD/svg10.dtd">
<svg version="1.0" id="Layer_1" xmlns="http://www.w3.org/2000/svg" xmlns:xlink="http://www.w3.org/1999/xlink" x="0px" y="0px"
	 viewBox="0 0 600 600" enable-background="new 0 0 600 600" xml:space="preserve">
<g id="_x30_2_x5F_Music">
	<g>
		<path fill="#231F20" d="M231.6,116.4v23v69v234.6c-13.2-4.6-28.8-6.3-46-4.6c-50.6,5.2-91.4,40.3-91.4,77.6s40.8,63.8,91.4,58.1
			C236.2,569,277,534,277,496.6v-13.2V192.9l183.5-61v242.1c-13.8-4.6-28.8-6.3-46-4.6c-50.6,5.2-91.4,40.3-91.4,77.6
			s40.8,63.8,91.4,58.1c50.6-5.2,91.4-40.3,91.4-77.6v-13.2V116.4V71V25L231.6,116.4z"/>
	</g>
</g>
<g id="Layer_1_1_">
</g>
</svg>
