<?xml version="1.0" encoding="utf-8"?>
<!-- Generator: Adobe Illustrator 18.1.1, SVG Export Plug-In . SVG Version: 6.00 Build 0)  -->
<!DOCTYPE svg PUBLIC "-//W3C//DTD SVG 1.1//EN" "http://www.w3.org/Graphics/SVG/1.1/DTD/svg11.dtd">
<svg version="1.1" id="Layer_1" xmlns="http://www.w3.org/2000/svg" xmlns:xlink="http://www.w3.org/1999/xlink" x="0px" y="0px"
	 viewBox="0 0 600 600" enable-background="new 0 0 600 600" xml:space="preserve">
<g>
	<g>
		<path d="M300,170.4c-34.2,0-61.9,28-61.9,62.5c0,27.5,17.8,50.9,42.3,59.2v262.8c0,10.9,8.8,19.8,19.6,19.8
			c10.8,0,19.6-8.9,19.6-19.8V292.1c24.6-8.3,42.3-31.7,42.3-59.2C361.9,198.5,334.2,170.4,300,170.4z M407,94.2
			c-9.2-5.7-21.3-2.8-27,6.5c-5.7,9.3-2.8,21.5,6.5,27.2c36.5,22.6,58.3,61.9,58.3,105c0,43.1-21.8,82.4-58.3,105
			c-9.2,5.7-12.1,17.9-6.5,27.2c3.7,6.1,10.2,9.4,16.8,9.4c3.5,0,7-0.9,10.3-2.9c48.3-29.9,77.1-81.7,77.1-138.8
			C484,175.9,455.2,124,407,94.2z M473.9,29.2c-8.7-6.6-21-4.8-27.5,4c-6.5,8.7-4.7,21.2,3.9,27.7c54.3,41,85.4,103.7,85.4,172
			c0,68.3-31.1,131-85.4,172c-8.7,6.6-10.4,19-3.9,27.7c3.9,5.2,9.8,7.9,15.7,7.9c4.1,0,8.2-1.3,11.8-4
			C538.2,388,575,313.8,575,232.9S538.2,77.8,473.9,29.2z M213.6,127.9c9.2-5.7,12.1-17.9,6.5-27.2c-5.7-9.3-17.8-12.2-27-6.5
			C144.8,124,116,175.9,116,232.9c0,57,28.8,108.9,77.1,138.8c3.2,2,6.8,2.9,10.3,2.9c6.6,0,13.1-3.4,16.8-9.4
			c5.7-9.3,2.8-21.5-6.5-27.2c-36.5-22.6-58.3-61.9-58.3-105C155.3,189.8,177.1,150.5,213.6,127.9z M149.7,404.9
			c-54.3-41-85.4-103.7-85.4-172c0-68.3,31.1-131,85.4-172c8.7-6.6,10.4-19,3.9-27.7c-6.5-8.8-18.8-10.5-27.5-4
			C61.8,77.8,25,152,25,232.9c0,80.9,36.8,155.1,101.1,203.7c3.5,2.7,7.7,4,11.8,4c6,0,11.9-2.7,15.7-7.9
			C160.1,423.9,158.3,411.5,149.7,404.9z"/>
	</g>
</g>
</svg>
