<?xml version="1.0" encoding="utf-8"?>
<!-- Generator: Adobe Illustrator 18.1.1, SVG Export Plug-In . SVG Version: 6.00 Build 0)  -->
<!DOCTYPE svg PUBLIC "-//W3C//DTD SVG 1.1//EN" "http://www.w3.org/Graphics/SVG/1.1/DTD/svg11.dtd">
<svg version="1.1" id="Layer_1" xmlns="http://www.w3.org/2000/svg" xmlns:xlink="http://www.w3.org/1999/xlink" x="0px" y="0px"
	 viewBox="0 0 600 600" enable-background="new 0 0 600 600" xml:space="preserve">
<g>
	<g>
		<path d="M62.9,210.3c-5.3,2.4-11,4.9-17.3,7.3c-6.2,2.4-11.9,4.1-17.1,5.2c-2.4,0.4-3.6,5.1-3.6,14c0,9.2,0.9,13.9,2.7,13.9
			c10.3,0,21.5-2,33.6-6v147.8c0,1.7,6,2.5,17.9,2.5c11.9,0,17.9-0.8,17.9-2.5v-186H71.8C71.2,206.6,68.2,207.9,62.9,210.3z
			 M166.3,297.7c-10.5,0-15.7,0.8-15.7,2.4v31c0,1.6,5.2,2.4,15.7,2.4c10.5,0,15.7-0.8,15.7-2.4v-31
			C182,298.5,176.8,297.7,166.3,297.7z M267.5,335.7c6.2-6.3,17.7-12.9,34.5-19.8c18.5-7.7,31.4-15.7,38.8-24
			c7.3-8.3,11-19.9,11-34.7c0-18-5.5-31.7-16.6-41c-11.1-9.3-26.5-14-46.3-14c-21,0-40.2,4.8-57.9,14.3c-0.7,0.5-0.9,1.8-0.6,3.9
			c0.4,2.1,1.1,4.6,2.2,7.5c1.1,2.9,2.2,5.7,3.4,8.4c1.2,2.7,2.5,4.9,3.8,6.6c1.4,1.7,2.4,2.4,3,2c17.1-8.2,32.4-12.3,45.8-12.3
			c9.1,0,16.1,2.3,21,6.8c4.9,4.5,7.3,10.4,7.3,17.8c0,7.2-2.6,13.1-7.9,17.7c-5.3,4.6-16.5,10.7-33.6,18.2
			c-20.3,8.9-34.2,19.1-41.7,30.6c-7.5,11.5-11.3,27.9-11.3,49v21h125.3c1.7,0,2.6-4.9,2.6-14.6c-0.1-9.9-1-14.9-2.6-14.9h-89.4v-4
			C258.2,350.3,261.3,342.1,267.5,335.7z M395.2,297.7c-10.5,0-15.7,0.8-15.7,2.4v31c0,1.6,5.2,2.4,15.7,2.4
			c10.5,0,15.7-0.8,15.7-2.4v-31C410.9,298.5,405.7,297.7,395.2,297.7z M566.3,312.4c-5.8-7.1-12.7-11.6-20.6-13.7
			c8.3-1.8,15.1-6,20.4-12.5c5.3-6.5,8-14.3,8-23.7v-12.1c0-15.1-5.6-27-16.7-35.8c-11.1-8.8-25.3-13.2-42.4-13.2
			c-21,0-40.5,5.5-58.6,16.6c-1.2,0.7-0.9,3.6,1,8.7c1.9,5.1,4.3,9.9,7.2,14.4c2.9,4.5,5,6.4,6.1,5.7c14.7-8.9,28.6-13.4,41.6-13.4
			c8.6,0,15,1.9,19.2,5.7c4.2,3.8,6.4,8.8,6.4,15v5.9c0,8.1-1.9,14-5.6,17.9c-3.7,3.9-10.2,5.8-19.3,5.8h-18.4
			c-1.7,0-2.6,5.1-2.6,15.4c0.1,10.1,0.9,15.1,2.6,15.1H513c9.5,0,16.2,1.8,20.2,5.5c4,3.7,6,9.7,6,18v7c0,7.2-2.6,12.6-7.7,16.2
			c-5.1,3.7-11.8,5.5-19.9,5.5c-12.4,0-27.6-5-45.5-14.9c-1.3-0.7-3.4,1.3-6.2,5.9c-2.8,4.6-5.1,9.5-6.8,14.9
			c-1.7,5.3-1.9,8.3-0.6,9c2.4,1.5,5.8,3.3,10.1,5.4c4.3,2.1,11.4,4.6,21.2,7.4c9.8,2.8,19.2,4.2,28.3,4.2
			c18.4,0,33.5-4.8,45.3-14.3c11.8-9.5,17.7-22.4,17.7-38.6v-9C575,327.6,572.1,319.5,566.3,312.4z"/>
	</g>
</g>
</svg>
