<?xml version="1.0" encoding="utf-8"?>
<!-- Generator: Adobe Illustrator 18.1.1, SVG Export Plug-In . SVG Version: 6.00 Build 0)  -->
<svg version="1.1" id="Layer_1" xmlns="http://www.w3.org/2000/svg" xmlns:xlink="http://www.w3.org/1999/xlink" x="0px" y="0px"
	 viewBox="0 0 600 600" enable-background="new 0 0 600 600" xml:space="preserve">
<g id="Layer_1_1_">
</g>
<g>
	<path fill="#0D0F0F" d="M575,300L337.9,62.9v126.6c0,0-115.4,0-189.7-0.2c-25.1,0-31.5,9.5-31.5,31.5c0,14.3,0,134.5,0,158.2
		s7.8,31.5,31.5,31.5s189.7,0,189.7,0v126.6L575,300z"/>
	<path fill="#0D0F0F" d="M198.8,472.9h-106c-17.8,0-30.3-4.6-38.3-14.1c-7.4-8.8-11.1-22.2-11.1-40V181.6
		c0-36.4,16.2-54.1,49.4-54.1h106c5.1,0,9.2-4.1,9.2-9.2s-4.1-9.2-9.2-9.2h-106c-23,0-40.7,7.2-52.4,21.3
		C30.2,142.9,25,160.1,25,181.6v237.1c0,59.9,36.8,72.4,67.8,72.4h106c5.1,0,9.2-4.1,9.2-9.2C208,477,203.8,472.9,198.8,472.9z"/>
</g>
</svg>
