<?xml version="1.0" encoding="utf-8"?>
<!-- Generator: Adobe Illustrator 18.1.0, SVG Export Plug-In . SVG Version: 6.00 Build 0)  -->
<svg version="1.1" baseProfile="tiny" id="Layer_1" xmlns="http://www.w3.org/2000/svg" xmlns:xlink="http://www.w3.org/1999/xlink"
	 x="0px" y="0px" viewBox="0 0 600 600" xml:space="preserve">
<g id="Layer_1_1_">
</g>
<path fill="#231F20" d="M323.8,411.6v55.2h-47V411c-14.3-8.1-23.5-23-23.5-40.8c0-25.8,21.2-47,47.1-47c25.8,0,47,21.2,47,47.7
	C347.3,388,337.6,403.5,323.8,411.6z"/>
<path fill="#231F20" d="M441.5,221.4v-54.6C441.5,88.7,378.3,25,299.7,25c-78.1,0-141.8,63.2-141.8,141.8v54.6h-70v313.4
	c0,0,0,40.2,40.2,40.2H472c40.2,0,40.2-40.2,40.2-40.2V221.4H441.5z M208.2,166.8c0-39,31.8-92.5,91.5-92.5
	c60.3,0,89.5,53.4,89.5,92.5v54.6h-181V166.8z M465,525H137.2V267H465V525z"/>
</svg>
