<?xml version="1.0" encoding="utf-8"?>
<!-- Generator: Adobe Illustrator 18.1.1, SVG Export Plug-In . SVG Version: 6.00 Build 0)  -->
<!DOCTYPE svg PUBLIC "-//W3C//DTD SVG 1.1//EN" "http://www.w3.org/Graphics/SVG/1.1/DTD/svg11.dtd">
<svg version="1.1" id="Layer_1" xmlns="http://www.w3.org/2000/svg" xmlns:xlink="http://www.w3.org/1999/xlink" x="0px" y="0px"
	 viewBox="0 0 600 600" enable-background="new 0 0 600 600" xml:space="preserve">
<g id="_x32_9_x5F_Document">
	<g>
		<path fill="#231F20" d="M391.8,25H98.4v550h403.3V135L391.8,25z M465.1,538.3h-330V61.7h220v110h110V538.3z"/>
	</g>
</g>
<path d="M311.8,330.5c0-39.5,2.6-78.5,2.6-117.5c-10.4,0-20.4,0-30.4,0c0,39.4,2.6,78.5,2.6,117.5
	C296.8,330.5,301.6,330.5,311.8,330.5z"/>
<path d="M314.3,385.7c0-10.4,0-20.6,0-30.9c-10.4,0-20.4,0-30.4,0c0,10.4,0,20.6,0,30.9C294.2,385.7,304.2,385.7,314.3,385.7z"/>
</svg>
