<?xml version="1.0" encoding="utf-8"?>
<!-- Generator: Adobe Illustrator 19.2.1, SVG Export Plug-In . SVG Version: 6.00 Build 0)  -->
<svg version="1.1" id="Layer_1" xmlns="http://www.w3.org/2000/svg" xmlns:xlink="http://www.w3.org/1999/xlink" x="0px" y="0px"
	 viewBox="0 0 600 600" style="enable-background:new 0 0 600 600;" xml:space="preserve">
<style type="text/css">
	.st0{display:none;}
	.st1{display:inline;fill:#D1D1D1;}
	.st2{display:inline;fill:#038CD6;}
</style>
<g id="Layer_5">
	<path d="M387.8,425h150l-150,150V425z M337.2,575h-275V25h475v350h-200V575z M162.8,425h100v-50h-100V425z M437.8,125h-275v50h275
		V125z M437.8,300v-50h-275v50H437.8z"/>
</g>
<g id="Layer_4" class="st0">
	<path class="st1" d="M300,325c-13.8,0-25-11.2-25-25s11.2-25,25-25s25,11.2,25,25S313.8,325,300,325z M300,276
		c-13.2,0-24,10.8-24,24s10.8,24,24,24s24-10.8,24-24S313.2,276,300,276z M304,305h6l-6,6V305z M302,311h-11v-22h19v14h-8V311z
		 M295,305h4v-2h-4V305z M306,293h-11v2h11V293z M306,300v-2h-11v2H306z"/>
</g>
<g id="Layer_3" class="st0">
	<path class="st2" d="M300,325c-13.8,0-25-11.2-25-25s11.2-25,25-25s25,11.2,25,25S313.8,325,300,325z M312,301v-3h-3h-2h-3h-5.2
		c-0.7-2.3-2.8-4-5.3-4c-3,0-5.5,2.5-5.5,5.5s2.5,5.5,5.5,5.5c2.5,0,4.6-1.7,5.3-4h5.2v3h3v-3h2v3h3V301z M293.5,302
		c-1.4,0-2.5-1.1-2.5-2.5s1.1-2.5,2.5-2.5s2.5,1.1,2.5,2.5S294.9,302,293.5,302z"/>
</g>
<g id="Layer_2" class="st0">
	<path class="st2" d="M300,325c-13.8,0-25-11.2-25-25s11.2-25,25-25s25,11.2,25,25S313.8,325,300,325z M300,276
		c-13.2,0-24,10.8-24,24s10.8,24,24,24s24-10.8,24-24S313.2,276,300,276z M309,301h-2v3h-3v-3h-5.2c-0.7,2.3-2.8,4-5.3,4
		c-3,0-5.5-2.5-5.5-5.5s2.5-5.5,5.5-5.5c2.5,0,4.6,1.7,5.3,4h5.2h3h2h3v3v3h-3V301z M293.5,297c-1.4,0-2.5,1.1-2.5,2.5
		s1.1,2.5,2.5,2.5s2.5-1.1,2.5-2.5S294.9,297,293.5,297z"/>
</g>
<g id="Layer_1_1_" class="st0">
	<path class="st2" d="M300,325c-13.8,0-25-11.2-25-25s11.2-25,25-25s25,11.2,25,25S313.8,325,300,325z M300,290c-2.2,0-4,1.8-4,4
		s1.8,4,4,4s4-1.8,4-4S302.2,290,300,290z M308,303c0-1.9-1.8-3.6-4.4-4.5L300,304l-3.6-5.4c-2.6,0.8-4.4,2.5-4.4,4.4v4
		c0,1.1,3.6,2,8,2s8-0.9,8-2V303z"/>
</g>
</svg>
