<?xml version="1.0" encoding="utf-8"?>
<!-- Generator: Adobe Illustrator 18.1.1, SVG Export Plug-In . SVG Version: 6.00 Build 0)  -->
<!DOCTYPE svg PUBLIC "-//W3C//DTD SVG 1.1//EN" "http://www.w3.org/Graphics/SVG/1.1/DTD/svg11.dtd">
<svg version="1.1" id="Layer_1" xmlns="http://www.w3.org/2000/svg" xmlns:xlink="http://www.w3.org/1999/xlink" x="0px" y="0px"
	 viewBox="0 0 600 600" enable-background="new 0 0 600 600" xml:space="preserve">
<g>
	<g>
		<path fill-rule="evenodd" clip-rule="evenodd" d="M452.6,25H25v550h550V142.3L452.6,25z M525.1,522.1H75V73.3h341.3v103.6h108.8
			V522.1z M385.8,226.7H209.6c-12.5,0-22.9,9.9-22.9,21.7c0,11.8,10.4,21.7,22.9,21.7h176.3c12.5,0,22.9-9.9,22.8-21.7
			C408.7,236.6,398.2,226.7,385.8,226.7z M385.8,312.6H209.6c-12.5,0-22.9,9.9-22.9,21.7c0,11.8,10.4,21.7,22.9,21.7h176.3
			c12.5,0,22.9-9.9,22.8-21.7C408.7,322.5,398.2,312.6,385.8,312.6z M385.8,398.7H209.6c-12.5,0-22.9,9.9-22.9,21.7
			c0,11.8,10.4,21.7,22.9,21.7h176.3c12.5,0,22.9-9.9,22.8-21.7C408.7,408.5,398.2,398.7,385.8,398.7z"/>
	</g>
</g>
</svg>
