<?xml version="1.0" encoding="utf-8"?>
<!-- Generator: Adobe Illustrator 18.1.1, SVG Export Plug-In . SVG Version: 6.00 Build 0)  -->
<!DOCTYPE svg PUBLIC "-//W3C//DTD SVG 1.1//EN" "http://www.w3.org/Graphics/SVG/1.1/DTD/svg11.dtd">
<svg version="1.1" id="Layer_1" xmlns="http://www.w3.org/2000/svg" xmlns:xlink="http://www.w3.org/1999/xlink" x="0px" y="0px"
	 viewBox="0 0 600 600" enable-background="new 0 0 600 600" xml:space="preserve">
<g>
	<path fill="#231F20" d="M300,272.9c43.3,0,78.5-35.1,78.5-78.5c0-43.3-35.1-78.5-78.5-78.5c-43.3,0-78.5,35.1-78.5,78.5
		C221.5,237.8,256.7,272.9,300,272.9z"/>
	<path fill="#231F20" d="M208,201.5c0-33.7-27.3-61-61-61s-61,27.3-61,61s27.3,61,61,61C180.6,262.5,208,235.2,208,201.5z"/>
	<path fill="#231F20" d="M25,339v61c0,15.6,47.9,28.9,109.4,30.5V373c0-10,2-19.8,5.8-29.1L91.7,271C52.3,283.8,25,309.2,25,339z"/>
	<path fill="#231F20" d="M514,201.5c0-33.7-27.3-61-61-61s-61,27.3-61,61s27.3,61,61,61S514,235.2,514,201.5z"/>
	<path fill="#231F20" d="M508.6,271L460,343.8c3.8,9.4,5.7,19.3,5.6,29.4v57.3C527.1,428.9,575,415.9,575,400v-61
		C575.3,309.2,548,283.8,508.6,271z"/>
	<path fill="#231F20" d="M377,309.1l-77,115.3l-76.6-115.3c-41.3,15.8-66.5,42.4-66.5,70.8v77.5c2.1,2.8,12.8,10.3,42.3,16.9
		c27.8,6.2,63.6,9.6,100.8,9.6c37.4,0,73.3-3.4,101-9.5c29.6-6.6,40.2-14.1,42.1-16.9V380C443.4,351.5,418.3,325,377,309.1z"/>
</g>
</svg>
