<?xml version="1.0" encoding="utf-8"?>
<!-- Generator: Adobe Illustrator 18.1.1, SVG Export Plug-In . SVG Version: 6.00 Build 0)  -->
<!DOCTYPE svg PUBLIC "-//W3C//DTD SVG 1.0//EN" "http://www.w3.org/TR/2001/REC-SVG-20010904/DTD/svg10.dtd">
<svg version="1.0" id="Layer_1" xmlns="http://www.w3.org/2000/svg" xmlns:xlink="http://www.w3.org/1999/xlink" x="0px" y="0px"
	 viewBox="0 0 600 600" enable-background="new 0 0 600 600" xml:space="preserve">
<path d="M76.8,271.7c18.5,12.4,43.5,18.6,75,18.6c31.9,0,57.2-6.2,76-18.6c18.8-12.4,28.2-32,28.2-58.9V102.5
	c0-26.6-9.4-46.2-28.2-58.7C209,31.3,183.9,25,152.5,25c-31.8,0-57,6.3-75.6,18.7c-18.6,12.5-27.9,32.1-27.9,58.7v110.4
	C49.1,239.7,58.3,259.3,76.8,271.7z M109.9,103.8c0-12,3.5-20,10.6-24.2c7-4.1,17.5-6.2,31.4-6.2c14.3,0,25.1,2.1,32.4,6.2
	c7.3,4.1,10.9,12.2,10.9,24.2v107.6c0,12.2-3.6,20.3-10.7,24.3s-18,6-32.6,6c-14.1,0-24.6-2-31.5-6c-6.9-4-10.4-12.1-10.4-24.3
	V103.8z M150.4,563.3c0.7,0,1.9,0,3.5,0c19.6,0,30.3-1.9,32-5.7L472.1,35.3c0.5-0.9,0.3-1.8-0.5-2.5c-0.8-0.7-2.2-1.2-4.2-1.6
	c-2-0.4-4-0.6-6-0.9c-2-0.2-4.6-0.4-7.9-0.5c-3.3-0.1-5.9-0.2-7.7-0.2s-4.3,0-7.4,0c-22.1,0-34.1,1.9-36,5.7L116.6,557.7
	c-0.2,0.7-0.2,1.4,0,2.1C118.2,562.2,129.5,563.3,150.4,563.3L150.4,563.3z M372.3,556.4c18.4,12.4,43.4,18.6,75.2,18.6
	c31.7,0,56.8-6.2,75.5-18.6c18.6-12.4,28-32,28-58.9V384.9c0-26.9-9.2-46.5-27.6-58.9c-18.4-12.4-43.4-18.6-75.1-18.6
	c-69,0-103.5,25.8-103.5,77.5v112.6C344.7,524.4,353.9,544.1,372.3,556.4z M405.6,386.8c0-11.9,3.6-20.1,10.7-24.4
	c7.2-4.4,17.6-6.5,31.2-6.5c14.1,0,24.7,2.2,31.9,6.5c7.2,4.4,10.7,12.5,10.7,24.4v109.4c0,12.1-3.6,20.2-10.7,24.2
	c-7.2,4-17.8,6-31.9,6c-14.1,0-24.6-2-31.5-6c-6.9-4-10.4-12.1-10.4-24.2V386.8z"/>
<g>
</g>
<g>
</g>
<g>
</g>
<g>
</g>
<g>
</g>
<g>
</g>
</svg>
