<?xml version="1.0" encoding="utf-8"?>
<!-- Generator: Adobe Illustrator 18.1.1, SVG Export Plug-In . SVG Version: 6.00 Build 0)  -->
<!DOCTYPE svg PUBLIC "-//W3C//DTD SVG 1.1//EN" "http://www.w3.org/Graphics/SVG/1.1/DTD/svg11.dtd">
<svg version="1.1" id="Layer_1" xmlns="http://www.w3.org/2000/svg" xmlns:xlink="http://www.w3.org/1999/xlink" x="0px" y="0px"
	 viewBox="0 0 600 600" enable-background="new 0 0 600 600" xml:space="preserve">
<g enable-background="new    ">
	<path d="M222.7,125.4c7.2,7.5,10.7,17,10.7,28.5v292.2c0,11.5-3.6,20.9-10.7,28.5c-7.2,7.5-16.5,11.3-27.9,11.3H63.7
		c-11.5,0-20.8-3.8-27.9-11.3c-7.2-7.5-10.7-17-10.7-28.5V153.9c0-11.4,3.6-20.9,10.7-28.5c7.2-7.5,16.5-11.3,27.9-11.3h131.1
		C206.2,114.2,215.5,117.9,222.7,125.4z M217.3,153.9H42.2v277.1h175.1V153.9z M78.7,351.6l39.7-131.1c0.7-0.7,4.3-1.1,10.7-1.1
		s9.7,0.4,9.7,1.1l40.8,131.1c0.7,0.7-2.1,1.1-8.6,1.1c-5.7,0-9-0.4-9.7-1.1l-8.6-30.1h-48.3l-8.6,30.1c0,0.7-2.9,1.1-8.6,1.1
		L78.7,351.6z M152.8,457.9c0-5.7-2.9-8.6-8.6-8.6h-30.1c-5.7,0-8.6,2.9-8.6,8.6v1.1c0,5.7,2.9,8.6,8.6,8.6h30.1
		c5.7,0,8.6-2.9,8.6-8.6V457.9z M109.9,306.4h38.7l-19.3-67.7L109.9,306.4z M302.1,286l-26.9,36.5l-15-7.5l21.5-29l-22.6-27.9
		l14-8.6L302.1,286z M311.8,249.5l27.9,35.4l-26.9,37.6l-14-8.6l20.4-27.9l-22.6-27.9L311.8,249.5z M564.3,125.4
		c7.2,7.5,10.7,17,10.7,28.5v292.2c0,11.5-3.6,20.9-10.7,28.5c-7.2,7.5-16.5,11.3-27.9,11.3H405.3c-11.5,0-20.8-3.8-27.9-11.3
		c-7.2-7.5-10.7-17-10.7-28.5V153.9c0-11.4,3.6-20.9,10.7-28.5c7.2-7.5,16.5-11.3,27.9-11.3h131.1
		C547.8,114.2,557.1,117.9,564.3,125.4z M557.8,153.9H382.7v277.1h175.1V153.9z M472.9,351.6h-44V219.4h44
		c24.3,0,36.5,10.4,36.5,31.2v4.3c0,15-6.1,24.4-18.3,27.9c14.3,3.6,21.5,12.5,21.5,26.9v9.7C512.7,340.8,499.4,351.6,472.9,351.6z
		 M446.1,275.3h24.7c14.3,0,21.5-6.4,21.5-19.3v-3.2c0-12.2-7.9-18.3-23.6-18.3h-22.6V275.3z M470.8,337.6
		c15.7,0,23.6-6.8,23.6-20.4v-5.4c0-14.3-7.5-21.5-22.6-21.5h-25.8v47.3H470.8z M483.7,457.9c0-8.6-4.3-12.9-12.9-12.9
		c-9.3,0-14,4.3-14,12.9c0,9.3,4.6,14,14,14C479.4,471.9,483.7,467.2,483.7,457.9z"/>
</g>
</svg>
