<?xml version="1.0" encoding="utf-8"?>
<!-- Generator: Adobe Illustrator 18.1.1, SVG Export Plug-In . SVG Version: 6.00 Build 0)  -->
<!DOCTYPE svg PUBLIC "-//W3C//DTD SVG 1.1//EN" "http://www.w3.org/Graphics/SVG/1.1/DTD/svg11.dtd">
<svg version="1.1" id="Layer_1" xmlns="http://www.w3.org/2000/svg" xmlns:xlink="http://www.w3.org/1999/xlink" x="0px" y="0px"
	 viewBox="0 0 600 600" enable-background="new 0 0 600 600" xml:space="preserve">
<g>
	<path d="M517,291.1c-47.9-30-95.8-59.9-143.8-89.9c-75.8-47.4-151.6-94.7-227.3-142.1C128.4,48.3,111,37.4,93.6,26.4
		c-6.7-4.2-15.5,1.3-15.5,8.9c0,59.8,0,119.6,0,179.4c0,94.7,0,189.4,0,284c0,21.9,0,43.8,0,65.7c0,4,1.9,6.8,4.5,8.4
		c2.9,2.3,6.9,3.1,11,0.5c47.9-29.9,95.8-59.9,143.8-89.8c75.8-47.3,151.6-94.7,227.3-142c17.4-10.9,34.9-21.8,52.3-32.7
		C523.6,304.7,523.6,295.2,517,291.1z M98.7,545.9c0-53.6,0-476.3,0-492C141.4,80.6,479.6,292,492.3,300
		C449.2,326.9,110.9,538.2,98.7,545.9z"/>
</g>
</svg>
