<?xml version="1.0" encoding="utf-8"?>
<!-- Generator: Adobe Illustrator 18.1.1, SVG Export Plug-In . SVG Version: 6.00 Build 0)  -->
<!DOCTYPE svg PUBLIC "-//W3C//DTD SVG 1.1//EN" "http://www.w3.org/Graphics/SVG/1.1/DTD/svg11.dtd">
<svg version="1.1" id="Layer_1" xmlns="http://www.w3.org/2000/svg" xmlns:xlink="http://www.w3.org/1999/xlink" x="0px" y="0px"
	 viewBox="0 0 600 600" enable-background="new 0 0 600 600" xml:space="preserve">
<g>
	<path d="M569.5,245.1c-11-54.7-39.2-105.4-79.5-143.9c-40.5-38.6-92.6-64.6-147.9-72.9c-13.9-2.1-28-3.2-42.1-3.2
		c-56.8,0.1-113,17.8-159.3,50.8C95.5,108.2,60.6,153.8,41.5,206c-19.8,54-21.8,114.2-6.1,169.5c15.1,53.2,46.7,101.4,89.4,136.6
		c43.6,36,97.6,57.8,154,62.2c57.1,4.4,115-9.3,163.9-39.1c47.1-28.6,85.2-71.5,107.9-121.7C574.3,360.9,580.9,301.6,569.5,245.1z
		 M555.4,372.8c-14.7,51.6-45.2,97.9-86.5,132.1c-41.7,34.6-94.1,55.7-148.2,59.8c-55.1,4.2-110.7-8.9-158-37.5
		c-45.7-27.7-82.3-69-104.5-117.6C35.1,358.9,28.8,301,40,246.6c10.9-52.8,37.9-101.4,76.8-138.6c39.1-37.3,89.2-62,142.6-70.3
		c13.4-2.1,27-3,40.6-3.1c54.9,0.1,108.8,17.2,153.6,48.9c43.5,30.8,77.3,74.9,95.6,124.9C568.5,260.9,570.6,319,555.4,372.8z"/>
	<path d="M435.1,300.9c-22.2-13.9-44.5-27.8-66.7-41.7c-35.2-22-70.4-44-105.5-66c-8.1-5.1-16.2-10.1-24.3-15.2
		c-3.1-1.9-7.2,0.6-7.2,4.1c0,27.8,0,55.5,0,83.3c0,44,0,87.9,0,131.9c0,10.2,0,20.3,0,30.5c0,1.9,0.9,3.1,2.1,3.9
		c1.3,1.1,3.2,1.4,5.1,0.2c22.2-13.9,44.5-27.8,66.7-41.7c35.2-22,70.4-44,105.5-65.9c8.1-5.1,16.2-10.1,24.3-15.2
		C438.2,307.2,438.2,302.8,435.1,300.9z M240.9,419.2c0-24.9,0-221.1,0-228.4c19.8,12.4,176.9,110.5,182.8,114.2
		C403.6,317.5,246.6,415.6,240.9,419.2z"/>
</g>
</svg>
