<?xml version="1.0" encoding="utf-8"?>
<!-- Generator: Adobe Illustrator 18.1.1, SVG Export Plug-In . SVG Version: 6.00 Build 0)  -->
<!DOCTYPE svg PUBLIC "-//W3C//DTD SVG 1.0//EN" "http://www.w3.org/TR/2001/REC-SVG-20010904/DTD/svg10.dtd">
<svg version="1.0" id="Layer_1" xmlns="http://www.w3.org/2000/svg" xmlns:xlink="http://www.w3.org/1999/xlink" x="0px" y="0px"
	 viewBox="0 0 600 600" enable-background="new 0 0 600 600" xml:space="preserve">
<path fill="#231F20" d="M534.4,278.7V166.5H406.1c4.8-2.1,9.1-4.6,12.7-7.5c31.6-27,35.7-74.8,9.2-106.4c-14.4-17.3-35.7-27-58.1-27
	c-17.3,0-34.5,6.3-48.3,17.8c-9.6,8.1-16.4,21.4-21.2,36.1C295.6,64.6,288.7,51,279,42.8C265.8,31.3,248.5,25,230.7,25
	c-22.4,0-43.7,9.8-58.1,27c-27,31.6-22.4,79.4,9.2,106.4c3.6,3.2,7.9,5.8,12.9,8.1H65.6v112.2h203.7v15H83.4v229
	c0,25.9,16.1,51.8,51.8,51.8h134v0.6h61.6v-0.6h134c25.9,0,51.8-16.7,52.4-51.8v-229H330.8v-15H534.4z M135.2,546.8
	c-19.6,0-24.2-13.2-24.2-24.2V321.9h158.2v224.9H135.2z M489,321.9v200.8c0,19.6-13.2,24.2-24.2,24.2h-134V321.9H489z M506.3,251.1
	H330.8v-57h175.5V251.1z M346.9,73.3c14.4-12.7,38.5-10.4,51.2,4.6c12.7,15,10.9,38-4.6,51.2c-1.7,1.2-10.4,7.5-42.6,7.5
	c-8.1,0-16.1-0.6-22.4-1.2C331.4,107.8,337.7,79.7,346.9,73.3z M201.9,77.4c6.9-8.6,17.3-13.2,28.2-13.2c8.6,0,16.7,2.9,23.6,8.6
	c8.1,6.9,15,35.1,17.8,62.7c-6.9,0.6-14.4,1.2-22.4,1.2c-32.2,0-40.8-6.3-42.6-7.5C191,115.9,188.7,92.9,201.9,77.4z M93.2,251.1
	v-57h176v57H93.2z"/>
<g id="Layer_1_1_">
</g>
</svg>
