<?xml version="1.0" encoding="utf-8"?>
<!-- Generator: Adobe Illustrator 18.1.0, SVG Export Plug-In . SVG Version: 6.00 Build 0)  -->
<svg version="1.1" id="Layer_102" xmlns="http://www.w3.org/2000/svg" xmlns:xlink="http://www.w3.org/1999/xlink" x="0px" y="0px"
	 viewBox="0 0.6 612 612" enable-background="new 0 0.6 612 612" xml:space="preserve">
<g>
	<g>
		<path fill="#020202" d="M553.9,184.8h-78.4v-109L395.8,0.6H145.2v184.9H59.1c-18.4,0-33.1,14.6-33.1,33.1v211.7
			c0,18.4,14.7,33.1,33.1,33.1h86.1v149.2h330.9V463.4h78.4c18.5,0,33.1-14.7,33.1-33.2V218.6C587.6,200.1,572.3,184.8,553.9,184.8z
			 M386.8,33.1l54.8,50.4h-54.8V33.1z M181.5,36.9h177.2v75.2h81v122.4H182.2V36.9H181.5z M439.1,576.2H181.5V371H439L439.1,576.2
			L439.1,576.2z"/>
	</g>
	<g>
		<rect x="213.4" y="415.6" fill="#020202" width="197" height="36.3"/>
	</g>
	<g>
		<rect x="211.5" y="486.4" fill="#020202" width="197" height="36.3"/>
	</g>
</g>
</svg>
