<?xml version="1.0" encoding="utf-8"?>
<!-- Generator: Adobe Illustrator 18.1.1, SVG Export Plug-In . SVG Version: 6.00 Build 0)  -->
<svg version="1.1" id="Layer_1" xmlns="http://www.w3.org/2000/svg" xmlns:xlink="http://www.w3.org/1999/xlink" x="0px" y="0px"
	 viewBox="0 0 600 600" enable-background="new 0 0 600 600" xml:space="preserve">
<g id="Layer_1_1_">
</g>
<path d="M300,25C148.1,25,25,148.1,25,300s123.1,275,275,275s275-123.1,275-275S451.9,25,300,25z M345.1,476.5h-90.3V419h90.3V476.5
	z M425.2,267.2c-4.1,12.3-10.3,20.5-18.5,30.8c-8.2,8.2-18.5,16.4-28.7,22.6c-10.3,6.2-24.6,12.3-39,18.5v51.3h-78v-75.9
	c10.3-2.1,20.5-6.2,28.7-8.2s18.5-8.2,26.7-14.4c8.2-6.2,16.4-12.3,20.5-20.5c4.1-8.2,8.2-16.4,8.2-26.7c0-14.4-4.1-24.6-14.4-32.8
	c-10.3-6.2-22.6-10.3-41-10.3c-10.3,0-22.6,2.1-36.9,6.2c-14.4,4.1-26.7,10.3-36.9,18.5h-8.2v-67.7c10.3-4.1,24.6-8.2,43.1-12.3
	c18.5-4.1,39-6.2,59.5-6.2c36.9,0,65.7,8.2,88.2,24.6c20.5,16.4,32.8,36.9,32.8,63.6C431.3,240.5,429.3,254.9,425.2,267.2z"/>
</svg>
