<?xml version="1.0" encoding="utf-8"?>
<!-- Generator: Adobe Illustrator 18.1.1, SVG Export Plug-In . SVG Version: 6.00 Build 0)  -->
<svg version="1.1" id="Layer_1" xmlns="http://www.w3.org/2000/svg" xmlns:xlink="http://www.w3.org/1999/xlink" x="0px" y="0px"
	 viewBox="0 0 600 600" enable-background="new 0 0 600 600" xml:space="preserve">
<g id="Layer_1_1_">
</g>
<path fill="#1B1C1A" d="M470.2,417.9L457.1,431l-39.6-39.6c32.8-38.8,52.7-89,52.7-143.8C470.2,124.7,370.6,25,247.6,25
	S25,124.7,25,247.6c0,123,99.7,222.6,222.6,222.6c54.8,0,105-19.8,143.8-52.7l39.6,39.6l-13.1,13.1L522.6,575l52.4-52.4L470.2,417.9
	z M70.8,247.6c0-97.5,79.3-176.8,176.8-176.8c97.5,0,176.8,79.3,176.8,176.8c0,97.5-79.3,176.8-176.8,176.8
	C150.1,424.4,70.8,345.1,70.8,247.6z"/>
</svg>
