<?xml version="1.0" encoding="utf-8"?>
<!-- Generator: Adobe Illustrator 18.1.1, SVG Export Plug-In . SVG Version: 6.00 Build 0)  -->
<!DOCTYPE svg PUBLIC "-//W3C//DTD SVG 1.0//EN" "http://www.w3.org/TR/2001/REC-SVG-20010904/DTD/svg10.dtd">
<svg version="1.0" id="Layer_1" xmlns="http://www.w3.org/2000/svg" xmlns:xlink="http://www.w3.org/1999/xlink" x="0px" y="0px"
	 viewBox="0 0 600 600" enable-background="new 0 0 600 600" xml:space="preserve">
<path fill="#231F20" d="M377.5,314.3c17.8-28.7,28.1-62.6,28.1-98.7C405.6,110,320.7,25,215,25C110,25,25,110,25,215.6
	c0,105.1,85,190.6,190,190.6c36.2,0,70-10.3,98.7-28.1L510.7,575l64.3-63.7L377.5,314.3z M215.6,363.7
	c-82.1-0.6-148.1-66.6-148.1-148.1S134.1,67.5,215.6,67.5s148.1,66,148.1,148.1C363.7,297.1,297.7,363.7,215.6,363.7z"/>
<g id="Layer_1_1_">
</g>
</svg>
