<?xml version="1.0" encoding="utf-8"?>
<!-- Generator: Adobe Illustrator 18.1.1, SVG Export Plug-In . SVG Version: 6.00 Build 0)  -->
<!DOCTYPE svg PUBLIC "-//W3C//DTD SVG 1.0//EN" "http://www.w3.org/TR/2001/REC-SVG-20010904/DTD/svg10.dtd">
<svg version="1.0" id="Layer_1" xmlns="http://www.w3.org/2000/svg" xmlns:xlink="http://www.w3.org/1999/xlink" x="0px" y="0px"
	 viewBox="0 0 600 600" enable-background="new 0 0 600 600" xml:space="preserve">
<g id="_x35_3_x5F_ServiceAlt">
	<g>
		<path fill="#231F20" d="M453,148.1c1.2-2.3-9.2-2.3-16.7-2.3s-15.5,0-16.7,2.3L302.3,451.3c-1.2,2.3,9.2,2.3,16.7,2.3
			c7.5,0,15.5,0,16.7-2.3L453,148.1z"/>
	</g>
	<g>
		<path fill="#231F20" d="M301.2,306.9c2.3,0,2.3-6.9,2.3-14.4c0-7.5,0-13.8-2.3-13.8h-23.6V161.3c0-2.3-6.3-2.3-14.4-2.3
			c-8.1,0-14.4,0-16.1,2.3l-79.4,124.3c-1.2,2.3-1.2,4-1.2,10.9s0,9.8,1.7,9.8h76.5v32.2c0,2.3,9.2,2.3,16.7,2.3
			c7.5,0,15.5,0,15.5-2.3v-32.2L301.2,306.9L301.2,306.9z M205.1,278.1l39.7-63.9v63.9H205.1z"/>
	</g>
	<g>
		<path fill="#231F20" d="M101.5,266.1c34.5-14.4,47.2-27.6,47.2-56.4c0-35.7-23.6-52.9-59.8-52.9c-21.3,0-43.1,6.9-55.8,13.8
			c-3.5,1.7,8.1,29.3,11.5,27.6c15-6.9,29.9-12.1,44.3-12.1c17.8,0,27,9.8,27,23.6s-6.9,20.1-39.7,34.5
			C36.5,261.5,25,280.4,25,320.7v20.1h120.2c2.3,0,2.3-6.3,2.3-13.8s0-14.4-2.3-14.4H59.5v-4C59.5,289.6,69.3,279.9,101.5,266.1"/>
	</g>
	<g>
		<path fill="#231F20" d="M476,451.9c-1.2,2.3,10.4,2.3,17.8,2.3c7.5,0,17.3,0,18.4-2.3l61-153c1.7-4,1.7-6.3,1.7-16.1
			c0-9.2-0.6-9.8-2.9-9.8H454.2c-2.3,0-2.3,6.9-2.3,14.4c0,7.5,0,15,2.3,15H537L476,451.9z"/>
	</g>
</g>
<g id="Layer_1_1_">
</g>
</svg>
