<?xml version="1.0" encoding="utf-8"?>
<!-- Generator: Adobe Illustrator 18.1.1, SVG Export Plug-In . SVG Version: 6.00 Build 0)  -->
<!DOCTYPE svg PUBLIC "-//W3C//DTD SVG 1.0//EN" "http://www.w3.org/TR/2001/REC-SVG-20010904/DTD/svg10.dtd">
<svg version="1.0" id="Layer_1" xmlns="http://www.w3.org/2000/svg" xmlns:xlink="http://www.w3.org/1999/xlink" x="0px" y="0px"
	 viewBox="0 0 600 600" enable-background="new 0 0 600 600" xml:space="preserve">
<g id="_x35_2_x5F_Service">
	<g>
		<path fill="#231F20" d="M575,481.6c0,0-10.3-33.8-12-38.4c-2.9-6.9-15.5-21.8-43-21.8H80c-27.5,0-40.1,14.9-43,21.8
			c-1.7,4.6-12,38.4-12,38.4H575z"/>
	</g>
	<g>
		<path fill="#231F20" d="M506.8,250.2c-26.9-39.5-67-61.3-112.9-61.3h-72.2v-26.9h18.9c12,0,21.8-9.7,21.8-21.8
			s-9.7-21.8-21.8-21.8h-81.4c-12,0-21.8,9.7-21.8,21.8s9.7,21.8,21.8,21.8h18.9v26.9H206c-96.8,0-147.2,93.4-147.2,185.6
			c0,15.5,12.6,27.5,27.5,27.5h427.4c15.5,0,27.5-12.6,27.5-27.5C541.2,326.9,529.2,282.8,506.8,250.2"/>
	</g>
</g>
<g id="Layer_1_1_">
</g>
</svg>
