<?xml version="1.0" encoding="utf-8"?>
<!-- Generator: Adobe Illustrator 18.1.1, SVG Export Plug-In . SVG Version: 6.00 Build 0)  -->
<!DOCTYPE svg PUBLIC "-//W3C//DTD SVG 1.0//EN" "http://www.w3.org/TR/2001/REC-SVG-20010904/DTD/svg10.dtd">
<svg version="1.0" id="Layer_1" xmlns="http://www.w3.org/2000/svg" xmlns:xlink="http://www.w3.org/1999/xlink" x="0px" y="0px"
	 viewBox="0 0 600 600" enable-background="new 0 0 600 600" xml:space="preserve">
<g id="_x37_3_x5F_Small">
	<g>
		<path fill="#231F20" d="M473.3,418.1c0-85.1-62.6-125.3-148.9-163.2c-50.6-22.4-107.5-44.3-107.5-96c0-42.5,30.5-71.8,89.1-71.8
			c44.8,0,92,16.7,121.8,32.8c8,4.6,32.2-55.2,24.1-58.6C412.4,41.1,364.1,25,306.6,25c-107.5,0-161.5,61.5-161.5,135.6
			c0,85.6,66.1,119.5,132.2,151.7c66.1,31,121.8,50.6,121.8,110.9c0,56.3-41.4,89.1-104.6,89.1c-49.4,0-108.6-30.5-135.6-49.4
			c-7.5-5.2-38.5,54.6-31,59.2c36.8,24.7,99.4,52.9,168.4,52.9C398.6,575,473.3,512.9,473.3,418.1"/>
	</g>
</g>
<g id="Layer_1_1_">
</g>
</svg>
