<?xml version="1.0" encoding="utf-8"?>
<!-- Generator: Adobe Illustrator 18.1.1, SVG Export Plug-In . SVG Version: 6.00 Build 0)  -->
<!DOCTYPE svg PUBLIC "-//W3C//DTD SVG 1.0//EN" "http://www.w3.org/TR/2001/REC-SVG-20010904/DTD/svg10.dtd">
<svg version="1.0" id="Layer_1" xmlns="http://www.w3.org/2000/svg" xmlns:xlink="http://www.w3.org/1999/xlink" x="0px" y="0px"
	 viewBox="0 0 600 600" enable-background="new 0 0 600 600" xml:space="preserve">
<g id="Layer_1_1_">
</g>
<g id="Layer_1_2_">
</g>
<g id="_x32_5_x5F_SmartphoneBroadband">
	<g>
		<path fill="#231F20" d="M298,508H81.7V165.8H298V508L298,508z M173.2,541.2c0-9.2,7.4-16.6,16.6-16.6c9.2,0,16.6,7.4,16.6,16.6
			s-7.4,16.6-16.6,16.6C180.7,557.8,173.2,550.4,173.2,541.2 M318.6,526.9V165.2c0-28.6-19.5-48.1-48.1-48.1H109.1
			c-28.6,0-48.1,19.5-48.1,48.1v361.7c0,28.6,19.5,48.1,48.1,48.1h161.4C298.6,575,318.6,555.5,318.6,526.9"/>
	</g>
	<g>
		<polygon fill="#231F20" points="385.6,208.1 359.2,62.2 392.4,56.5 412.5,170.4 525.8,149.8 531.5,182.4 		"/>
	</g>
	<g>
		<polygon fill="#231F20" points="436.5,133.2 418.2,30.7 450.8,25 463.4,94.8 533.2,82.2 538.9,114.9 		"/>
	</g>
</g>
<g id="Layer_1_3_">
</g>
</svg>
