<?xml version="1.0" encoding="utf-8"?>
<!-- Generator: Adobe Illustrator 18.1.1, SVG Export Plug-In . SVG Version: 6.00 Build 0)  -->
<!DOCTYPE svg PUBLIC "-//W3C//DTD SVG 1.0//EN" "http://www.w3.org/TR/2001/REC-SVG-20010904/DTD/svg10.dtd">
<svg version="1.0" id="Layer_1" xmlns="http://www.w3.org/2000/svg" xmlns:xlink="http://www.w3.org/1999/xlink" x="0px" y="0px"
	 viewBox="0 0 600 600" enable-background="new 0 0 600 600" xml:space="preserve">
<g id="_x35_5_x5F_Smiley">
	<g>
		<path fill="#231F20" d="M162.9,222.1c15.5,0,37.4,0,37.4-6.3V133c0-6.3-21.3-6.3-37.4-6.3c-15.5,0-37.4,0-37.4,6.3v82.2
			C126.1,222.1,147.4,222.1,162.9,222.1 M167.5,472.8c15.5,0,37.4,0,37.4-6.3v-82.2c0-6.3-21.3-6.3-37.4-6.3
			c-15.5,0-37.4,0-37.4,6.3v82.2C130.1,472.8,152,472.8,167.5,472.8"/>
	</g>
	<g>
		<path fill="#231F20" d="M380.2,26.6c-10.9-10.9-74.7,35.6-67.3,44.8c35.1,39.1,75.3,128.2,75.3,227.1
			c0,104.6-40.8,198.4-67.8,235.7c-6.9,10.3,61.5,48.9,71.9,39.1c31-33.3,82.2-140.3,82.2-276C474.5,180.7,422.8,73.2,380.2,26.6"/>
	</g>
</g>
<g id="Layer_1_1_">
</g>
</svg>
