<?xml version="1.0" encoding="utf-8"?>
<!-- Generator: Adobe Illustrator 18.1.0, SVG Export Plug-In . SVG Version: 6.00 Build 0)  -->
<svg version="1.1" id="Layer_1" xmlns="http://www.w3.org/2000/svg" xmlns:xlink="http://www.w3.org/1999/xlink" x="0px" y="0px"
	 viewBox="0 0 600 600" enable-background="new 0 0 600 600" xml:space="preserve">
<g id="_x34_1_x5F_Rating">
	<g>
		<g>
			<path d="M300,144.5l33.5,103.6l7.4,22.9h24h108.5l-87.9,63.9L366.1,349l7.5,22.8l33.8,103.5l-87.7-63.7l-19.4-14.1l-19.4,14
				l-89.1,64.4l33.9-104.1l7.4-22.8l-19.4-14.1L126.1,271h108.2h23.9l7.5-22.7L300,144.5 M300.3,38.2l-65.8,199.7H25l169.4,123.6
				l-65.2,200.3l171.1-123.6l170.1,123.6l-65.3-200.3L575,237.9H365L300.3,38.2L300.3,38.2z"/>
		</g>
	</g>
</g>
<g id="Layer_1_1_">
</g>
</svg>
