<?xml version="1.0" encoding="utf-8"?>
<!-- Generator: Adobe Illustrator 18.1.1, SVG Export Plug-In . SVG Version: 6.00 Build 0)  -->
<svg version="1.1" id="Layer_1" xmlns="http://www.w3.org/2000/svg" xmlns:xlink="http://www.w3.org/1999/xlink" x="0px" y="0px"
	 viewBox="0 0 255 255" enable-background="new 0 0 255 255" xml:space="preserve">
<path d="M250.1,67.1c-0.5-0.1-0.8-0.5-1.1-1c-0.1,0-0.1-0.1-0.2-0.1c-0.9-0.4-0.7-1.3-0.5-2.1c-0.2-0.8-0.3-1.6-0.5-2.3
	c-0.9-1.5-2.3-2.6-3.9-2.6c-1.6,0.5-2.9,2.5-4.8,2.2c-1.4-0.2-3.2-4-4.8-6.1c-0.9-0.9-1.9-1.7-2.6-1.1c-1.1,1.1-2.2,1.1-3.2,0.7
	c-0.3,0-0.6-0.1-0.8-0.2c-1.1-0.4-2.2-2.3-3.1-3.5c-0.5-0.7-0.9-1.3-1.2-1.7c-1.3-1.7,1-2.6-1.8-2.6c-0.9,0-1.5,0-2-0.1
	c-0.5,0.2-0.9,0.5-1.3,0.8c-1.5,2.1-5.4,1.9-7.5,2.7c-1.2,0.4-2.3,1.4-3.4,2.1c-0.2,1.5-1.2,1.5-2.5,0.9c-0.7,0-1.5-0.3-2.2-1
	c-0.4-0.4-0.8-0.8-1.1-1.3c-0.7-0.5-1.2-1-1.4-1.2c-0.5-0.5-0.9-1.5-1.3-2.4c-0.9-1.2-1.9-2.2-3.3-2.9c-0.2-0.1-0.3-0.2-0.5-0.2l0,0
	c-0.5-0.2-1-0.4-1.6-0.6c-1.6-0.6-3.2-0.8-4.6-0.4c-1.4,0.6-2.5,2-3.7,3c0,0.1-0.1,0.1-0.1,0.2c-0.9,1.8-4.5,2-7.5,1.9
	c-0.6,0-1.1,0-1.7-0.1c-0.8,0-1.6-0.1-2.1-0.1c-2.9,0-3.9-1.1-5.5-1.5c-2-0.3-3.3,0.2-6.2,1.5c-0.6,0.3-1.1,0.5-1.5,0.6
	c-1.2,0.9-1.9,1.9-3,3.8c-0.2,0.3-0.5,0.7-0.8,1.2c-0.2,0.5-0.4,1.1-0.9,1.6c-0.2,0.2-0.3,0.3-0.4,0.5c0,0,0,0.1,0,0.1
	c-0.1,0.1-0.1,0.3-0.1,0.4c0,0.6,0,1.1,0,1.6c0.1,0.8,0.2,1.6,0,2.3c-0.1,0.4-0.4,0.8-0.7,1.2c-0.1,0.2-0.1,0.3-0.2,0.5
	c-0.4,0.8-0.9,1.4-1.3,1.9c0,0.1-0.1,0.2-0.1,0.3c0,1.4-2,1.4-3.3,1.8c-0.3,0.2-0.7,0.3-1,0.5c-1.7,1.3-2.2,2.5-3.6,3.8
	c-0.4,0.3-1.2,1-2,1.7c-0.4,0.4-0.9,0.7-1.3,1c-1.5,1.1-3,1.9-3.7,1.4c-0.7-0.5-1.4-1-2.1-1.5c-0.9-0.5-1.8-1.1-3.2-1.6
	c-1.2-0.4-4.6-1.3-6.9-0.7c-1.6,0.7-2,2.4-2.2,4.2c0,0.7-0.1,1.2-0.2,1.7c-0.1,0.8-0.3,1.5-0.6,2.1c-1,2-8.1,3.9-10.6,3.9
	c-2.4,0-4.8,0-7,0.3c-0.9,0.9-1.9,0.6-3,0.8c-0.2,0.1-0.5,0.1-0.7,0.2c-0.6,0.3-1,0.6-1.3,0.9c0,0,0,0,0,0c-1.1,1-1.5,2.2-2.3,3.8
	c-0.4,1.6-0.3,3.3,0.3,4.8c0.6,0.6,1.8,1.2,2.8,1.7c0.6,0.2,1.2,0.4,1.2,0.8c0.3,2.3-2.1,0.4-3.4,1.1c-0.1,0.1-3.4,4.1-3.4,3.9
	c0,1-2.8,0.7-4.5,0.6c-1.8,0.1-3.4,0.9-4.8,1c-1.3,0.6-2.5,1.2-4.1,1.2c-2.7,0-5.5,0-8.2,0c-1.8,0-3.5,0.2-5.1,0.4
	c-0.3,0.1-0.7,0.2-1,0.4c-1.9,0.9-4.2,0.8-6.3,0.3c-6.6-0.2-12.3-9-18.1-11.1c-1-0.4-1.8-0.6-2.6-0.8c-0.8-0.2-1.7-0.3-2.5-0.3
	c-0.1,0-0.3,0.1-0.4,0.3c0.3,2.4-2.3,6.1-2.3,8.8c0,3.8,2.2,8-1.7,9.3c-0.3,0.1-0.7,0.2-1,0.3c-0.1,0-0.1,0-0.2,0.1
	c-2.7,0.9-4.7,1.2-6.8,0.7c-0.5-0.1-1.1-0.3-1.6-0.5c-4.5-1.9-5.5-3-9.6-0.2c-2.6,2.2-1.8,3.4,0.1,4c1.6,0.4,3.6,0.6,4.6,0.6
	c2.6,0,3.8,1.4,4.1,3.2c0.5,1.3,0.4,2.9-0.4,4.1c-0.9,1.3-2.3,3.6-3.9,4c-0.9,0.2-1.6,0.3-2.2,0.4c-1.1,0.6-1.8,1.2-1.8,2.2
	c0,1.9,1.4,4,2.1,5.7c0.2,0.4-0.1,0.8-0.5,1.2c-0.6,0.8-1.4,1.6-1.6,2.4c0.1,1.7,1,3.4,2.2,4.6c1.6,1.6,1.1,3,1.1,5.2
	c0,1.2-0.4,1.5-1.1,1.6c-0.7,0.2-1.7,0-2.8-0.2c0,0,0,0-0.1,0c-1,0-2.1,0-3.1,0c-0.4,0.2-0.7,0.6-0.8,1.3c0.1,0.4,0.1,0.8,0,1
	c-1.5,1.5-3.9,5.1-5.5,6.4c0,0.1,0.2,0.2,0.4,0.2c1.7,0,2.9-1.1,4.5-1.1c1.1,0,2.7,1.8,4,2.2c-1.5,1.2-1.6,2.4-1.1,3.6
	c0.8,1.6,2.9,3.2,3.7,4.7c0.1,0.2,0.2,0.5,0.3,0.7c0.1,0.1,0.1,0.2,0.2,0.4c1.8,3.5,3.2,7.4,6.7,9c1.8,0.5,3.5,0.2,5,1.4
	c0.2,0.2,0.4,0.3,0.6,0.5c1.9,0.8,3.6,1.7,5.2,3.2c2,0.7,2.4,4.3,3.9,6c2,1.9,4.3,1.3,6.6,2.4c0.3,0.2,0.6,0.4,0.9,0.6
	c1.1,0.4,2.2,1,3.2,1.9c2.6,2.6,2.8,6.1,5.3,8.6c0,0,0,0,0,0c0.3,0.2,0.6,0.5,0.9,0.6c0.3,0.1,0.9,0.6,1.5,1.1
	c1.1,0.4,2,0.3,3.1,0.1c0.3-0.2,0.5-0.4,0.9-0.4c0.9,0,1.5,0,2.1,0c0.1,0,0.2,0,0.3,0c2.3,0,3.2,0.9,3.8,2c0.2,0.2,0.4,0.5,0.7,0.7
	c2.4,2.4,1.6,2.8,5.5,3.7c4.4,1.1,5.6,0.7,9.8,0.2c0.2,0,0.4,0,0.5,0c3.6-0.6,8,0,11.6,0c2.8,0,4.6-0.2,6.4-1.1
	c1.1-0.8,2.2-1.6,3.3-2.5c0.1-0.1,0.2-0.2,0.3-0.3c0.9-0.9,1.6-1.7,2.4-2.6c0.8-1.2,1.7-2.9,2.7-3.5c1.3-0.7,1.8,2.2,3.4,0
	c3.4-0.3,6.5-3,8.5-5.6c2.5-3.3,3.1-0.9,5.3-0.5c0.4,0,1-0.1,1.6-0.2c1.4-0.4,3-1.2,4.4-2.2c2.4-2,3.8-4.6,5.5-6.7
	c1.1-2,2.5-3.7,5.6-3.7c4.8,0,10.2-1.7,15.3-1.8c2.4-0.2,4.6,0.1,6.7,1.1c0.5,0.2,1,0.5,1.5,0.7c0-0.2,0.1-0.4,0.2-0.6
	c0-0.4,0.4-0.8,1.1-1.2c1.9-1.4,5.2-2.5,6.6-2.7c0.1,0,0.2,0,0.4,0c1-0.2,2-0.2,3,0c-0.5-0.1,0.7,1.1,1.3,1.6
	c0.7,0.3,1.5,0.3,2.6-0.2c2.6-1.3,1.6-4.8,2.9-7c0.4-0.7,0.8-1.1,1.3-1.4c0.6-0.7,1.4-1,2.6-0.7c6.3,1.5,10.6,1,10.8-5.9
	c-0.1-0.7-0.1-1.4,0-2c0.3-1.1,2.4-3,3-3.9c0.1-0.2,0.2-0.4,0.2-0.6c0-0.2,0-0.3,0-0.5c-0.9-2.8-1.5-5.1-0.1-7.8
	c0.4-0.8,1.2-1.8,2-2.7c1.1-1.2,2.5-2.4,3.4-2.4c0.3,0,0.5-0.1,0.6-0.1c0.3-0.3,0.5-0.6,0.6-0.8c0-0.4-0.2-0.9-0.5-1.5
	c-0.6-0.3-1.5-0.6-1.3-1.4c0.5-2.2,0.9-3.8,2.1-5.7c0.3-0.4,0.9-1.4,1.5-2.4c1.7-3.5,2.9-7,0.8-7c0.8-3.7,3.6-6.2,5.1-9.7
	c0.8-2.1-0.7-2-0.1-4.1c0.4-1.7,0.8-4.8,1.9-6.2c0.5-0.7,1.5-0.9,2.3-1.2c0.8-2-0.1-0.9-0.1-3.2c0-3.1-0.7-7.5,2.9-9.2
	c0.2-0.1,0.4-0.2,0.5-0.3c0.9-1.3,1.7-2.2,1.7-2.2c-1.1-1.1-0.2-2.8,1.1-4.3c0-0.1,0-0.1,0-0.2c0.6-1.8,2.9-3.5,4.9-5.1
	c0.8-1,1.7-1.9,2.5-2.1c0.1,0,3.8,0.8,5.6,1c0.8-0.1,0.4-0.5,1.2-1c2.4-1.7,4.1-3.9,5.4-6.4c0.6-1.4,1.3-3.2,2.2-4.4
	C250.2,67.2,250.2,67.2,250.1,67.1z M121.9,175c0,0-26.2-24.1-26.2-39s12-26.9,26.2-26.9s26.2,12,26.2,26.9
	C148.1,151.6,121.9,175,121.9,175z"/>
<path d="M121.9,122.6c-7.8,0-14.2,6.4-14.2,14.2c0,7.8,6.4,14.2,14.2,14.2s14.2-6.4,14.2-14.2C136,129,129.7,122.6,121.9,122.6z"/>
</svg>
