<?xml version="1.0" encoding="utf-8"?>
<!-- Generator: Adobe Illustrator 19.1.1, SVG Export Plug-In . SVG Version: 6.00 Build 0)  -->
<svg version="1.1" id="Layer_1" xmlns="http://www.w3.org/2000/svg" xmlns:xlink="http://www.w3.org/1999/xlink" x="0px" y="0px"
	 viewBox="0 0 600 600" enable-background="new 0 0 600 600" xml:space="preserve">
<g>
	<path d="M555.8,238.9c-0.6,0-1-0.2-1.6-0.2v-17.3c0-7.9-9.2-14.2-20.6-14.2h-9.6c-33-92-120.8-158-224-158s-191,66.1-224,158h-9.6
		c-11.4,0-20.6,6.4-20.6,14.2v17.3c-0.6,0-1.1,0.2-1.6,0.2H25v14V318v13.9h18.5c0.7,0.1,1.4,0.3,2.1,0.3v17.3
		c0,7.9,9.2,14.2,20.6,14.2h18.6c11.4,0,20.6-6.4,20.6-14.2V221.4c0-3.2-1.8-5.9-4.3-8.3c30.2-80.6,107.8-138.2,198.9-138.2
		c91,0,168.6,57.6,198.8,138.2c-2.6,2.4-4.4,5.2-4.4,8.4v128.2c0,3.6,2.1,6.8,5.4,9.4c-25.1,69.9-85.7,122.9-160.1,137
		c-5.5-16.6-21.1-28.7-39.5-28.7c-23.1,0-41.9,18.7-41.9,41.8c0,23.1,18.7,41.8,41.9,41.8c18.6,0,34.2-12.2,39.6-29
		c86.9-14.7,157.8-76.4,185.6-158.1h8.2c11.4,0,20.6-6.4,20.6-14.2v-17.3c0.7,0,1.4-0.2,2.1-0.3H575v-93.1H555.8z"/>
	<path d="M312.5,363.9c-0.4,1-3.4,1-5.8,1c-2.6,0-6.3,0-5.9-1l64.8-156.5c0.5-1,3.4-1,5.9-1s6.3,0,5.9,1L312.5,363.9z"/>
	<path d="M174.5,292.6v2.4h44.1c1.1,0,1.1,2.7,1.1,5.1c0,2.4,0,5-1.1,5h-56.4v-9.3c0-19.4,6.8-27.9,26-37.3
		c17.1-8.4,20.5-11.7,20.5-20c0-8.3-5.9-14-16.3-14c-7.5,0-14.5,2.3-21.7,6c-1.5,0.9-5.7-8.9-4.3-9.7c6.1-3.4,15.9-6.7,26-6.7
		c17.7,0,28,8.8,28,24.5c0,14.1-6.9,20.1-22.8,27.6C179,275,174.5,280.3,174.5,292.6"/>
	<path d="M272.1,276.6v-40.1l-25.2,40.1H272.1z M283.7,286.8v17.8c0,1-3.2,1-5.6,1c-2.4,0-6,0-6-1v-17.8h-38.4
		c-0.6,0-0.7-1.1-0.7-3.7c0-2.7,0.1-3.4,0.6-4.1l39.9-62.9c0.6-0.9,3-0.9,5.4-0.9c2.3,0,4.9,0,4.9,0.9v60.5h11.3c1,0,1,2.7,1,5.1
		s0,5.1-1,5.1H283.7z"/>
	<path d="M422,283.8h-43c-1,0-1-2.8-1-5.2c0-2.4,0-5.1,1-5.1h55.5c0.7,0,1,0.2,1,3.4c0,3.5-0.2,4.5-0.7,5.9l-30.9,79.6
		c-0.4,1-3.9,1-6.5,1c-2.4,0-6.7,0-6.3-1L422,283.8z"/>
</g>
</svg>
