<?xml version="1.0" encoding="utf-8"?>
<!-- Generator: Adobe Illustrator 18.1.1, SVG Export Plug-In . SVG Version: 6.00 Build 0)  -->
<!DOCTYPE svg PUBLIC "-//W3C//DTD SVG 1.1//EN" "http://www.w3.org/Graphics/SVG/1.1/DTD/svg11.dtd">
<svg version="1.1" id="Layer_1" xmlns="http://www.w3.org/2000/svg" xmlns:xlink="http://www.w3.org/1999/xlink" x="0px" y="0px"
	 viewBox="0 0 600 600" enable-background="new 0 0 600 600" xml:space="preserve">
<path fill-rule="evenodd" clip-rule="evenodd" d="M523.4,491.9h-292l-69,68.3l-69-68.3h-17C48.1,491.9,25,469,25,440.8V90.9
	c0-28.2,23.1-51.1,51.6-51.1h446.9c28.5,0,51.6,22.9,51.6,51.1v349.9C575,469,551.9,491.9,523.4,491.9z M535.7,113.1
	c0-18.8-15.4-34.1-34.4-34.1H98.7c-19,0-34.4,15.2-34.4,34.1v305.4c0,18.8,15.4,34.1,34.4,34.1h12.1l51.8,55.4l51.8-55.4h287.1
	c19,0,34.4-15.3,34.4-34.1V113.1z M454.7,216.7H145.3c-9.5,0-17.2-12.9-17.2-22.3c0-9.4,7.7-17,17.2-17h309.4
	c9.5,0,17.2,14.2,17.2,23.7C471.9,210.4,464.2,216.7,454.7,216.7z M145.3,275.7h240.6c9.5,0,17.2,12.9,17.2,22.3
	c0,9.4-7.7,17-17.2,17H145.3c-9.5,0-17.2-10.1-17.2-19.5C128.1,286,135.8,275.7,145.3,275.7z"/>
</svg>
