<?xml version="1.0" encoding="utf-8"?>
<!-- Generator: Adobe Illustrator 18.1.1, SVG Export Plug-In . SVG Version: 6.00 Build 0)  -->
<!DOCTYPE svg PUBLIC "-//W3C//DTD SVG 1.1//EN" "http://www.w3.org/Graphics/SVG/1.1/DTD/svg11.dtd">
<svg version="1.1" id="Layer_1" xmlns="http://www.w3.org/2000/svg" xmlns:xlink="http://www.w3.org/1999/xlink" x="0px" y="0px"
	 viewBox="0 0 600 600" enable-background="new 0 0 600 600" xml:space="preserve">
<g>
	<path fill="#211C1D" d="M191.5,132.6c0,59.4,48.2,107.5,107.5,107.5s107.5-48.2,107.5-107.5S358.5,25,299,25
		S191.5,73.2,191.5,132.6"/>
</g>
<g>
	<path fill="#211C1D" d="M451.2,500.2c-2.7-7.2-6.9-13.7-12.6-19.4c-10.8-10.8-24.9-16.1-39-16.1s-28.3,5.4-39,16.1
		c-3.9,3.9-7.1,8.3-9.6,12.9l-111.4-0.1c-2.5-4.7-5.7-9-9.6-12.9c-10.6-10.8-24.7-16.3-38.9-16.3c-14.1,0-28.3,5.4-39.2,16.3
		c-5.7,5.7-9.9,12.2-12.6,19.4l45.1,0.2l6.5,19.4l-6.5,19.4l-45.1,0.2c2.7,7.2,6.9,13.7,12.6,19.4c10.8,10.8,24.9,16.1,39,16.1
		c14.1,0,28.3-5.4,39-16.1c3.9-3.9,7.1-8.3,9.6-12.9l111.4,0c2.5,4.7,5.7,9,9.6,12.9c10.7,10.9,24.8,16.3,38.9,16.3
		c14.1,0,28.3-5.4,39.2-16.3c5.7-5.7,10.1-12.4,12.6-19.4l-45.1-0.2l-6.5-19.4l6.5-19.4L451.2,500.2z"/>
	<path fill="#211C1D" d="M397,255.2l-98,114.4l-97.4-114.4C132,277.7,83.8,322.6,83.8,375.1v107.5c0,8.3,7.7,16.2,21.3,23.3
		l6.1-16.3c4.2-11.3,10.8-21.4,19.5-30.1c8.2-8.2,17.7-14.5,28.3-18.8c10.2-4.2,21.1-6.3,32.1-6.3c11.1,0,21.9,2.1,32.1,6.3
		c10.6,4.3,20,10.7,28.1,18.9c1.3,1.3,2.6,2.6,3.8,4l80.4,0.1c1.2-1.4,2.5-2.8,3.8-4.1c8.1-8.1,17.6-14.4,28.2-18.7
		c10.2-4.1,21-6.2,32-6.2c11.1,0,21.8,2.1,32,6.2c10.6,4.3,20.1,10.6,28.2,18.7c8.8,8.8,15.4,19,19.5,30.3l7.1,19.3
		c17.6-7.8,27.7-16.9,27.7-26.6V375.1C514.6,322.6,466.6,277.6,397,255.2z"/>
</g>
<g id="Layer_1_2_">
</g>
</svg>
