<?xml version="1.0" encoding="utf-8"?>
<!-- Generator: Adobe Illustrator 19.1.1, SVG Export Plug-In . SVG Version: 6.00 Build 0)  -->
<svg version="1.1" id="Layer_1" xmlns="http://www.w3.org/2000/svg" xmlns:xlink="http://www.w3.org/1999/xlink" x="0px" y="0px"
	 viewBox="595 -243.3 600 600" style="enable-background:new 595 -243.3 600 600;" xml:space="preserve">
<g>
	<path d="M941,53c0,0-9.7-21.5-8.4-22.1c19.2-8.5,82.1-16.8,105.7-19.6c32.9-3.9,69.8-6.3,86-6.3c14.4,0,21.7-8.5,22.1-14.2
		c0.2-3.3-2.5-5.4-8.1-6.1c-73.7-9.6-176.5-9.8-226.2-2.5c-22.6,2.1-23-20.2-2.6-23.5c60.2-7.1,156.3-7.3,231.8,2.5
		c21,2.7,29.5,17.6,28.7,31.1c-1.2,17.8-18.6,36.3-45.7,36.3c-15.1,0-51.6,2.4-83.2,6.1C994.4,40.3,956,47.3,941,53z"/>
</g>
<g>
	<path d="M669,16.8c-6.1,0-11.1,5-11.1,11.1c0,6.1,5,11.1,11.1,11.1s10.4-5,10.4-11.1C679.3,21.7,675.1,16.8,669,16.8z"/>
	<path d="M973.1,29.1c-10,0.7-5.8-0.2-25.7,3.2l-13-2.1c-11.7,3.5-3.4,26.2,8.4,22.6l17.5-5.2c-3,19.5-3.2,22.9-16.4,26.9l-13.4,4.1
		c-11.9,3.6-6.3,21.3,5.4,17.8l16.5-5.4c-2.3,17.6-2.9,22.7-15.6,26.6l-13.2,4.5c-11.7,3.5-6.4,21.4,5.4,17.8l13.9-4.7
		c-4.3,30.3-36.8,34.3-67.1,30.8c-45.7-5.1-60.1-32.6-134.8-33.5v26.9c29.9,1,49.3,4.6,78.2,17c15.4,6.6,31.3,13.5,53.7,16
		c48.4,5.5,81.9-6.9,94.3-53.5c6.3-23.6,14.7-67.7,21.3-113C982.8,27.4,977.2,28.8,973.1,29.1z"/>
	<path d="M620,173.9h98.1V-19.6H620V173.9z M647.3,7.6h43.6v139h-43.6V7.6z"/>
</g>
<path d="M880.2-53.5c22.4,2.8,42.6,10.7,55.3,21.7c1.8,1.5,3.3,3,4.6,4.5l29.6-0.7c-3.1-7.1-8.4-15.1-17.6-23.1
	c-16.4-14.2-41.5-24.3-68.7-27.7c-28-3.5-54.8,0.1-75.6,10.1c-40.8,19.7-65.4,49-66.8,50.7v38.3c0.3-0.4,41.9-48.6,77.9-66
	C835-53.6,857.4-56.4,880.2-53.5z"/>
</svg>
