<?xml version="1.0" encoding="utf-8"?>
<!-- Generator: Adobe Illustrator 18.1.1, SVG Export Plug-In . SVG Version: 6.00 Build 0)  -->
<svg version="1.1" id="Layer_1" xmlns="http://www.w3.org/2000/svg" xmlns:xlink="http://www.w3.org/1999/xlink" x="0px" y="0px"
	 viewBox="0 0 600 600" enable-background="new 0 0 600 600" xml:space="preserve">
<g id="Layer_1_1_">
</g>
<path id="thumb-12-icon" fill="#0D0F0F" d="M169,531.9V248.6H25v283.3H169z M129,492.1H65.1V288.5H129V492.1z M112.1,318.1
	c0,8.9-6.3,16.3-15.2,16.3s-16.3-7.2-16.3-16.3c0-8.9,7.3-16.3,16.3-16.3S112.1,309.2,112.1,318.1z M431.7,230.8
	c17.7-71.3,27.3-191.6-47.8-191.6c-40.5,0-51.2,36.2-61.7,72.3c-25.8,88.5-72.2,128.2-119.7,147.7v43.8
	c83.4-26.9,135-109.3,154.1-170c8-25.5,10.7-60.7,32.5-54.1c27.4,8.3,20.9,97.7-4,171.9c24.9,18,83.4,41.6,149.9,33.4
	c-1.5,22.4-2.6,33.1-19.2,37.8l-24.9,6.6c-17.2,5.2-9.5,31.3,7.9,26.1l25.8-7.5c-4.3,28.6-4.7,33.5-24.1,39.3l-19.7,6
	c-17.5,5.3-9.3,31.3,7.9,26.1l24.2-7.9c-3.4,25.8-4.2,33.2-23,38.9l-19.3,6.6c-17.2,5.2-9.5,31.3,7.9,26.1l20.5-6.8
	c-6.4,44.4-54,50.2-98.5,45.2c-67-7.5-88.1-47.7-197.8-49v39.4c43.9,1.5,72.4,6.7,114.7,24.8c22.6,9.7,45.9,19.7,78.9,23.4
	c71,8,120.2-10.1,138.4-78.3C547,433.2,565.7,329,575,241.4C538.4,250.4,478,250.1,431.7,230.8z"/>
</svg>
