<?xml version="1.0" encoding="utf-8"?>
<!-- Generator: Adobe Illustrator 18.1.1, SVG Export Plug-In . SVG Version: 6.00 Build 0)  -->
<!DOCTYPE svg PUBLIC "-//W3C//DTD SVG 1.1//EN" "http://www.w3.org/Graphics/SVG/1.1/DTD/svg11.dtd">
<svg version="1.1" id="Layer_1" xmlns="http://www.w3.org/2000/svg" xmlns:xlink="http://www.w3.org/1999/xlink" x="0px" y="0px"
	 viewBox="0 0 600 600" enable-background="new 0 0 600 600" xml:space="preserve">
<g>
	<g>
		<path d="M569.5,151.8c-4.6-4.2-11.1-5.8-17.2-4l-30.2,8.7l-3.7-5c-6.8-9.4-14.2-18.3-22.1-26.5c-43.6-45.8-102.5-74.8-165.9-81.6
			c-9.9-1.1-19.9-1.6-29.8-1.6c-55.3,0-108.4,16.4-153.6,47.3C98,122.7,61.6,172.1,44.5,228c-1.4,4.5-0.8,9.3,1.6,13.4
			c2.4,4.1,6.3,7,11,8.2l34.3,8.7c9.2,2.3,18.6-2.8,21.4-11.7c12.7-40.6,39.3-76.5,75.1-101.1c33.1-22.7,72.2-34.8,112.9-34.8
			c7.3,0,14.7,0.4,21.9,1.2c44,4.8,85.6,24.3,117.1,55.1l10.5,10.3l-20.7,6c-6.1,1.7-10.7,6.5-12.2,12.5c-1.5,6,0.4,12.3,5,16.5
			l92.9,86c3.3,3.1,7.7,4.7,12.2,4.7c1.7,0,3.4-0.2,5-0.7c6.1-1.8,10.7-6.5,12.2-12.5l29.9-121.5C576,162.3,574.1,156,569.5,151.8z
			 M542.9,350.4l-34.3-8.7c-9.2-2.3-18.6,2.8-21.4,11.7c-12.7,40.6-39.3,76.5-75.1,101.1c-33.1,22.7-72.2,34.8-112.9,34.8
			c-7.3,0-14.7-0.4-21.9-1.2c-44-4.8-85.6-24.3-117.1-55.1l-10.5-10.3l20.7-6c6.1-1.8,10.7-6.5,12.2-12.5c1.5-6-0.4-12.3-5-16.5
			l-92.9-86c-4.6-4.2-11.1-5.8-17.2-4c-6.1,1.8-10.7,6.5-12.2,12.5L25.5,431.7c-1.5,6,0.4,12.3,5,16.5c4.6,4.2,11.1,5.8,17.2,4
			l30.2-8.7l3.7,5c6.8,9.4,14.2,18.3,22.1,26.5c43.6,45.8,102.5,74.8,165.9,81.6c9.9,1.1,19.9,1.6,29.8,1.6
			c55.3,0,108.4-16.4,153.6-47.3c49.1-33.7,85.5-83,102.6-138.9c1.4-4.5,0.8-9.3-1.6-13.4C551.6,354.6,547.6,351.6,542.9,350.4z
			 M299.9,337.1c13.7,0,24.8-10.8,24.8-24.2V188.7c0-13.4-11.1-24.2-24.8-24.2c-13.7,0-24.8,10.8-24.8,24.2v100h-64.5
			c-13.7,0-24.8,10.8-24.8,24.2c0,13.4,11.1,24.2,24.8,24.2H299.9z"/>
	</g>
</g>
</svg>
