<?xml version="1.0" encoding="utf-8"?>
<!-- Generator: Adobe Illustrator 18.1.1, SVG Export Plug-In . SVG Version: 6.00 Build 0)  -->
<!DOCTYPE svg PUBLIC "-//W3C//DTD SVG 1.0//EN" "http://www.w3.org/TR/2001/REC-SVG-20010904/DTD/svg10.dtd">
<svg version="1.0" id="Layer_1" xmlns="http://www.w3.org/2000/svg" xmlns:xlink="http://www.w3.org/1999/xlink" x="0px" y="0px"
	 viewBox="0 0 600 600" enable-background="new 0 0 600 600" xml:space="preserve">
<g id="Layer_1_1_">
</g>
<path fill="#231F20" d="M300,25C147.9,25,25,147.9,25,300c0,151.5,122.9,275,275,275c151.5,0,275-122.9,275-275
	C574.4,147.9,451.5,25,300,25z M300,511c-116.6,0-211.5-94.3-211.5-211.5S182.8,87.9,300,87.9c116.6,0,211.5,94.3,211.5,211.5
	S416.6,511,300,511z"/>
<polygon fill="#231F20" points="320.6,130.8 278.9,130.8 278.9,320.6 300,320.6 320.6,320.6 426.4,320.6 426.4,278.9 320.6,278.9 
	"/>
<g id="Layer_1_2_">
</g>
</svg>
