<?xml version="1.0" encoding="utf-8"?>
<!-- Generator: Adobe Illustrator 18.1.1, SVG Export Plug-In . SVG Version: 6.00 Build 0)  -->
<!DOCTYPE svg PUBLIC "-//W3C//DTD SVG 1.0//EN" "http://www.w3.org/TR/2001/REC-SVG-20010904/DTD/svg10.dtd">
<svg version="1.0" id="Layer_1" xmlns="http://www.w3.org/2000/svg" xmlns:xlink="http://www.w3.org/1999/xlink" x="0px" y="0px"
	 viewBox="0 0 600 600" enable-background="new 0 0 600 600" xml:space="preserve">
<g>
	<g>
		<path d="M171,341.4c-31.3,0-57.4,25.5-57.4,57.4c0,31.3,26.1,57.4,57.4,57.4c31.9,0,57.4-26.1,57.4-57.4
			C228.4,366.9,202.9,341.4,171,341.4z M171,420.2c-12.2,0-21.4-9.3-21.4-21.4c0-12.2,9.3-22,21.4-22c12.2,0,21.4,9.9,21.4,22
			C192.5,411,183.2,420.2,171,420.2z M566.3,292.7l-55.6-31.9l-44.1-84l-7.5-16.2v-2.9c0-7.5-6.4-13.9-13.9-13.9H63.8
			c-7.5,0-13.9,6.4-13.9,13.9v197.6H25V404h67.8v-5.2c0-10.4,2.3-20.9,6.4-30.7c4.1-9.3,9.3-17.4,16.8-24.9c7-7,15.7-12.7,24.9-16.8
			c9.3-4.1,19.7-5.8,30.1-5.8c42.9,0,78.2,34.8,78.2,78.2v5.2h122.9v-5.2c0-10.4,2.3-20.9,6.4-30.7c4.1-9.3,9.3-17.4,16.8-24.9
			c7-7,15.7-12.7,24.9-16.8c9.3-4.1,19.7-5.8,30.1-5.8c42.9,0,78.2,34.8,78.2,78.2v5.2h32.5c8.1,0,13.9-5.8,13.9-13.3v-85.2
			C575,299.7,571.5,295.1,566.3,292.7z M379.1,259.7v-82.9h52.2l43.5,82.9H379.1z M450.4,341.4c-31.3,0-57.4,25.5-57.4,57.4
			c0,31.3,26.1,57.4,57.4,57.4c31.9,0,57.4-26.1,57.4-57.4C507.8,366.9,482.3,341.4,450.4,341.4z M450.4,420.2
			c-12.2,0-21.4-9.3-21.4-21.4c0-12.2,9.3-22,21.4-22c12.2,0,21.4,9.9,21.4,22C471.8,411,462.6,420.2,450.4,420.2z"/>
	</g>
</g>
<g>
</g>
<g>
</g>
<g>
</g>
<g>
</g>
<g>
</g>
<g>
</g>
</svg>
