<?xml version="1.0" encoding="utf-8"?>
<!-- Generator: Adobe Illustrator 18.1.1, SVG Export Plug-In . SVG Version: 6.00 Build 0)  -->
<!DOCTYPE svg PUBLIC "-//W3C//DTD SVG 1.0//EN" "http://www.w3.org/TR/2001/REC-SVG-20010904/DTD/svg10.dtd">
<svg version="1.0" id="Layer_1" xmlns="http://www.w3.org/2000/svg" xmlns:xlink="http://www.w3.org/1999/xlink" x="0px" y="0px"
	 viewBox="0 0 600 600" enable-background="new 0 0 600 600" xml:space="preserve">
<g id="_x34_9_x5F_Unlocked">
	<g>
		<path fill="#231F20" d="M490.5,257.6v280.7c0,0-0.6,36.7-36.1,36.7H145.6c-36.1,0-36.1-36.7-36.1-36.7V257.6h256.1v-106
			c0-34.9-30.9-65.9-65.9-65.9s-65.9,30.9-65.9,65.9v21.2h-60.7v-21.2C173.1,81.7,229.8,25,299.7,25s127.2,56.7,127.2,127.2v106
			h63.6V257.6z M320.9,411.7c12.6-7.4,21.2-20.6,21.2-36.1c0-23.5-18.9-41.8-41.8-41.8c-23.5,0-41.8,18.9-41.8,41.8
			c0,15.5,8.6,28.6,21.2,36.1v87.7h41.3V411.7L320.9,411.7z"/>
	</g>
</g>
<g id="Layer_1_1_">
</g>
</svg>
