<?xml version="1.0" encoding="utf-8"?>
<!-- Generator: Adobe Illustrator 18.1.1, SVG Export Plug-In . SVG Version: 6.00 Build 0)  -->
<!DOCTYPE svg PUBLIC "-//W3C//DTD SVG 1.0//EN" "http://www.w3.org/TR/2001/REC-SVG-20010904/DTD/svg10.dtd">
<svg version="1.0" id="Layer_1" xmlns="http://www.w3.org/2000/svg" xmlns:xlink="http://www.w3.org/1999/xlink" x="0px" y="0px"
	 viewBox="0 0 600 600" enable-background="new 0 0 600 600" xml:space="preserve">
<g id="Layer_1_1_">
</g>
<g id="_x31_8_x5F_Upload">
	<g>
		<polygon fill="#231F20" points="172.3,427.7 199.9,455.9 279.9,375.4 279.9,575 319.6,575 319.6,375.4 399.5,455.9 427.1,427.7 
			300,300 		"/>
	</g>
	<g>
		<path fill="#231F20" d="M467.4,166.5c0-1.2,0.6-2.9,0.6-4c0-42-33.9-76.5-76.5-76.5c-12.1,0-23.6,2.9-33.4,8.1
			c-10.4-39.7-46-69-88.6-69c-50.6,0-91.5,40.8-91.5,91.5c0,10.9,1.7,21.3,5.2,30.5h-20.7c-42,0-76.5,33.9-76.5,76.5
			c0,42,33.9,76.5,76.5,76.5H445c38,0,69-31.1,69-69C513.4,201.6,494.5,176.3,467.4,166.5"/>
	</g>
</g>
<g id="Layer_1_2_">
</g>
</svg>
