<?xml version="1.0" encoding="utf-8"?>
<!-- Generator: Adobe Illustrator 18.1.1, SVG Export Plug-In . SVG Version: 6.00 Build 0)  -->
<!DOCTYPE svg PUBLIC "-//W3C//DTD SVG 1.0//EN" "http://www.w3.org/TR/2001/REC-SVG-20010904/DTD/svg10.dtd">
<svg version="1.0" id="Layer_1" xmlns="http://www.w3.org/2000/svg" xmlns:xlink="http://www.w3.org/1999/xlink" x="0px" y="0px"
	 viewBox="0 0 600 600" enable-background="new 0 0 600 600" xml:space="preserve">
<g id="_x33_9_x5F_Usage">
	<g>
		<path fill="#231F20" d="M300,437.8l-127.5,37.9c0.6-51.1,35-72.3,71.8-94.7c20.7-12.6,43.1-26.4,55.7-45.9
			c12.6,20.1,35,33.9,55.7,45.9c36.7,21.8,71.2,43.1,71.8,94.7L300,437.8z M172.5,124.9c0-0.6,0-1.1,0-1.1
			c0-36.7,59.7-68.9,127.5-68.9S427.5,87,427.5,123.7c0,0.6,0,1.1,0,1.1L300,162.8L172.5,124.9z M319.5,300
			c0-59.1,137.8-59.1,137.8-176.8C457.3,64.6,378.7,25,300,25s-157.3,39.6-157.3,98.2c0,117.7,137.8,117.7,137.8,176.8
			s-137.8,59.1-137.8,176.8c0,59.1,78.7,98.2,157.3,98.2s157.3-39.6,157.3-98.2C457.3,359.1,319.5,359.1,319.5,300"/>
	</g>
</g>
<g id="Layer_1_1_">
</g>
</svg>
