<?xml version="1.0" encoding="utf-8"?>
<!-- Generator: Adobe Illustrator 18.1.1, SVG Export Plug-In . SVG Version: 6.00 Build 0)  -->
<!DOCTYPE svg PUBLIC "-//W3C//DTD SVG 1.1//EN" "http://www.w3.org/Graphics/SVG/1.1/DTD/svg11.dtd">
<svg version="1.1" id="Layer_1" xmlns="http://www.w3.org/2000/svg" xmlns:xlink="http://www.w3.org/1999/xlink" x="0px" y="0px"
	 viewBox="0 0 600 600" enable-background="new 0 0 600 600" xml:space="preserve">
<g>
	<g>
		<path d="M258.2,139.2h29v-24.4h-29V139.2z M312.8,139.2h29v-24.4h-29V139.2z M406,194.8h-5.1V42.1c0-9.4-7.6-17.1-16.9-17.1H216
			c-9.3,0-16.9,7.7-16.9,17.1v152.7H194c-9.3,0-16.9,7.7-16.9,17.1v131.7c0,37.5,29.2,71.3,68,78.5l41.4,6.1V575h33.8V428.2
			l38.1-6.2c37.4-7,64.5-40,64.5-78.5V211.9C422.9,202.4,415.3,194.8,406,194.8z M232.9,59.1h134.2v135.7H232.9V59.1z M389.1,343.6
			c0,25.2-20.3,45.7-45.3,45.7h-87.7c-25,0-45.2-20.5-45.2-45.7V228.9h178.2V343.6z"/>
	</g>
</g>
</svg>
