<?xml version="1.0" encoding="utf-8"?>
<!-- Generator: Adobe Illustrator 18.1.1, SVG Export Plug-In . SVG Version: 6.00 Build 0)  -->
<!DOCTYPE svg PUBLIC "-//W3C//DTD SVG 1.0//EN" "http://www.w3.org/TR/2001/REC-SVG-20010904/DTD/svg10.dtd">
<svg version="1.0" id="Layer_1" xmlns="http://www.w3.org/2000/svg" xmlns:xlink="http://www.w3.org/1999/xlink" x="0px" y="0px"
	 viewBox="0 0 600 600" enable-background="new 0 0 600 600" xml:space="preserve">
<g id="Layer_1_1_">
</g>
<g id="Layer_1_2_">
</g>
<g id="_x32_1_x5F_Video">
	<g>
		<path fill="#231F20" d="M442.8,398.7V377c0-24-19.5-44.1-44.1-44.1H134.9c-24,0-44.1,19.5-44.1,44.1v154c0,24,19.5,44.1,44.1,44.1
			h263.8c24,0,44.1-19.5,44.1-44.1v-21.7L575,553.3v-198L442.8,398.7z"/>
	</g>
	<g>
		<path fill="#231F20" d="M157.2,25C83.9,25,25,83.9,25,157.2s58.9,132.2,132.2,132.2c72.7,0,132.2-58.9,132.2-132.2
			S229.9,25,157.2,25 M157.2,200.7c-24,0-44.1-19.5-44.1-44.1c0-24,19.5-44.1,44.1-44.1s44.1,19.5,44.1,44.1
			S181.2,200.7,157.2,200.7"/>
	</g>
	<g>
		<path fill="#231F20" d="M442.8,25c-72.7,0-131.6,58.9-131.6,132.2s58.9,131.6,131.6,131.6S575,229.9,575,156.6S516.1,25,442.8,25
			 M442.8,200.7c-24,0-44.1-19.5-44.1-44.1c0-24,19.5-44.1,44.1-44.1c24,0,44.1,19.5,44.1,44.1S467.4,200.7,442.8,200.7"/>
	</g>
</g>
<g id="Layer_1_3_">
</g>
</svg>
