<?xml version="1.0" encoding="utf-8"?>
<!-- Generator: Adobe Illustrator 18.1.1, SVG Export Plug-In . SVG Version: 6.00 Build 0)  -->
<!DOCTYPE svg PUBLIC "-//W3C//DTD SVG 1.1//EN" "http://www.w3.org/Graphics/SVG/1.1/DTD/svg11.dtd">
<svg version="1.1" id="Layer_1" xmlns="http://www.w3.org/2000/svg" xmlns:xlink="http://www.w3.org/1999/xlink" x="0px" y="0px"
	 viewBox="0 0 600 600" enable-background="new 0 0 600 600" xml:space="preserve">
<g>
	<g>
		<path d="M440.7,456.9c-9.6,0-20.2-7.8-40.4-25.8c-21-18-51.8-43-97-43c-45.2,0-76.8,25-97,43c-20.2,18-30,25.8-39.6,25.8
			c-9.6,0-20.2-7.8-40.4-25.8c-20.2-18-51.7-43-97-43c-1.4-0.1-2.8,0-4.2,0.1v62.8c1.4,0.2,2.8,0.3,4.2,0.3
			c21.8,0,34,10.1,52.6,26.5c18.5,16.3,43.6,42.1,84,42.1s65.4-25.8,84-42.1c18.6-16.3,30.8-26.5,52.6-26.5
			c21.8,0,34,10.1,52.6,26.5c18.5,16.3,43.6,42.1,84,42.1c40.4,0,65.4-25.8,84-42.1c18.2-15.9,31-26,51.9-26.5v-63.3
			c-44,0.8-74.8,25.3-94.7,42.9C460.1,449.1,450.3,456.9,440.7,456.9z M478.7,275.8c-17.8,15.6-27.5,24.2-36.3,25.8
			c-1.6,0-2.4,0.8-3.2,0.8c-3.2,0-7.3-1.5-11.4-4c-7.3-4-16.1-11-28.3-22.6c-20.2-18-51.8-43-97-43h-8.1
			c-40.4,3.1-69.5,25.8-88.9,42.1c-17.8,15.6-27.5,24.2-36.3,25.8c-1.6,0-2.4,0.8-3.2,0.8c-3.2,0-7.3-1.5-11.4-4
			c-1.6-0.8-3.2-1.5-4.9-2.3c-6.5-4-13.7-11-24.3-19.5c-20.2-18-51.8-43-97-43c-1.2,0-2.4,0.1-3.5,0.2v63c1.2,0.1,2.4,0.1,3.5,0.1
			c21.8,0,34,10.2,52.6,26.5c18.6,16.5,43.6,42.1,84,42.1h7.3c36.3-3.1,59.1-26.5,76.8-42.1c11.4-10.2,21-18,31.6-21.8
			c2.4-0.8,4.1-1.5,6.5-2.3c2.4-0.8,4.9-0.8,7.3-1.5c2.4,0,4.9-0.8,8.1-0.8c21.8,0,34,10.2,52.6,26.5c4.9,4,9.6,8.5,15.3,14
			c17,14,38.1,28.8,68.7,28.8h7.3c36.3-3.1,59.1-26.5,76.8-42.1c11.4-10.2,21-18,31.6-21.8c2.4-0.8,4.1-1.5,6.5-2.3
			c2.4-0.8,4.9-0.8,7.3-1.5c1.9,0,4-0.5,6.4-0.7v-63.3h-7.4C527.2,236.7,498.1,259.4,478.7,275.8z M568.3,80
			c-40.4,3.1-69.5,25-88.9,42.1c-17.8,15.6-27.5,24.2-36.3,25.8c-1.6,0-2.4,0.8-3.2,0.8c-2.4,0-4.9-0.8-7.3-1.5
			c-4.9-2.3-11.4-6.2-18.6-13.3c-4.1-3.1-8.9-7-13.7-11.7c-20.2-18-51.8-42.1-97-42.1h-8.1c-40.4,3.1-69.5,25-88.9,42.1
			c-17.8,15.6-27.5,24.2-36.3,25.8c-1.6,0-2.4,0.8-3.2,0.8c-2.4,0-4.9-0.8-7.3-1.5c-2.4-0.8-5.7-3.1-8.9-4.7
			c-6.5-4-13.7-11-24.3-19.5c-20.2-18-51.8-42.1-97-42.1h-3.2c-0.4,0-0.8,0-1.2,0.1v62.2c1.1,0.1,2.2,0.1,3.3,0
			c21.8,0,34,9.3,52.6,25.8c18.6,16.4,43.6,42.1,84,42.1h7.3c36.3-3.1,59.1-26.5,76.8-42.1c16.1-14,27.5-23.5,45.3-25.8
			c2.4,0,4.9-0.8,8.1-0.8c21.8,0,34,9.3,52.6,25.8c4.9,4,9.6,8.5,15.3,14c17,14,38.1,28.8,68.7,28.8h7.3
			c36.3-3.1,59.1-26.5,76.8-42.1c16.1-14,27.5-23.5,45.3-25.8c2,0,4.2-0.5,6.7-0.7V80H568.3z"/>
	</g>
</g>
</svg>
