<?xml version="1.0" encoding="utf-8"?>
<!-- Generator: Adobe Illustrator 18.1.1, SVG Export Plug-In . SVG Version: 6.00 Build 0)  -->
<!DOCTYPE svg PUBLIC "-//W3C//DTD SVG 1.0//EN" "http://www.w3.org/TR/2001/REC-SVG-20010904/DTD/svg10.dtd">
<svg version="1.0" id="Layer_1" xmlns="http://www.w3.org/2000/svg" xmlns:xlink="http://www.w3.org/1999/xlink" x="0px" y="0px"
	 viewBox="0 0 600 600" enable-background="new 0 0 600 600" xml:space="preserve">
<path fill="#231F20" d="M377.7,314c17.8-28.6,28.1-62.5,28.1-98.6c0-105-84.9-190.4-190.4-190.4C110.4,25,25,110.4,25,215.4
	s85.4,190.4,190.4,190.4c36.1,0,69.9-10.3,98.6-28.1L511.3,575l63.7-63.7L377.7,314z M215.4,363.4c-82,0-147.9-66.5-147.9-147.9
	c0-82,66.5-147.9,147.9-147.9S363.3,134,363.3,215.5S297.4,363.4,215.4,363.4z"/>
<g>
	<polygon fill="#231F20" points="236.6,130.5 194.2,130.5 194.2,194.2 131.1,194.2 131.1,236.6 194.2,236.6 194.2,299.7 
		236.6,299.7 236.6,236.6 300.3,236.6 300.3,194.2 236.6,194.2 	"/>
</g>
<g id="Layer_1_1_">
</g>
</svg>
